<?xml version="1.0" standalone="no"?>
<!DOCTYPE svg PUBLIC "-//W3C//DTD SVG 1.1//EN" "http://www.w3.org/Graphics/SVG/1.1/DTD/svg11.dtd" >
<svg>
<metadata>
Created by FontForge 20110222 at Thu Jul 31 09:06:13 2014
 By deploy user
Copyright (c) 2009 by Marcus Sterz / FaceType. All rights reserved.
</metadata>
<defs>
<font id="StrangeloveText" horiz-adv-x="243" >
  <font-face 
    font-family="Strangelove Text"
    font-weight="400"
    font-stretch="normal"
    units-per-em="1000"
    panose-1="2 0 5 8 0 0 0 2 0 4"
    ascent="800"
    descent="-200"
    x-height="627"
    cap-height="632"
    bbox="-23 -147 528 769"
    underline-thickness="50"
    underline-position="-50"
    unicode-range="U+0020-2122"
  />
<missing-glyph horiz-adv-x="150" 
 />
    <glyph glyph-name=".notdef" horiz-adv-x="150" 
 />
    <glyph glyph-name="B" unicode="B" horiz-adv-x="210" 
d="M35 93q0 44 -2 87t-4 88q-1 23 -1 46.5v46.5v130v63t-2 63q0 7 5 7q20 2 35.5 3t29.5 1q12 0 23.5 -2t19.5 -8q21 -15 33 -51.5t14 -78.5v-17q0 -10 -0.5 -20t-1.5 -20q-4 -25 -12 -44.5t-22 -29.5q-22 -17 -47 -20q42 -11 62 -41t20 -90q0 -9 0.5 -23t1 -28.5t1 -27
t0.5 -17.5v-3q0 -41 -10.5 -63t-29.5 -32t-46 -12t-60 -2q-2 0 -3 0.5t-2 0.5q-6 0 -6 6q0 17 1.5 33.5t2.5 33.5v21zM47 71q0 -16 -0.5 -29.5t-0.5 -29.5q34 0 58.5 3t40 13t22.5 28.5t7 50.5q0 45 -0.5 68t-1 35.5t-2 19.5t-3.5 19q-3 18 -9 32.5t-18.5 25.5t-33 17
t-52.5 8h-11v-63q1 -42 2.5 -83t1.5 -83v-32zM67 345q19 0 38 3.5t31 12.5q8 9 15 17.5t11.5 22t7 33t2.5 50.5v6q-2 38 -14.5 72.5t-33.5 51.5q-5 3 -12 3.5t-17 0.5q-14 0 -28.5 -0.5t-23.5 -1.5q1 -23 1 -45v-45q0 -45 -0.5 -90.5t-0.5 -90.5h24z" />
    <glyph glyph-name="C" unicode="C" horiz-adv-x="215" 
d="M39 100q0 -15 1.5 -29.5t9.5 -28.5q8 -13 28.5 -23t40.5 -10q21 0 33.5 19t19 44.5t9 50.5t2.5 37q0 17 0.5 27t1.5 15t3 6t4 1q3 0 3.5 -2t1.5 -12q0 -25 -1 -51t-5.5 -51t-14.5 -47.5t-28 -40.5q-10 -10 -28 -10q-22 0 -45 12t-33 24q-6 9 -10 20t-4 22t-1 24t-1 27
q0 63 1 122.5t1 122.5q0 14 -0.5 42.5t-0.5 58.5q0 33 1.5 64t7.5 49q7 23 26 33.5t42 10.5q21 0 41 -7.5t34 -21.5q11 -11 14 -27.5t3 -33.5q0 -10 -0.5 -19t-0.5 -17q0 -2 -3 -4t-6 -2q-2 0 -4 1t-2 3q0 9 0.5 18t0.5 17q0 14 -2.5 27.5t-10.5 25.5q-30 25 -62 25
q-16 0 -31 -7t-27 -22q-2 -7 -3 -18.5t-2 -41.5t-1 -86v-152q0 -39 -1.5 -79t-1.5 -80v-26z" />
    <glyph glyph-name="D" unicode="D" horiz-adv-x="238" 
d="M29 0q-3 0 -3 3q2 91 3 179t1 179v126.5t-2 131.5q0 8 19 8q7 0 15.5 -0.5t19.5 -0.5q17 0 32.5 -3t29.5 -16q16 -14 26 -31.5t15 -37.5t8 -40.5t6 -40.5q7 -46 10 -88.5t3 -86.5q0 -40 -3 -82q-1 -14 -2.5 -37.5t-1.5 -38.5q0 -26 -11.5 -48.5t-30.5 -40t-42 -27.5
t-45 -10q-9 0 -19.5 1t-20.5 1h-7zM50 13q8 0 13 -0.5t11 -0.5q21 0 42 10.5t37.5 27t27 36.5t11.5 40q2 48 3.5 90t1.5 83q0 38 -4 79t-8 78q-2 19 -5.5 40.5t-9.5 41t-15 35.5t-24 25q-14 8 -28.5 11t-29.5 3h-32q3 -131 3 -261q0 -85 -1 -169t-4 -169h11z" />
    <glyph glyph-name="E" unicode="E" horiz-adv-x="224" 
d="M46 317q40 0 76 1t78 4q5 0 5 -4q0 -3 -3 -6t-8 -3q-41 -4 -75 -4.5t-73 -0.5q0 -7 -0.5 -13t-0.5 -13q-2 -67 -3.5 -131.5t-2.5 -131.5q21 0 34 -0.5t21 -1t12.5 -0.5h8.5q43 0 88 3q7 0 7 -7q0 -2 -2 -5t-6 -3q-41 -3 -80 -3q-48 0 -93 3q-3 0 -3 4q2 94 4 185t2 182
q0 60 -1 121.5t-5 122.5q1 3 3.5 6.5t7.5 3.5q26 0 48 -0.5t46 -0.5t41.5 0.5t32.5 0.5q5 0 6 -1.5t1 -3.5t-1.5 -4.5t-6.5 -2.5q-10 0 -31.5 -0.5t-46.5 -0.5q-17 0 -38.5 -0.5t-47.5 -0.5q4 -57 5 -115t1 -114v-66z" />
    <glyph glyph-name="F" unicode="F" horiz-adv-x="207" 
d="M118 613h-40t-39 1q0 -38 1.5 -77t2.5 -77q0 -35 1 -65.5t1 -61.5q7 0 13 -0.5t11 -0.5q13 0 25 0.5t24 0.5h19.5t20.5 -1q6 -2 6 -4q0 -6 -6 -7q-1 -1 -15 -1.5t-31 -0.5q-22 0 -43 0.5t-25 1.5q-1 -78 -3 -156.5t-2 -156.5q0 -12 -9 -12q-4 0 -4 4q0 107 1 213t2 214
q0 57 -1.5 103t-1.5 88q1 3 3.5 6.5t7.5 3.5q42 -2 81.5 -2h80.5q3 -3 3 -5q0 -6 -5 -8h-79z" />
    <glyph glyph-name="G" unicode="G" horiz-adv-x="223" 
d="M195 224q0 -8 0.5 -25.5t0.5 -39.5q0 -20 -0.5 -42.5t-2.5 -42t-5.5 -34t-8.5 -19.5q-12 -13 -29.5 -19t-37.5 -6q-25 0 -47.5 11.5t-30.5 36.5q-5 17 -6.5 40t-1.5 49q0 32 1 61.5t1 46.5q0 42 1 88t1 91v44t-2 42q-1 11 -1.5 24t-0.5 25q0 10 2.5 21.5t8.5 19.5
q5 7 15.5 13.5t23 11.5t25.5 8t24 3t21 -4q20 -11 31.5 -25.5t17 -32t7 -38.5t1.5 -44v-10q-4 -4 -6 -4q-7 0 -9 5q0 22 -1.5 47t-8 45t-19 33.5t-34.5 13.5q-10 0 -22 -2.5t-23.5 -8t-20.5 -13t-13 -17.5q-7 -15 -7 -35v-9.5t0.5 -20.5t1 -43.5t1 -76.5t0.5 -120.5v-176.5
q0 -15 1 -30.5t5 -29.5q12 -15 27.5 -21t32.5 -6q34 0 61 21q8 10 9.5 63.5t1.5 131.5h-38.5t-27.5 2q-4 0 -4 5q0 3 2 6t5 3q23 -2 41.5 -1.5t41.5 -1.5q5 -3 5 -7q0 -5 -4 -6h-6z" />
    <glyph glyph-name="H" unicode="H" horiz-adv-x="238" 
d="M54 219q-1 -54 -4.5 -108t-3.5 -108q-1 -5 -8 -5q-2 0 -5 1t-3 5q0 57 3.5 115t3.5 125q0 40 -4 82t-6 81q-1 12 -1 24.5v25.5q0 42 2.5 84t5.5 83q1 4 8 4q6 0 7 -5l-4 -90t-2 -91q0 -22 0.5 -38t1 -28t1.5 -22t1 -19q38 0 74.5 -0.5t71.5 -1.5q-1 44 -2 78t-1.5 61
t-1 49t-0.5 43v29t1 30q2 4 8 4t8 -5q0 -11 -0.5 -22.5t-0.5 -22.5q0 -45 2 -90t2 -91q0 -21 0.5 -67t1.5 -102t1.5 -115.5t0.5 -107.5q-3 -5 -8 -5q-8 0 -8 6q0 78 -1 156t-1 158q-36 2 -72 2.5t-73 0.5z" />
    <glyph glyph-name="I" unicode="I" horiz-adv-x="75" 
d="M46 0q-1 -4 -9 -4t-8 5q2 29 2 60v60q0 40 -1 79t-1 80q0 88 -1.5 174t-1.5 173q0 5 7 5t9 -4q0 -87 1 -173.5t3 -173.5q1 -42 2 -83t1 -84q0 -57 -3 -114z" />
    <glyph glyph-name="J" unicode="J" horiz-adv-x="211" 
d="M185 272q0 -14 -0.5 -37t-1.5 -47.5t-2 -48t-2 -38.5q0 -18 -5.5 -36.5t-16 -34t-25.5 -25t-34 -9.5q-18 0 -37.5 7t-30.5 19q-16 17 -20.5 39.5t-4.5 46.5q0 15 0.5 29t1.5 28q1 3 8 3t8 -4q0 -12 -1.5 -25.5t-1.5 -27.5q0 -20 3.5 -38t12.5 -35q8 -14 23.5 -21.5
t32.5 -7.5q15 0 28.5 6t22.5 18q12 15 17 34t5 36q0 42 2 85t2 85q0 44 -1 81.5t-2 66.5q-2 52 -2 104t-3 104q0 2 3 4t5 2q5 0 8 -5q3 -52 4 -103.5t1 -104.5q0 -5 0.5 -20t1 -34l1 -38t0.5 -33v-25z" />
    <glyph glyph-name="K" unicode="K" horiz-adv-x="198" 
d="M83 213q-3 -11 -8.5 -26.5t-11.5 -32t-12 -32t-11 -25.5q0 -18 1 -29t1 -20q0 -12 0.5 -24t1.5 -23q-1 -5 -8 -5t-8 4q-1 23 -1 47v48q0 48 1 95.5t1 95.5q0 82 -1.5 169t-1.5 169q0 6 7 6q5 0 7 -5q0 -83 2 -170t2 -170q0 -39 -1 -77t-1 -77q8 22 14.5 45.5t11.5 37.5
q20 59 34 119t28 121q9 41 19.5 86t20.5 85q2 4 8 4t8 -5q-10 -41 -19.5 -85.5t-19.5 -85.5q-10 -44 -21 -87t-23 -87q7 -19 13.5 -41.5t12.5 -46t11.5 -46t10.5 -42.5q6 -25 12.5 -51t17.5 -49q0 -6 -8 -6q-6 0 -7 4q-9 14 -14 40.5t-16 60.5q-9 38 -19 76.5t-21 75.5z" />
    <glyph glyph-name="L" unicode="L" horiz-adv-x="206" 
d="M193 16q8 -1 8 -7q0 -2 -1.5 -4.5t-6.5 -2.5q-29 0 -54 -3.5t-52 -3.5q-13 0 -25 1.5t-26 3.5q-5 0 -5 5q0 49 -1 96.5t-3 96.5q-1 11 -1 28.5v28.5q0 21 0.5 45t1.5 64.5t2 103.5t1 162q0 2 3 4t5 2q5 0 8 -5q0 -100 -2.5 -206t-2.5 -206q0 -53 2.5 -102t2.5 -103
q13 -3 24.5 -3.5t24.5 -0.5q24 0 48.5 3t48.5 3z" />
    <glyph glyph-name="M" unicode="M" horiz-adv-x="364" 
d="M44 329q0 -83 -0.5 -164t-0.5 -162q-1 -5 -8 -5q-2 0 -5 1t-3 5q0 81 0.5 161.5t0.5 162.5q0 48 -0.5 84t-1 63t-0.5 47.5v38.5v33t1 33q2 4 8 4t8 -5q13 -59 33 -113t36 -110q14 -48 23 -103t19 -104q7 -35 15.5 -68.5t14.5 -68.5q11 70 27 141t34 142l36 142t32 141
q1 3 8 3t8 -4q2 -41 4 -81.5t3 -80.5q2 -68 2 -140v-139v-179q-1 -5 -8 -5q-2 0 -5 1t-3 5q0 59 -0.5 117.5t-0.5 118.5q0 79 -1.5 157t-3.5 157q-41 -154 -70.5 -289.5t-53.5 -262.5q-1 -5 -8 -5t-8 6q-3 19 -7.5 42.5t-10 48.5t-11 50.5t-10.5 49.5q-9 45 -16.5 88
t-18.5 87q-12 49 -29 104.5t-31 100.5v-23q0 -32 1 -65t1 -65v-93z" />
    <glyph glyph-name="N" unicode="N" 
d="M47 561q-1 -41 -2 -86t-1 -85q0 -92 1.5 -165t1.5 -142v-40.5t-1 -40.5q-1 -5 -8 -5t-7 6q1 44 1.5 87t0.5 87q0 37 -1 66.5t-2.5 54.5t-2.5 47.5t-1 45.5q0 40 2.5 85t3.5 86q0 12 1 24t1 25q0 8 -0.5 10.5t-0.5 4.5q1 4 8 4q5 0 9 -6q11 -45 25.5 -87t26.5 -85
q22 -78 41.5 -161t35.5 -162q4 -17 7.5 -36t11.5 -42l-2 160t-1 161q0 60 1 125t6 125q1 3 7 3q7 0 8 -4q-2 -42 -3 -82.5t-1 -81.5q0 -63 1 -129t1 -128q0 -51 -0.5 -100t-0.5 -99q0 -3 -3.5 -3.5t-4.5 -0.5q-5 0 -8 10q-4 11 -9 26l-10.5 31.5t-9.5 33t-7 30.5
q-16 79 -34.5 162.5t-41.5 160.5q-9 30 -19 60t-20 61v-11z" />
    <glyph glyph-name="P" unicode="P" horiz-adv-x="205" 
d="M48 627q10 0 19 0.5t19 0.5q23 0 44 -6t38 -28q14 -17 19.5 -40.5t5.5 -47.5q0 -11 -0.5 -21t-1.5 -20q-2 -22 -5 -43t-8 -43q-5 -23 -11 -37t-16 -22.5t-25.5 -13.5t-39.5 -9q-11 -2 -21 -2h-21q2 -42 3 -82t1 -80q0 -32 -0.5 -66t-5.5 -65q-1 -5 -8 -5q-2 0 -5 1t-3 5
q4 30 5 63t1 63q0 61 -3 121t-3 121q0 32 1 65.5t4 67.5q0 17 0.5 25.5t2.5 14.5q0 20 -0.5 38.5t-0.5 38.5q0 4 2.5 4.5t4.5 1.5h8zM50 595q0 -53 -4 -106t-4 -106q0 -27 1 -42.5t1 -31.5q27 0 50.5 4.5t49.5 15.5q4 6 9 18.5t9.5 28t7 30.5t2.5 26q2 17 3.5 34t1.5 34
q0 18 -1.5 34t-7 30t-17.5 26.5t-33 21.5q-7 0 -14 1t-15 1q-10 0 -20 -0.5t-19 -0.5v-18z" />
    <glyph glyph-name="O" unicode="O" 
d="M29 493q3 19 10 43t18.5 45.5t28 36t38.5 14.5q18 0 30.5 -10.5t21.5 -26t15 -33.5l11 -33q15 -49 22 -100.5t7 -104.5q0 -45 -4.5 -90.5t-10.5 -87.5q-3 -19 -8.5 -45t-16 -49.5t-27 -40t-42.5 -16.5q-22 0 -37 14t-25.5 34t-16.5 42.5t-10 40.5q-21 94 -21 193
q0 86 17 174zM141 13q30 25 41 61t17 74q7 41 10.5 82.5t3.5 84.5q0 38 -3 76.5t-10 76.5q-3 14 -8.5 39t-15 49.5t-22.5 43.5t-30 21q-20 -3 -33.5 -17.5t-22.5 -34t-14 -40.5t-8 -37q-8 -44 -12.5 -87.5t-4.5 -87.5q0 -95 20 -190q3 -15 7.5 -31.5t11 -32.5t16.5 -29.5
t25 -21.5q5 -2 11 -2.5t8 -0.5q1 0 5 1.5t8 2.5z" />
    <glyph glyph-name="Q" unicode="Q" horiz-adv-x="242" 
d="M42 98q-16 48 -23 99.5t-7 104.5q0 45 4.5 88.5t10.5 84.5q3 19 8.5 45t16 50t27 40.5t42.5 16.5q21 0 36 -14.5t24.5 -35.5t15.5 -44t10 -40q11 -46 17 -94.5t6 -97.5q0 -84 -17 -169q-3 -17 -8.5 -36t-14.5 -36l35 -52q4 -3 4 -5q0 -3 -3 -5t-6 -2q-6 0 -7 4
q-6 6 -14.5 17.5t-19.5 25.5q-11 -17 -26 -28.5t-41 -15.5q-16 2 -27 10.5t-18.5 20.5t-12.5 26.5t-9 28.5zM171 56q-14 21 -25.5 42.5t-16.5 32.5q0 6 7 6q5 0 9 -4q6 -16 15 -30.5t19 -28.5q7 16 11.5 31.5t6.5 27.5q8 42 12 84t4 84q0 21 -1.5 47t-4.5 52.5t-7 51.5
t-9 44l-9 31.5t-11.5 34.5t-16 31t-23.5 21q-2 0 -5 0.5t-6 0.5q-9 -2 -9 -1.5t-10 -2.5q-13 -12 -23.5 -29t-18 -35.5t-12 -37.5t-4.5 -35q-7 -39 -12 -80.5t-5 -83.5q0 -45 5.5 -81.5t10.5 -73.5q2 -16 8 -39t15 -45t21.5 -39.5t27.5 -22.5q19 3 32.5 16t24.5 31z" />
    <glyph glyph-name="S" unicode="S" horiz-adv-x="214" 
d="M22 138q0 6 8 6q4 0 7 -5q0 -9 -0.5 -18t-0.5 -20q0 -20 4 -38.5t18 -32.5q19 -22 42 -22q17 0 32.5 7.5t23.5 23.5q13 23 16.5 50.5t3.5 54.5q0 17 -0.5 33.5t-0.5 32.5q0 35 -13 60t-32.5 46.5t-42.5 41.5t-42 45q-14 17 -17.5 39t-3.5 44q0 18 1.5 38t3.5 37q0 3 -1 5
t-1 4q0 4 2 6q8 29 29 40.5t49 11.5q16 0 29 -2t22 -13q17 -20 21.5 -47t4.5 -55q0 -14 -0.5 -29.5t-0.5 -28.5q-1 -4 -8 -4q-2 0 -5 1t-3 4v37q0 16 -1 35t-4 36t-9.5 31t-17.5 21l-28 2q-16 0 -23 -1.5t-21 -11.5q-6 -8 -10 -14t-9 -14q0 -20 -2.5 -44.5t-2.5 -47.5
q0 -15 2 -29t8 -27q10 -20 26.5 -36t34.5 -33t35.5 -36.5t29.5 -45.5q10 -23 13.5 -46.5t3.5 -46.5q0 -19 -1 -37t-1 -38t-5 -40t-16 -35.5t-27.5 -25.5t-38.5 -10q-32 0 -55 23q-10 9 -15 22.5t-7.5 29t-3 31t-0.5 28.5v7z" />
    <glyph glyph-name="T" unicode="T" horiz-adv-x="239" 
d="M116 214l-12 216q-1 14 -1.5 27t-0.5 27q0 33 1.5 65.5t1.5 66.5q-27 0 -51.5 0.5t-42.5 0.5q-6 0 -6 4q0 5 6 7q21 0 49.5 -1t59 -1.5t59.5 -1.5t49 -1q5 -1 5.5 -2t0.5 -3t-0.5 -4t-5.5 -2q-20 0 -48.5 1.5t-58.5 1.5q0 -40 -2 -77t-2 -76q0 -25 1.5 -57t3.5 -65.5
t4 -66t4 -59.5q0 -28 -0.5 -45.5t-0.5 -33.5q0 -34 0.5 -68t0.5 -65q-1 -5 -8 -5t-8 4q0 24 -0.5 40.5t-1 27t-0.5 16.5v10v19.5t1 19.5z" />
    <glyph glyph-name="U" unicode="U" horiz-adv-x="247" 
d="M46 222q0 -22 -0.5 -45.5t-0.5 -46.5q0 -32 8 -64t31 -48q8 -5 16 -6t16 -1q28 0 45.5 6t26.5 18t12 30t3 41q0 27 0.5 54t0.5 55q0 99 -2 203.5t-4 202.5q0 5 8 5q5 0 7 -4q3 -69 5 -140t2 -140q0 -29 0.5 -62t0.5 -62t-0.5 -57t-0.5 -57q0 -26 -4.5 -51t-21.5 -36
q-13 -8 -35.5 -14.5t-45.5 -6.5q-14 0 -25 2.5t-19 9.5q-14 13 -19 23t-11 27q-6 18 -8 39t-2 42q0 20 0.5 39t0.5 37q0 82 -2 156t-2 141v113q0 8 7 8q6 0 8 -7v-218q0 -38 2.5 -76t2.5 -76v-34z" />
    <glyph glyph-name="V" unicode="V" horiz-adv-x="265" 
d="M245 619q1 3 8 3q6 0 7 -4q-11 -88 -27.5 -173t-36.5 -171q-16 -70 -31 -139t-41 -137q-1 -4 -7 -4q-7 0 -8 3q-21 63 -30.5 130t-17.5 131q-13 93 -26 183.5t-30 181.5q0 6 8 6q4 0 6 -4q15 -74 26 -150.5t21 -154t21.5 -154t28.5 -149.5q20 61 35.5 128t29.5 130
q20 86 36.5 171t27.5 173z" />
    <glyph glyph-name="W" unicode="W" horiz-adv-x="448" 
d="M221 582q-10 -60 -22 -119.5t-21 -119.5q-12 -84 -24.5 -172.5t-33.5 -170.5q-1 -4 -8 -4q-5 0 -8 3q-14 41 -21.5 84.5t-13.5 87.5t-11.5 87.5t-13.5 85.5q-8 38 -13 76t-5 76q-10 30 -13 63.5t-8 65.5q0 5 8 5q6 0 8 -4q24 -144 43 -291t48 -290q19 96 33.5 194.5
t30.5 195.5q8 48 18.5 95.5t18.5 96.5q1 3 8 3q5 0 8 -4q8 -24 13 -51t9 -55.5t7 -56.5t7 -53q13 -90 26.5 -184t28.5 -184q21 79 36.5 164t29.5 166q11 65 21 128.5t20 128.5q4 4 8 4q6 0 8 -5q-12 -79 -24.5 -157.5t-26.5 -157.5q-14 -76 -29.5 -157t-35.5 -156
q-1 -4 -8 -4t-8 3q-14 70 -25 144t-21.5 148t-20.5 147.5t-23 143.5z" />
    <glyph glyph-name="X" unicode="X" horiz-adv-x="202" 
d="M89 308q-15 53 -30.5 105.5t-28.5 105.5q-6 25 -13 53t-12 52q0 3 3 4.5t5 1.5q6 0 8 -5q6 -26 12.5 -54t15.5 -62.5t21 -76t27 -94.5q7 26 13.5 52t14.5 52q11 44 26.5 92.5t29.5 91.5q1 3 8 3t8 -4q-14 -41 -26 -87t-25 -86q-11 -36 -21 -72.5t-19 -72.5
q6 -22 11.5 -46t13.5 -56.5t21 -76.5t33 -105q2 -5 4.5 -10t2.5 -10q-1 -5 -8 -5q-8 0 -8 6q-12 28 -21 57.5t-17.5 62.5t-18 70.5t-21.5 82.5q-15 -59 -25 -101.5t-18.5 -74t-15.5 -55t-15 -45.5q-1 -5 -8 -5q-2 0 -5 1t-3 5q18 48 30 98t24 101z" />
    <glyph glyph-name="Y" unicode="Y" horiz-adv-x="189" 
d="M167 620v2q0 1 1 2q0 5 8 5q5 0 8 -5q0 -11 -5.5 -24t-9.5 -24q-9 -37 -20 -72.5t-21 -72.5q-2 -6 -5 -18t-6.5 -24.5t-8 -24.5t-8.5 -19q0 -49 -1 -98t-1 -99q0 -35 1 -73.5t3 -72.5q-1 -5 -8 -5t-8 4q-2 33 -3 71t-1 72q0 51 1 101.5t1 101.5q-7 14 -12 31t-7 31
q-8 30 -20 61t-19 60q-3 12 -5.5 18t-4.5 11t-3.5 11t-3.5 17q-1 6 -2 11.5t-1 10.5q-1 2 -1 6.5v6.5q0 6 8 6q4 0 7 -5q0 -25 8.5 -59t20.5 -70t24.5 -70t19.5 -59q13 44 27.5 89.5t25.5 90.5q2 9 3 15t2.5 11.5t3.5 12t5 16.5z" />
    <glyph glyph-name="Z" unicode="Z" horiz-adv-x="200" 
d="M10 6q11 48 21.5 97.5t24.5 97.5q8 29 19 57.5t19 57.5q17 60 30 118t33 115q4 15 12 31t10 33q-54 -3 -85 -3q-34 0 -51.5 1.5t-31.5 3.5q-3 0 -4.5 2.5t-1.5 4.5q0 3 6 5q19 -1 38 -1.5t37 -0.5q26 0 50 0.5t50 0.5q6 0 9 -5q0 -17 -16 -58.5t-39 -127.5
q-8 -30 -14.5 -60t-14.5 -60q-8 -29 -19.5 -57.5t-19.5 -57.5q-13 -47 -23.5 -95t-21.5 -94q16 -1 31.5 -2t32.5 -1q22 0 44 1t44 3q3 -1 6 -3t3 -4q0 -3 -6 -4q-22 -2 -44 -3t-44 -1q-20 0 -38.5 1t-38.5 3q-2 1 -4.5 1.5t-2.5 3.5z" />
    <glyph glyph-name="space" unicode=" " horiz-adv-x="150" 
 />
    <glyph glyph-name="underscore" unicode="_" horiz-adv-x="160" 
d="M10 14q9 0 15 0.5t15.5 0.5h25h43.5q17 0 22 1t19 1q4 -4 4 -8q0 -8 -5 -8h-41t-19.5 -0.5t-14.5 -1t-25 -0.5h-12.5t-8 0.5t-8 0.5h-11.5q-3 0 -3 8q0 5 4 6z" />
    <glyph glyph-name="question" unicode="?" horiz-adv-x="201" 
d="M90 9q0 11 10 11q5 0 8 -3.5t3 -7.5t-3 -7.5t-7 -3.5q-5 0 -8 3.5t-3 7.5zM43 92q-12 15 -16.5 38t-4.5 48q0 17 1.5 39t4.5 35q4 21 14 36.5t24 28.5t29.5 25t30.5 25q10 8 19 20t12 26q0 20 2.5 41.5t2.5 45.5q0 26 -3.5 52t-12.5 46q-6 11 -19.5 16t-26.5 5
q-33 0 -49 -25q-7 -11 -9 -23.5t-2 -25.5q0 -11 1 -22t1 -22q-1 -4 -8 -4q-6 0 -7 3q-3 22 -3 43q0 14 2.5 27t8.5 26q9 17 26 25t37 8t37 -7.5t27 -21.5q8 -13 11 -43.5t3 -62.5q0 -17 -0.5 -35.5t-2.5 -26.5q0 -24 -11.5 -42.5t-28 -33.5t-35 -29t-33.5 -29
q-9 -9 -14.5 -23.5t-8.5 -30t-4 -32t-1 -29.5q0 -50 14 -75t49 -33q6 1 15.5 2.5t14.5 3.5q24 19 29 47.5t5 61.5q0 20 -1.5 43.5t-4.5 38.5q0 3 3 4.5t5 1.5q6 0 8 -5q2 -13 3.5 -25.5t1.5 -26.5q0 -12 -1 -29.5t-2 -29.5q-1 -18 -4.5 -37t-14.5 -33q-10 -14 -24 -20.5
t-29 -6.5q-36 0 -61 27z" />
    <glyph glyph-name="comma" unicode="," horiz-adv-x="92" 
d="M78 162q-4 -10 -8 -26.5t-6 -31.5q-9 -40 -16 -69.5t-21 -62.5q-1 -1 -2.5 -5.5t-3.5 -5.5q-7 0 -7 6q0 13 7 35.5t12 39.5q11 38 15 68t13 53q3 7 10 7q4 0 5.5 -3t1.5 -5z" />
    <glyph glyph-name="period" unicode="." horiz-adv-x="73" 
d="M26 8q0 11 10 11q5 0 8 -3.5t3 -7.5t-3 -7.5t-7 -3.5q-5 0 -8 3.5t-3 7.5z" />
    <glyph glyph-name="quotedblleft" unicode="&#x201c;" horiz-adv-x="146" 
d="M14 425q9 44 22 96t13 99q0 5 8 5q6 0 8 -4q0 -49 -12.5 -99t-22.5 -98q-1 -4 -8 -4q-2 0 -5 1t-3 4zM71 425q11 29 16.5 59.5t12.5 60.5q5 20 10.5 39t5.5 40q0 2 3 4t5 2q5 0 8 -5q0 -21 -5 -40.5t-10 -40.5q-7 -31 -12.5 -61.5t-17.5 -59.5q-3 -3 -9 -3q-7 0 -7 5z
" />
    <glyph glyph-name="quotedblbase" unicode="&#x201e;" horiz-adv-x="134" 
d="M14 -35q0 21 5 40.5t10 40.5q6 30 12 61t18 60q3 3 9 3t6 -5q-5 -14 -7.5 -24t-4 -19t-3 -19.5t-4.5 -25.5q-2 -10 -6.5 -24.5t-8.5 -30.5t-7 -31t-3 -25q0 -3 -3 -4.5t-5 -1.5q-6 0 -8 5zM67 -34q0 14 3 28.5t5 28.5q5 23 9 38t7 32q2 13 8 35.5t6 36.5q1 4 7 4
q8 0 8 -5q0 -6 -1 -16t-2.5 -20.5t-4 -20t-5.5 -15.5q-2 -19 -8 -35t-8 -35q-2 -14 -5.5 -27.5t-3.5 -27.5q0 -6 -8 -6q-5 0 -7 5z" />
    <glyph glyph-name="quotedblright" unicode="&#x201d;" horiz-adv-x="138" 
d="M30 431q-1 -5 -8 -5q-8 0 -8 6q0 10 2.5 24t6.5 28l8 28t6 24q5 23 4 45t8 45q2 4 7 4q6 0 8 -5q-8 -23 -6.5 -45t-4.5 -45q-2 -10 -6 -23.5t-7.5 -28t-6.5 -28.5t-3 -24zM84 499q2 18 7.5 34.5t7.5 35.5q2 14 5.5 27.5t3.5 27.5q0 2 3 4t5 2q5 0 8 -5q0 -14 -3.5 -28.5
t-5.5 -28.5q-5 -23 -8.5 -38t-7.5 -32q-2 -13 -7.5 -35.5t-5.5 -36.5q-1 -4 -8 -4q-2 0 -5 1t-3 4q0 6 1 15.5t3 20t4.5 20.5t5.5 16z" />
    <glyph glyph-name="asterisk" unicode="*" horiz-adv-x="204" 
d="M95 534q-21 -13 -39.5 -23.5t-23.5 -10.5q-7 0 -7 6q0 3 3 6q15 8 30.5 16.5t29.5 16.5l-57 31q-3 3 -3 7q0 3 3 6t5 3q3 0 11 -5t17.5 -11.5t18.5 -12.5t13 -9q0 18 -0.5 37t-0.5 33q2 6 7 6q7 0 7 -5v-12t0.5 -7.5t0.5 -8v-12.5q0 -9 -0.5 -16t-0.5 -12l57 33
q10 -2 10 -9q0 -3 -3 -6q-14 -6 -30 -14t-31 -16q15 -9 33 -19t28 -17q2 -2 2 -6t-2 -5t-4 -1q-7 0 -20 9.5t-18 11.5l-22 13v-63q-2 -7 -8 -7t-7.5 2t-1.5 4q0 7 0.5 10t1 7.5t1 13.5t0.5 29v7z" />
    <glyph glyph-name="ampersand" unicode="&#x26;" horiz-adv-x="325" 
d="M234 160l26 76t33 75q2 4 9 4q5 0 5 -6q0 -4 -11.5 -28t-22.5 -52q-8 -21 -16 -43.5t-13 -45.5q8 -26 24 -58.5t32 -58.5q3 -6 6.5 -10.5t3.5 -7.5q0 -7 -5 -7q-2 0 -7 5q-9 17 -18.5 32t-17.5 32q-7 14 -13 27.5t-12 27.5q-13 -35 -31.5 -68t-49.5 -50q-10 -7 -27 -7
q-8 0 -18 2q-47 8 -68 45t-21 84q0 78 19 133t70 100q-24 37 -44 75.5t-22 73.5q0 4 -0.5 8t-0.5 9q0 34 14 61t50 36q9 2 16.5 2.5t14.5 0.5q19 0 32.5 -8t22 -21.5t12 -31t3.5 -35.5q0 -36 -11 -69q-11 -30 -30 -54t-39 -47q11 -20 23.5 -39t22.5 -40zM132 10
q26 7 40.5 24t26.5 40q8 17 15 34.5t14 34.5q-16 35 -33.5 69t-34.5 68q-8 16 -19.5 33.5t-23.5 36.5q-11 -13 -22 -26.5t-20 -27.5q-20 -32 -28.5 -69.5t-8.5 -75.5q0 -6 0.5 -12.5t0.5 -12.5q0 -22 4.5 -42t15.5 -36t28.5 -26.5t44.5 -11.5zM165 426q11 17 20 44.5t9 56.5
q0 26 -9.5 50t-26.5 35q-14 3 -26 3q-34 0 -54 -24.5t-20 -59.5q0 -14 3 -28.5t8 -28.5q11 -27 24.5 -51.5t27.5 -49.5q8 13 21.5 27t22.5 26z" />
    <glyph glyph-name="slash" unicode="/" horiz-adv-x="210" 
d="M144 431q-9 -30 -15 -60t-14 -60q-22 -76 -48 -150.5t-38 -152.5q-2 -4 -2.5 -7t-8.5 -3q-2 1 -4 1.5t-2 4.5q10 47 22 96t26 97q8 29 19 57.5t19 57.5q17 62 29 119.5t32 113.5q4 11 8.5 23.5t9 23.5t8 19.5t4.5 10.5q8 0 9 -5q0 -17 -8 -37t-14 -37z" />
    <glyph glyph-name="backslash" unicode="\" horiz-adv-x="209" 
d="M60 442q-14 48 -26 92.5t-22 91.5q0 4 2 4.5t4 1.5q8 0 8.5 -3t2.5 -7q6 -39 9.5 -57.5t8 -33t10.5 -32.5t17 -56l73 -254q3 -9 11 -36t17 -58.5t15.5 -58.5t6.5 -36q-1 -5 -9 -5q-3 3 -7 14.5t-8.5 25.5t-8.5 28t-6 22q-17 57 -31 114t-31 119z" />
    <glyph glyph-name="hyphen" unicode="-" horiz-adv-x="139" 
d="M56 305h-13h-9.5t-9.5 0.5t-14 0.5q-4 1 -4 6q0 8 3 8h11.5t8 0.5t8 0.5h12.5q18 0 22 -0.5t7 -1t12 -0.5h38q5 0 5 -8q0 -4 -4 -8q-14 0 -19 1t-22 1h-32z" />
    <glyph glyph-name="plus" unicode="+" horiz-adv-x="166" 
d="M73 306q-14 1 -28 1.5t-27 0.5q-6 0 -6 6q0 5 6 7q5 0 20.5 -1t34.5 -1q0 16 1 32t1 30q0 2 3 4t5 2q5 0 8 -5q0 -14 -0.5 -30t-0.5 -33h6h27.5t22.5 1q4 0 6 -2t2 -4q0 -1 -2 -3.5t-4 -2.5q-14 -2 -24 -2h-25h-9v-5v-27.5t-1 -32.5q-2 -5 -7 -5q-2 0 -5 1t-3 3
q0 15 -0.5 31t-0.5 29v6z" />
    <glyph glyph-name="parenleft" unicode="(" horiz-adv-x="135" 
d="M105 0q-7 7 -13 17.5t-11 18.5q-11 18 -23 36.5t-20 38.5q-5 9 -5 19.5t-2 19.5q-8 40 -13.5 79t-5.5 79q0 44 7 87t22 86q13 35 31 72.5t35 70.5q1 4 8 4q8 0 8 -6q-44 -84 -69 -160.5t-25 -160.5q0 -72 13.5 -138.5t53.5 -123.5q4 -6 11.5 -17.5t12.5 -16.5q1 -1 1 -4
q0 -5 -8 -5q-2 0 -4.5 1.5t-3.5 2.5z" />
    <glyph glyph-name="parenright" unicode=")" horiz-adv-x="113" 
d="M12 0q35 70 53.5 146.5t18.5 154.5q0 33 -3 65.5t-11 65.5q-3 11 -8.5 36.5t-13 54t-17 53.5t-19.5 36q0 6 6 6t9 -3q10 -9 18.5 -31.5t16 -48.5t13.5 -51t9 -41q1 -3 1 -5.5t2 -4.5q8 -32 11 -65.5t3 -66.5q0 -79 -19.5 -155.5t-54.5 -148.5q-3 -3 -9 -3t-6 6z" />
    <glyph glyph-name="zero" unicode="0" horiz-adv-x="242" 
d="M41 533q5 15 11 32t15 31t22 23t31 9q25 0 41.5 -14.5t27 -35.5t16 -44.5t8.5 -42.5q7 -43 12 -86.5t5 -87.5q0 -97 -21 -190q-4 -17 -10 -40t-15.5 -43.5t-24.5 -35t-37 -14.5q-26 0 -43 17t-27.5 41t-15.5 50.5t-8 44.5q-7 42 -11.5 86t-4.5 89q0 52 7 107.5t22 103.5z
M118 5q20 3 33.5 18t22.5 35t14 41.5t8 37.5q8 43 12 86t4 87q0 48 -3 94.5t-13 93.5q-3 15 -7.5 31.5t-11.5 32.5t-17 29.5t-25 21.5q-4 2 -10 2h-8q-1 0 -5 -1t-7 -2q-30 -26 -42 -61.5t-19 -71.5q-8 -42 -11.5 -83.5t-3.5 -83.5q0 -38 1.5 -80.5t8.5 -80.5q3 -14 8 -37.5
t14 -47t23 -41.5t34 -20z" />
    <glyph glyph-name="one" unicode="1" horiz-adv-x="125" 
d="M91 1q-2 -5 -8 -5q-2 0 -5 1.5t-3 4.5q4 56 4.5 117t0.5 117v49.5t0.5 56t0.5 67.5v85v47.5t-1 48.5q-14 -32 -26 -66.5t-23 -68.5q-1 -3 -3 -8t-8 -5q-2 0 -5 1t-3 4q0 7 8.5 33t19.5 55t21.5 55t15.5 35q4 4 9 4q7 0 8 -4q2 -38 2 -76.5t1 -76.5q0 -11 1 -21.5t1 -21.5
q0 -43 -2 -90t-2 -117q0 -53 -0.5 -111t-3.5 -110z" />
    <glyph glyph-name="two" unicode="2" horiz-adv-x="191" 
d="M38 115q12 40 31.5 81.5t37.5 80.5t31 74.5t13 63.5q0 17 0.5 39t0.5 40q0 19 -1.5 41t-8 40t-19 30t-34.5 12q-21 0 -33 -9.5t-18 -24.5t-7.5 -33t-1.5 -34q0 -22 -1 -30t-6 -8q-8 0 -8 6q0 11 -1 21.5t-1 20.5q0 8 1 15t4 14q0 29 19.5 51t54.5 22q21 0 38.5 -11.5
t25.5 -29.5q8 -22 11 -45t3 -46q0 -20 -1 -42.5t-1 -39.5q0 -26 -9 -54.5t-22 -56t-26 -52.5t-21 -43q-21 -48 -35.5 -96t-25.5 -99q24 0 48.5 1t49.5 1q9 0 17.5 -1t17.5 -2q3 -1 5 -3.5t2 -3.5q0 -2 -9 -6q-18 3 -39 3q-26 0 -51.5 -2t-50.5 -2q-2 1 -4 1.5t-2 4.5
q0 3 2.5 19.5t6.5 35.5t8.5 35.5t8.5 20.5z" />
    <glyph glyph-name="seven" unicode="7" horiz-adv-x="195" 
d="M60 188q8 29 14.5 59t14.5 60q21 74 46.5 150.5t37.5 152.5q-32 3 -64 3q-22 0 -44 -0.5t-44 -2.5q-4 1 -6.5 3.5t-2.5 4.5t5 4q23 2 45 2.5t44 0.5h38t39 -2q2 -1 4.5 -2t2.5 -4q-11 -48 -21.5 -98t-24.5 -98q-8 -29 -19 -57.5t-19 -57.5t-15 -59t-15 -61
q-8 -27 -17.5 -57t-18.5 -59q-2 -8 -5.5 -19.5l-7 -23t-7 -20.5t-6.5 -11q-7 0 -9 5q0 17 8.5 37t14.5 37z" />
    <glyph glyph-name="A" unicode="A" horiz-adv-x="239" 
d="M26 37q-2 -10 -4 -20.5t-6 -19.5q-3 -3 -6 -3q-5 0 -5 5q3 11 3.5 17t2.5 16q20 94 32.5 163.5t21 123t15 94.5t14.5 80q7 32 10.5 66t16.5 63q2 3 6.5 6t6.5 3q3 0 5.5 -6t4 -14t2 -16t1.5 -12l21 -165q6 -50 12.5 -99.5t13.5 -99.5q3 -20 8.5 -43.5t8.5 -44.5
q5 -34 13 -66t10 -65q0 -4 -6 -4q-3 0 -6 3q-6 32 -10.5 62t-11.5 61q-1 4 -4.5 23t-7 41.5t-7.5 42.5l-5 25q-17 0 -29.5 -0.5t-24.5 -1.5t-25 -1.5t-30 -0.5zM68 264q27 0 52.5 1.5t53.5 1.5q0 20 -2.5 28.5t-2.5 28.5q-3 16 -6 34t-6.5 46.5t-9 71.5t-13.5 109
q-1 6 -2 14t-1 16q-6 -14 -11 -41.5t-10 -51.5q-12 -60 -19.5 -121t-19.5 -122z" />
    <glyph glyph-name="three" unicode="3" horiz-adv-x="205" 
d="M35 178q0 -19 -2 -39.5t-2 -40.5q0 -15 2 -28.5t8 -27.5q8 -20 24 -26.5t35 -6.5q16 0 30.5 4.5t24.5 21.5q5 10 7 22.5t2 22.5q0 21 1 27t3 13q0 40 -1 66.5t-1 55.5q0 24 -1.5 43.5t-9.5 33.5t-25 21.5t-47 7.5q-11 0 -11 7q0 2 2.5 5t7.5 3h12t12 2q17 5 25 14
q20 18 25 41.5t7 49.5q0 4 -1 16.5t-1 20.5q0 5 0.5 9.5t2.5 8.5q-1 43 -15.5 65.5t-51.5 22.5q-13 0 -29 -3.5t-24 -14.5q-9 -11 -12.5 -24t-3.5 -27q0 -12 1.5 -23.5t1.5 -22.5q-1 -4 -8 -4t-8 3l-2 24t-1 25q0 15 3.5 28t12.5 25q11 14 31 21t37 7q35 0 58 -22t23 -63
q0 -5 1 -8t1 -8q0 -2 -0.5 -9t-0.5 -17q0 -21 -1 -42t-6 -40t-17 -34.5t-33 -25.5q21 -3 33 -13t18.5 -24t8.5 -31.5t2 -35.5q0 -69 -1 -109.5t-2.5 -63t-3.5 -32t-6 -16.5q-11 -20 -28.5 -29.5t-37.5 -9.5t-39.5 9t-33.5 26q-11 12 -14 28.5t-3 33.5q0 23 3 46t3 40
q0 6 7 6q6 0 8 -5z" />
    <glyph glyph-name="four" unicode="4" horiz-adv-x="206" 
d="M140 247q-17 0 -30.5 -0.5t-28 -0.5h-31h-38.5q-2 1 -4.5 1.5t-2.5 4.5q0 12 5.5 30.5t13 39t15.5 40t12 33.5q12 39 19.5 64.5t15.5 48.5t20 49.5t33 67.5q4 6 9 6q7 0 8 -5q5 -43 6 -85.5t1 -85.5q0 -38 -0.5 -64t-1.5 -47t-2.5 -40.5t-2.5 -42.5q5 0 11.5 0.5
t13.5 0.5q7 -1 7 -6q0 -2 -1.5 -4.5t-5.5 -2.5q-7 0 -13 -1t-12 -1q-1 -40 -2.5 -65t-2.5 -40t-1.5 -23t-0.5 -15q0 -25 1.5 -54t2.5 -46q-2 -5 -8 -5t-8 4q-1 21 -1.5 31t-0.5 16q0 8 0.5 17t0.5 37q0 14 0.5 27.5t0.5 27.5zM140 261q1 24 2 43.5t2 41t1.5 48t0.5 64.5
q0 35 -0.5 69.5t-2.5 69.5q-19 -39 -31.5 -66.5t-22 -54t-19 -56.5t-22.5 -73q-1 -4 -2.5 -7t-2.5 -7q-6 -20 -9.5 -37t-11.5 -36h34h28.5t27 0.5t28.5 0.5z" />
    <glyph glyph-name="five" unicode="5" horiz-adv-x="222" 
d="M37 214q0 -11 0.5 -17.5t1 -13.5t0.5 -17v-27q0 -8 -0.5 -17t-0.5 -19q0 -42 18.5 -66.5t44.5 -24.5q27 0 38.5 10t22.5 33q14 29 18.5 68t4.5 81v19t0.5 8t0.5 6.5v14.5q0 24 -2 51t-10.5 50t-24 38t-42.5 15q-13 0 -23 -5t-18.5 -10.5t-15 -10.5t-12.5 -5t-7 3
q-2 24 -3.5 52.5t-2 57.5t-0.5 56.5v50.5v13t-1 13q0 5 4 5.5t6 0.5q14 -3 28.5 -3.5t29.5 -0.5h25.5t19 0.5t21 0.5h31.5q11 -2 11 -7q0 -2 -3 -5t-8 -3h-46.5t-26 -0.5t-15.5 -0.5h-15h-24.5t-20.5 2q1 -5 1 -10v-9q0 -48 0.5 -98.5t2.5 -98.5q19 13 30 19.5t30 6.5
q25 0 42.5 -12.5t29 -31.5t16.5 -41.5t5 -42.5v-4.5t0.5 -8t0.5 -26.5v-60q0 -34 -3 -72t-18 -68q-14 -27 -28.5 -41.5t-46.5 -14.5q-29 0 -43 13t-27 39q-6 11 -8 23.5t-2 25.5q0 8 0.5 16.5t0.5 16.5q0 15 -0.5 24.5t-1 17.5t-0.5 17v23q0 5 7 5q6 0 8 -4z" />
    <glyph glyph-name="six" unicode="6" horiz-adv-x="220" 
d="M33 180q0 59 -1.5 117t-1.5 117q0 18 -2 44.5t-2 48.5q0 21 3 40.5t11 36.5q10 22 31 34t47 12q17 0 35 -6t29 -20q6 -7 9 -20t4.5 -27.5t2 -29.5t0.5 -26q0 -4 -1 -10t-7 -6q-7 0 -7 5q0 8 -0.5 21.5t-1 28t-3 28.5t-7.5 22q-8 14 -22.5 20t-28.5 6q-21 0 -38 -8
t-27 -26q-8 -16 -10 -37.5t-2 -44.5q0 -11 0.5 -20t0.5 -25t0.5 -43.5t0.5 -75.5q12 21 33.5 35t46.5 14q11 0 22 -3t21 -11q18 -14 22 -37.5t4 -43.5v-19t0.5 -25t0.5 -25v-19q0 -14 -0.5 -28.5t-0.5 -28.5q0 -23 -2 -50t-9.5 -49.5t-23 -37.5t-42.5 -15q-13 0 -26 3
q-14 3 -24 14t-17 25.5t-10.5 29.5t-4.5 27q-2 14 -2 27v26v35zM178 289q-1 14 -3 28.5t-7.5 26.5t-16.5 19.5t-30 7.5q-16 0 -29 -7t-22.5 -18t-15.5 -24t-9 -24v-40.5t0.5 -46t1.5 -46t2 -39.5t2.5 -35t6 -34t14.5 -29t27 -21q2 0 5.5 -0.5t5.5 -0.5q24 0 38 12t20.5 31
t8 41.5t1.5 42.5v156z" />
    <glyph glyph-name="eight" unicode="8" horiz-adv-x="215" 
d="M40 287q5 10 23.5 25t38.5 32q-7 7 -13.5 11.5t-10.5 9.5q-24 21 -39.5 46.5t-15.5 60.5v13.5v22t-0.5 22.5t-0.5 16q0 42 27 63t60 21q30 0 54.5 -18.5t24.5 -55.5q3 -5 4 -11.5t1 -11.5q0 -9 -0.5 -17.5t-1.5 -16.5q0 -31 -6 -66.5t-27 -59.5q-7 -8 -15.5 -16
t-17.5 -16q20 -17 39.5 -38.5t21.5 -39.5q2 -10 4.5 -38t2.5 -55q0 -41 -5 -79t-16 -58t-27.5 -29.5t-34.5 -9.5q-26 0 -49.5 18t-31.5 47q-7 24 -7 51q0 26 1 52.5t2 50.5q0 19 2 40.5t13 33.5zM113 334q-17 -14 -35 -28t-29 -34q-5 -8 -6 -15t-1 -14q0 -8 -0.5 -28.5
t-0.5 -42.5t-0.5 -41t-0.5 -23v-17t2 -19q5 -29 24.5 -45.5t42.5 -16.5q13 0 25.5 4t21.5 21q5 10 9 26t6.5 36t3.5 42t1 43q0 24 -2 48.5t-4 31.5q-5 19 -21.5 37t-35.5 35zM37 474q0 -30 16 -58t39 -47q4 -3 8.5 -7t11.5 -9q14 11 26 22.5t17 19.5q17 35 20 70t3 82
q-4 8 -5.5 16t-4 16t-7.5 15.5t-17 14.5q-20 10 -35 10q-29 0 -50.5 -20.5t-21.5 -51.5v-73z" />
    <glyph glyph-name="nine" unicode="9" horiz-adv-x="228" 
d="M20 143q0 3 3 4.5t5 1.5q6 0 8 -5v-30q0 -19 2 -38.5t12 -36.5q10 -18 27 -25t34 -7q15 0 29 7t25 22q9 13 13 28t5.5 31t1 32.5t0.5 31.5q0 9 0.5 18.5t0.5 18.5q0 28 -1.5 62t-3.5 62q-8 -23 -28.5 -34t-43.5 -11q-16 0 -31.5 5t-26.5 16q-18 17 -23.5 48t-5.5 64
q0 17 1.5 34t1.5 36q0 6 -0.5 13t-0.5 15q0 9 2.5 17t2.5 16q0 46 22 68.5t51 22.5q22 0 43 -13.5t35 -40.5q10 -17 13 -38t3 -42q0 -17 -1 -34t-1 -32q0 -50 4 -98t4 -97v-69q0 -17 -0.5 -37t-3 -39t-7 -36t-11.5 -27q-12 -17 -31.5 -26.5t-40.5 -9.5q-24 0 -44 11.5
t-30 34.5q-9 21 -11.5 41t-2.5 41v24zM152 301q12 13 15.5 24.5t10.5 25.5v58.5t0.5 36t0.5 21v13.5q0 36 -7 70.5t-36 60.5q-9 3 -17.5 5t-16.5 2t-18 -2t-21 -13q-14 -21 -16.5 -35t-2.5 -32q0 -15 -1 -30t-2 -29q0 -14 -1 -31t-1 -36q0 -22 2 -43.5t9 -39t20 -28.5
t35 -11q20 0 47 13z" />
    <glyph glyph-name="colon" unicode=":" horiz-adv-x="74" 
d="M26 6q0 6 4 8.5t7 2.5q11 0 11 -10q0 -11 -11 -11q-3 0 -7 3t-4 7zM26 249q0 4 3.5 8t6.5 4q6 0 8.5 -4t2.5 -8q0 -11 -10 -11q-4 0 -7.5 3.5t-3.5 7.5z" />
    <glyph glyph-name="dollar" unicode="$" horiz-adv-x="214" 
d="M107 9q16 0 24 1.5t19 11.5q11 14 19 31q0 10 1 25t2 31.5t2 32.5t1 27q0 15 -2 29t-8 27q-10 22 -26.5 39.5t-35 34t-35.5 35.5t-29 45q-11 23 -14 45t-3 46q0 9 0.5 14t0.5 9t0.5 9t0.5 15q0 19 4.5 37.5t14.5 34t25 25.5t35 12q0 5 -0.5 13.5t-0.5 19.5q0 8 0.5 15.5
t3.5 12.5q3 3 9 3t6 -7q-2 -5 -2.5 -11.5t-0.5 -14.5q0 -9 0.5 -17t0.5 -13q26 -3 47 -22q10 -9 15 -23t7.5 -29.5t3 -31t0.5 -28.5v-7q0 -2 -3 -3.5t-5 -1.5q-6 0 -8 4q0 10 0.5 19t0.5 19q0 20 -3.5 39t-17.5 33q-20 21 -43 21q-17 0 -32 -7.5t-23 -22.5
q-13 -23 -17 -41.5t-4 -45.5q0 -18 1 -29.5t1 -26.5q0 -35 13.5 -60.5t33 -47.5t42 -42.5t40.5 -45.5q13 -17 17 -37.5t4 -42.5q0 -9 -0.5 -23t-1 -28.5t-1.5 -27.5t-1 -22q0 -2 0.5 -4t0.5 -5t-1 -5q-8 -26 -25.5 -39t-40.5 -15q2 -5 2 -11v-14q0 -11 -0.5 -19t-0.5 -13
q0 -8 -8 -8q-7 0 -7 7q0 5 0.5 14t0.5 19q0 5 -0.5 10t-0.5 10v4q-16 0 -28.5 3.5t-21.5 14.5q-17 20 -21 47t-4 55q0 14 0.5 28t0.5 26q1 5 8 5t7 -6v-37q0 -16 1 -34.5t4.5 -35.5t10 -31t17.5 -21z" />
    <glyph glyph-name="numbersign" unicode="#" horiz-adv-x="337" 
d="M81 186q0 1 0.5 2.5t0.5 3.5q-32 0 -63 3q-7 2 -7 7q0 3 7 7q18 -2 34 -3l32 -2q7 26 12 51t13 51q8 29 17.5 58t19.5 58q-17 -1 -35.5 -1h-38.5q-29 0 -56 7q-5 3 -5 5q0 6 8 6q7 -2 15 -2.5t22 -1t36.5 -0.5h57.5q13 43 27 90t22 92q2 4 2 7t8 3q2 -1 4 -1.5t2 -4.5
q-9 -43 -21.5 -91.5t-25.5 -92.5q11 0 17 0.5l12 1t15 1t27 0.5l10 40t13 43q3 7 8.5 24t11.5 34t11.5 30.5t7.5 15.5q8 0 9 -5q0 -17 -10 -41t-16 -41l-29 -101q15 -1 29.5 -3t33.5 -4q6 -1 6 -4q0 -7 -9 -7q-20 4 -33.5 5.5t-30.5 1.5q-4 -15 -10 -38t-12 -47.5
t-11.5 -47.5t-9.5 -38q-9 -31 -17 -54l97 4q7 0 14 1t14 1q8 -3 8 -7q0 -7 -8 -7q-7 0 -14 -0.5t-14 -0.5q-54 -3 -101 -3q-7 -23 -14 -44t-13.5 -43t-12.5 -46t-11 -53q-2 -4 -2 -7t-8 -3q-2 1 -4.5 1.5t-2.5 4.5l7.5 34.5t4.5 21t5 21t10 34.5l24 79l-43 2l-31 -2
q-8 -31 -15.5 -60.5t-16.5 -58.5q-3 -8 -7.5 -20.5t-9.5 -25t-9 -21.5t-6 -10q-6 0 -7 5q0 17 8 36.5t14 36.5zM166 423q-2 -1 -8 -18t-13 -38t-12.5 -39.5t-6.5 -22.5q-8 -26 -14.5 -51.5t-11.5 -49.5h12t8.5 -0.5t17 -0.5h37.5q16 57 26.5 94.5t17 61.5t11 39.5t7.5 29.5z
" />
    <glyph glyph-name="bar" unicode="|" horiz-adv-x="74" 
d="M45 -71q-1 -4 -8 -4q-8 0 -8 6q1 14 1.5 42t0.5 58v58v42q0 39 -1 77.5t-1 78.5q0 43 -0.5 94t-1 104t-1 104t-0.5 93q0 5 7 5q6 0 8 -4v-93.5t0.5 -104t1.5 -104t2 -93.5t2 -81.5t1 -81.5v-41t-0.5 -57t-1 -57t-1.5 -41z" />
    <glyph glyph-name="percent" unicode="%" horiz-adv-x="375" 
d="M64 27q26 73 51 148t60 146q18 38 39 75t38 76q6 12 15.5 38t20.5 52t22 45.5t19 19.5q7 0 7 -9q-20 -37 -35 -75t-32 -76q-24 -54 -51 -107t-52 -106.5t-47 -109t-37 -113.5l-12 -33q-3 -3 -8 -3q-7 0 -7 7zM107 631q21 -5 34 -19.5t20.5 -35t10.5 -45t3 -50.5
q0 -38 -20.5 -66.5t-54.5 -28.5q-27 0 -42.5 12.5t-23.5 31t-10 40t-2 40.5q0 20 4.5 41.5t15 39t26.5 29t39 11.5zM91 401q38 0 53.5 26.5t15.5 61.5q0 20 -4.5 42.5t-12 42t-18.5 32.5t-23 13q-15 0 -27.5 -11.5t-20.5 -28t-12.5 -35t-4.5 -33.5q0 -14 1 -33t6.5 -36
t16 -29t30.5 -12zM278 -4q-21 0 -36.5 10t-26 26.5t-15.5 38.5t-5 46q0 20 2.5 42t10.5 40t24.5 30t45.5 12q24 0 39 -12t23 -30.5t10.5 -41.5t2.5 -44q0 -16 -4.5 -36.5t-14 -38.5t-23.5 -30t-33 -12zM211 116q0 -16 4 -34.5t12 -35t20.5 -27.5t30.5 -11q13 0 23.5 13
t18.5 32t12.5 41.5t4.5 41.5q0 36 -15.5 63t-51.5 27q-18 0 -29 -10t-17.5 -26t-9 -35.5t-3.5 -38.5z" />
    <glyph glyph-name="perthousand" unicode="&#x2030;" horiz-adv-x="546" 
d="M63 39q23 75 50.5 149t61.5 145q18 38 39 75t38 76q17 38 30 71t33 70q3 3 9 3q7 0 7 -9q-31 -75 -69.5 -151.5t-70.5 -140.5q-35 -69 -59.5 -140.5t-49.5 -143.5l-16 -46q-3 -3 -8 -3q-7 0 -7 7zM58 400q-13 7 -20 21t-10.5 30t-4.5 32.5t-1 28.5q0 25 4.5 47t15 38.5
t26.5 26t39 9.5q6 -1 11 -2q5 -2 9 -3.5t7 -4.5q23 -25 32 -59.5t9 -80.5q0 -38 -20.5 -66.5t-54.5 -28.5q-20 0 -42 12zM91 403q38 0 53.5 26.5t15.5 61.5q0 13 -3 35t-10 43t-18 36.5t-27 15.5q-15 0 -27.5 -9.5t-20.5 -24.5t-12.5 -34.5t-4.5 -39.5q0 -14 1 -33t6.5 -36
t16 -29t30.5 -12zM278 -4q-21 0 -36.5 10t-26 26.5t-15.5 38.5t-5 46q0 23 2.5 49t16.5 46q10 14 27.5 21.5t36.5 7.5q17 0 32 -7t24 -22q12 -21 15.5 -47t3.5 -52q0 -16 -4.5 -36.5t-14 -38.5t-23.5 -30t-33 -12zM211 116q0 -16 4 -34.5t12 -35t20.5 -27.5t30.5 -11
q16 0 27.5 16t18.5 37t10 42.5t3 32.5q0 36 -15.5 63t-51.5 27q-18 0 -29 -10t-17.5 -26t-9 -35.5t-3.5 -38.5zM445 -2q-21 0 -35 15t-21.5 37.5t-10.5 48.5t-3 49q0 38 20.5 66.5t54.5 28.5q10 0 21.5 -1.5t23.5 -8.5t19 -21t10 -30.5t3.5 -33t0.5 -29.5q0 -20 -3.5 -41.5
t-13 -39t-25.5 -29t-41 -11.5zM450 13q15 0 27 11t19.5 27t11.5 34t4 33q0 14 -1 33t-6 36.5t-16 29.5t-30 12t-32.5 -7.5t-21.5 -19.5t-12 -28t-4 -34q0 -17 3 -39t10.5 -41.5t19 -33t28.5 -13.5z" />
    <glyph glyph-name="Oslash" unicode="&#xd8;" 
d="M208 632q3 0 6 -1t3 -6l-24 -74q22 -66 30 -120t8 -106q0 -45 -4.5 -89t-10.5 -86q-3 -19 -8.5 -45t-16 -50t-27 -40.5t-42.5 -16.5t-41.5 18t-25.5 41q-6 -24 -9 -48q-2 -4 -2 -7t-8 -3q-2 1 -4.5 1.5t-2.5 4.5q3 18 7.5 37t9.5 39q-5 12 -8 25t-5 24q-21 93 -21 190
q0 43 4.5 86t12.5 85q3 19 9 43t17 45t27.5 35.5t41.5 14.5q23 0 37 -17.5t23 -37.5zM61 84q7 -21 18 -41t30 -29q5 -2 11 -2.5t8 -0.5q17 0 29.5 18t21 41.5t13.5 46.5t7 34q7 41 10.5 81.5t3.5 82.5q0 38 -3 76t-10 76q-2 9 -5.5 24.5t-8.5 32.5q-13 -47 -21.5 -80
t-14 -56t-9.5 -39.5t-8 -31.5q-18 -60 -38 -117t-34 -116zM54 112q5 23 10.5 44.5t12.5 44.5q8 29 18.5 58t19.5 59q18 62 31 119.5t30 114.5q-9 25 -22 44t-30 21q-20 -3 -33.5 -17t-22.5 -33.5t-14 -40t-8 -36.5q-17 -88 -17 -172q0 -21 1 -49t3.5 -57t7.5 -55.5t13 -44.5
z" />
    <glyph glyph-name="endash" unicode="&#x2013;" horiz-adv-x="203" 
d="M12 321h18t17 -0.5t27 -0.5h48h19h14t15 -0.5t20 -0.5q7 -1 7 -7q0 -2 -1 -5t-4 -3h-17t-11.5 -0.5t-12 -0.5h-19.5q-27 0 -45.5 0.5t-31 1t-22 1t-18.5 0.5t-9 8q0 5 6 7z" />
    <glyph glyph-name="yen" unicode="&#xa5;" horiz-adv-x="215" 
d="M77 128h-20t-12 0.5t-11.5 0.5h-17.5q-2 0 -3 3t-1 5q0 5 6 7q13 0 21 0.5t16 0.5h17.5h26.5v43.5t1 44.5h-5.5t-10 0.5t-22 0.5h-41.5q-5 0 -7 3t-2 5q0 6 6 8h16t15.5 -0.5t20 -0.5h30.5q0 22 -0.5 49t-0.5 50q-7 14 -12 31t-7 31q-8 30 -20 61t-19 60q-3 12 -5.5 18
t-4.5 11t-3.5 11t-3.5 17q-1 6 -2 11.5t-1 10.5q-1 2 -1 6.5v6.5q0 6 8 6q4 0 7 -5q0 -25 8.5 -59t20.5 -70t24.5 -70t19.5 -59q13 44 27.5 89.5t25.5 90.5q2 9 3 15t2.5 11.5t3.5 12t5 16.5l7 20v2q0 1 1 2q0 5 8 5q5 0 8 -5q0 -11 -5.5 -24t-9.5 -24q-9 -37 -20 -72.5
t-21 -72.5q-2 -6 -5 -18t-6.5 -24.5t-8 -24.5t-8.5 -19v-46t0.5 -27t0.5 -15v-9h12h19h14t15 -0.5t20 -0.5q7 -2 7 -7q0 -8 -5 -8h-17.5t-14 -0.5t-18.5 -0.5h-32q-1 -23 -1 -44.5v-42.5h30t20 0.5t15 0.5h16q7 -2 7 -8q0 -2 -2.5 -5t-6.5 -3h-42t-22.5 -0.5t-9.5 -0.5h-5
q0 -32 0.5 -63.5t2.5 -63.5q-1 -5 -8 -5t-8 4q-2 32 -2.5 63.5t-0.5 63.5h-22z" />
    <glyph glyph-name="quotedbl" unicode="&#x22;" horiz-adv-x="149" 
d="M46 624q-1 -11 -1 -22v-20q0 -32 1.5 -54t1.5 -36q0 -3 -3 -4.5t-5 -1.5q-8 0 -8 8q0 19 -3 44.5t-3 50.5q0 21 4 36q1 6 8 6q2 0 5 -1.5t3 -5.5zM107 491q-1 9 -1 18v17q0 17 0.5 34t0.5 34v14t-1 14q0 8 8 8q2 0 5 -1.5t3 -5.5q1 -8 1 -17v-17q0 -17 -0.5 -34t-0.5 -35
v-14t1 -14q-1 -5 -8 -5t-8 4z" />
    <glyph glyph-name="quotesingle" unicode="'" horiz-adv-x="69" 
d="M26 492q1 7 1 14v14q0 18 -0.5 35t-0.5 34v17t1 17q0 4 3 5.5t5 1.5q8 0 8 -8q-1 -7 -1 -14v-14q0 -17 0.5 -34t0.5 -34v-17t-1 -18q-1 -4 -8 -4t-8 5z" />
    <glyph glyph-name="quoteleft" unicode="&#x2018;" horiz-adv-x="88" 
d="M14 423q11 29 16.5 59.5t12.5 60.5q5 20 10.5 39t5.5 40q0 6 7 6q5 0 8 -5q0 -21 -4.5 -40.5t-9.5 -40.5q-6 -31 -12.5 -61.5t-17.5 -59.5q-5 -3 -9 -3q-7 0 -7 5z" />
    <glyph glyph-name="quoteright" unicode="&#x2019;" horiz-adv-x="82" 
d="M27 499q2 18 8 34.5t8 35.5q2 14 5.5 27.5t3.5 27.5q0 6 8 6q3 0 8 -5q0 -14 -3.5 -28.5t-5.5 -28.5q-5 -23 -9 -38t-7 -32q-2 -13 -7.5 -35.5t-5.5 -36.5q-3 -4 -8 -4q-8 0 -8 5q0 6 1 15.5t3 20t4 20.5t5 16z" />
    <glyph glyph-name="quotesinglbase" unicode="&#x201a;" horiz-adv-x="88" 
d="M14 -38q0 21 5 40.5t10 40.5q6 30 12 61t18 60q3 3 9 3t6 -5q-11 -29 -16 -59.5t-13 -60.5q-5 -20 -10 -39t-5 -40q0 -3 -3 -4.5t-5 -1.5q-6 0 -8 5z" />
    <glyph glyph-name="Euro" unicode="&#x20ac;" horiz-adv-x="262" 
d="M45 290v5v27.5t2 28.5h-26q-5 0 -7 3t-2 5q0 6 7 8q8 0 14 -0.5t14 -0.5q2 30 5.5 59t8.5 57q3 18 8.5 43.5t16 48t27 38.5t42.5 16q24 0 41 -18.5t28.5 -44.5t17 -53.5t7.5 -45.5q0 -11 -7 -11q-3 0 -6.5 3t-3.5 8q-2 14 -1.5 16t-1.5 10q-3 15 -8 35.5t-14 39.5
t-22.5 33t-32.5 17q-17 -2 -31 -19t-24 -39t-16 -45t-9 -37q-5 -26 -7 -54t-3 -57h77h19.5h14t14.5 -0.5t21 -0.5q6 -2 6 -7q0 -2 -1 -5t-3 -3q-12 0 -19.5 -0.5t-20.5 -0.5q-14 0 -37.5 0.5t-69.5 1.5l-2 -46l1 -15h61t31.5 0.5t16 0.5h16.5q7 -2 7 -7q0 -8 -9 -8h-43h-20
t-7 -0.5t-3.5 -0.5t-9.5 -0.5t-25 -0.5h-15q3 -66 15 -131q2 -13 8 -35.5t16 -44t23 -37.5t29 -16q21 0 36 17t24.5 40t14 48t6.5 40q0 6 3 7t6 1q7 0 7 -10q-5 -27 -11 -54t-17 -49t-27.5 -37t-41.5 -18q-18 3 -30.5 13.5t-21.5 25t-15 31t-11 31.5q-27 84 -30 179
q-5 0 -11.5 0.5t-17.5 0.5q-4 0 -4 8q0 5 7 6h26z" />
    <glyph glyph-name="trademark" unicode="&#x2122;" horiz-adv-x="305" 
d="M284 525q0 -29 3 -56q-1 -5 -7 -5t-7 4q-4 30 -3 60.5t-1 60.5q-6 -20 -12 -39.5t-11.5 -35t-9.5 -27t-6 -14.5q-2 -4 -7 -4t-7 5q-7 28 -17 55.5t-24 61.5q-2 -31 -1.5 -61t-1.5 -61q0 -6 -7 -6t-7 7q2 38 1 77.5t3 77.5q2 5 6 5t7 -3q5 -5 12.5 -23t14.5 -38.5t13 -40
t9 -27.5l10 28l10 28q0 4 3 15.5t7 23.5t8 22.5t6 12.5q3 3 7 3q5 0 7 -6q2 -13 2 -25v-25v-50zM68 615h-23.5t-19.5 -1q-7 0 -7 5q0 2 1.5 4t4.5 2q13 2 18 2h19q22 0 35 -0.5t33 -1.5q7 -1 7 -6q0 -6 -7 -6q-16 0 -26.5 1t-20.5 1q3 -32 3 -63q0 -22 -1 -43.5t-3 -43.5
q0 -6 -7 -6t-7 7q3 45 3 88q0 15 -0.5 30.5t-1.5 30.5z" />
    <glyph glyph-name="at" unicode="@" horiz-adv-x="464" 
d="M149 151q11 -28 26.5 -43.5t47.5 -15.5q29 0 46.5 21t27.5 52t13 66t3 64q0 43 -4.5 77t-6.5 66q-3 35 -21 48.5t-48 13.5q-32 0 -52.5 -14.5t-32 -38.5t-15.5 -55t-4 -64q0 -30 0.5 -45t2.5 -30q1 -8 2.5 -21.5t3 -28.5t4.5 -29t7 -23zM298 132q-8 -15 -12 -20.5
t-15 -16.5t-26 -13t-29 -2q-23 0 -38.5 9t-26 25t-16.5 36t-9 43q-4 26 -7.5 61t-3.5 73q0 34 4.5 67t16.5 59.5t33 42.5t54 16q20 0 36.5 -2.5t29 -10.5t20 -22.5t9.5 -39.5q2 -20 3 -42t3 -42q3 40 6 78.5t8 73.5q1 4 7 4t7 -5q-7 -61 -11.5 -115t-9.5 -111
q0 -14 -2.5 -28.5t-4.5 -28.5q-1 -14 -1 -28.5v-28.5q0 -32 14.5 -57t36.5 -25t34 15.5t18 37.5t7 45.5t1 38.5q0 28 0.5 54t0.5 53q0 30 -1 60t-4 57t-8.5 50t-14.5 39q-65 110 -169 110q-50 0 -86.5 -16t-71.5 -53q-11 -11 -18.5 -31t-12.5 -41.5t-8.5 -41t-4.5 -31.5
q-5 -42 -6 -89.5t-1 -89.5q0 -15 2.5 -44.5t9.5 -62.5t18 -65t28 -53q19 -23 59.5 -41.5t89.5 -18.5q32 0 59 8.5t47.5 18t33 18t15.5 8.5q6 0 6 -5q0 -3 -3 -6q-11 -9 -26 -19t-35 -18.5t-45.5 -14t-56.5 -5.5q-50 0 -90.5 16t-69.5 56q-17 23 -28.5 57t-18 71.5t-9.5 75
t-3 66.5q0 11 0.5 22.5t0.5 24.5q1 42 3.5 83.5t12 79.5t30 70t56.5 54q29 18 62.5 24.5t63.5 6.5q38 0 70 -12t64 -42q17 -17 31 -38.5t23 -44.5q9 -22 13.5 -51t6.5 -59.5t2.5 -61t0.5 -56.5v-14.5t-0.5 -25t-1.5 -31t-2 -33.5q-1 -12 -2 -21t-2.5 -17t-4 -15.5
t-6.5 -17.5q-17 -47 -56 -47q-26 0 -41 18t-24 49q-2 5 -2.5 9t-1.5 9z" />
    <glyph glyph-name="emdash" unicode="&#x2014;" horiz-adv-x="374" 
d="M13 305q-7 1 -7 7q0 2 2 6t5 4h43.5t69.5 -0.5t70 -0.5h46h45.5t31 -0.5t22 -0.5h18.5q5 0 7 -3.5t2 -6.5q0 -5 -6 -7h-18t-17 0.5t-27 0.5h-48h-26.5h-42h-50h-50.5t-43 0.5t-27 0.5z" />
    <glyph glyph-name="ellipsis" unicode="&#x2026;" horiz-adv-x="220" 
d="M26 8q0 11 10 11q5 0 8 -3.5t3 -7.5t-3 -7.5t-7 -3.5q-5 0 -8 3.5t-3 7.5zM99 7q0 5 3.5 8t7.5 3t7.5 -3t3.5 -7q0 -5 -3.5 -8t-7.5 -3q-11 0 -11 10zM182 -4q-3 0 -6.5 3.5t-3.5 7.5q0 5 3.5 7.5t7.5 2.5q11 0 11 -10q0 -5 -4 -8t-8 -3z" />
    <glyph glyph-name="dieresis" unicode="&#xa8;" horiz-adv-x="95" 
d="M74 674q0 4 3 7.5t7 3.5q5 0 8 -3.5t3 -7.5q0 -11 -10 -11q-5 0 -8 3.5t-3 7.5zM0 674q0 5 3.5 8t7.5 3q11 0 11 -10q0 -5 -3.5 -8t-7.5 -3t-7.5 3t-3.5 7z" />
    <glyph glyph-name="dotlessi" unicode="&#x131;" horiz-adv-x="75" 
d="M46 0q-1 -4 -9 -4t-8 5q2 29 2 60v60q0 40 -1 79t-1 80q0 88 -1.5 174t-1.5 173q0 5 7 5t9 -4q0 -87 1 -173.5t3 -173.5q1 -42 2 -83t1 -84q0 -57 -3 -114z" />
    <glyph glyph-name="acute" unicode="&#xb4;" horiz-adv-x="118" 
d="M111 721q7 0 7 -5q0 -4 -7 -7q2 1 -12.5 -6t-33.5 -15.5t-37 -16t-22 -7.5q-6 0 -6 4q0 3 15 11.5t34.5 17t37.5 15.5t24 9z" />
    <glyph glyph-name="grave" unicode="`" horiz-adv-x="116" 
d="M7 723q5 -2 20 -10t34 -14q22 -8 38.5 -18t16.5 -14t-6 -4q-9 2 -27 9.5t-36.5 16.5t-32.5 17.5t-14 11.5q0 5 7 5z" />
    <glyph glyph-name="tilde" unicode="&#x2dc;" horiz-adv-x="148" 
d="M14 685q0 -6 -7 -6t-7 7q0 13 13 21.5t24 8.5q17 0 30.5 -12t25.5 -18q6 -3 11 -3q7 0 15 2q8 4 11 7q3 2 4 5q3 6 9 6q5 0 5 -6t-4.5 -11t-9.5 -8q-8 -5 -15 -7t-13 -2q-14 0 -25.5 9t-27.5 18q-8 5 -16 5q-17 0 -23 -16z" />
    <glyph glyph-name="circumflex" unicode="&#x2c6;" horiz-adv-x="140" 
d="M37 710q5 6 14 18.5t18 12.5q5 0 16.5 -10t23.5 -23t21.5 -24t9.5 -14q0 -7 -7 -7q-5 0 -7 2q-17 17 -28 31.5t-29 30.5q-2 -3 -4.5 -6.5t-8.5 -10.5t-16 -17.5t-26 -26.5q-3 -3 -9 -3q-5 0 -5 5q0 4 5 10.5t11 13t12 12t9 6.5z" />
    <glyph glyph-name="ring" unicode="&#x2da;" horiz-adv-x="109" 
d="M0 714q0 29 16.5 42t36.5 13q21 0 38.5 -14t17.5 -41q0 -26 -16 -39.5t-36 -13.5t-36.5 13t-20.5 40zM14 715q4 -23 15 -33t24 -10q14 0 26.5 11t12.5 30q0 16 -10 33q-14 12 -30 12q-15 0 -26.5 -11.5t-11.5 -31.5z" />
    <glyph glyph-name="caron" unicode="&#x2c7;" horiz-adv-x="140" 
d="M69 677q3 6 13.5 18t43.5 45q4 4 10 4q2 0 3 -3t1 -5q0 -5 -5 -9t-11 -9q-2 -3 -9.5 -12t-16.5 -18.5t-18 -17t-13 -7.5q-5 0 -16 10t-22.5 23t-20 24t-8.5 14q0 7 7 7q5 0 7 -2l14.5 -14.5t10.5 -13.5q5 -9 12.5 -17t17.5 -17z" />
    <glyph glyph-name="dotaccent" unicode="&#x2d9;" horiz-adv-x="21" 
d="M10 664q-5 0 -7.5 3.5t-2.5 7.5t3 7.5t7 3.5q5 0 8 -3.5t3 -7.5q0 -11 -11 -11z" />
    <glyph glyph-name="breve" unicode="&#x2d8;" horiz-adv-x="109" 
d="M0 724q0 7 7 7t7 -7q4 -23 16 -32t25 -9q14 0 26.5 10.5t12.5 30.5q0 6 7 6q8 0 8 -7q0 -26 -16.5 -40t-36.5 -14t-37 14.5t-19 40.5z" />
    <glyph glyph-name="questiondown" unicode="&#xbf;" horiz-adv-x="201" 
d="M90 618q0 4 3 7.5t7 3.5q5 0 8 -3.5t3 -7.5q0 -11 -10 -11q-5 0 -8 3.5t-3 7.5zM28 195q0 24 11.5 42.5t28 33.5t35 29t33.5 29q9 9 14.5 23.5t8.5 30t4 31.5t1 30q0 50 -14 75t-49 33q-6 -1 -15.5 -2.5t-14.5 -3.5q-24 -19 -29 -47.5t-5 -61.5q0 -20 1.5 -43.5
t4.5 -38.5q0 -3 -3 -4.5t-5 -1.5q-6 0 -8 5q-2 13 -3.5 25.5t-1.5 26.5q0 12 1 29.5t2 29.5q1 18 4.5 37t14.5 33q10 14 24 20.5t29 6.5q36 0 61 -27q12 -15 16.5 -38t4.5 -48q0 -17 -1.5 -39t-4.5 -35q-4 -21 -14 -36.5t-24 -28.5t-29.5 -25t-30.5 -25q-10 -8 -19 -20
t-12 -26q0 -20 -2.5 -41.5t-2.5 -45.5q0 -26 3.5 -52t12.5 -46q6 -11 19.5 -16t26.5 -5q33 0 49 25q7 11 9 23.5t2 25.5q0 11 -1 22t-1 22q1 4 8 4q5 0 7 -3q3 -23 3 -43q0 -14 -2.5 -27t-8.5 -26q-9 -17 -26 -25t-37 -8t-37 7.5t-27 21.5q-8 13 -11 43.5t-3 62.5
q0 17 0.5 35.5t2.5 26.5z" />
    <glyph glyph-name="exclamdown" unicode="&#xa1;" horiz-adv-x="76" 
d="M37 608q-5 0 -8 3.5t-3 8.5q0 3 3 7t7 4q6 0 8.5 -4t2.5 -7q0 -12 -10 -12zM34 434q0 30 -0.5 61t-2.5 55q2 5 8 5q7 0 8 -4q1 -32 2 -67.5t1 -68.5v-27t-1 -27q-1 -40 -2 -82.5t-1 -99.5q0 -40 1.5 -87t1.5 -89q0 -8 -7 -8q-8 0 -8 7q0 26 -0.5 58.5t-0.5 58.5v25.5
t1 25.5v264z" />
    <glyph glyph-name="oslash" unicode="&#xf8;" 
d="M208 632q3 0 6 -1t3 -6l-24 -74q22 -66 30 -120t8 -106q0 -45 -4.5 -89t-10.5 -86q-3 -19 -8.5 -45t-16 -50t-27 -40.5t-42.5 -16.5t-41.5 18t-25.5 41q-6 -24 -9 -48q-2 -4 -2 -7t-8 -3q-2 1 -4.5 1.5t-2.5 4.5q3 18 7.5 37t9.5 39q-5 12 -8 25t-5 24q-21 93 -21 190
q0 43 4.5 86t12.5 85q3 19 9 43t17 45t27.5 35.5t41.5 14.5q23 0 37 -17.5t23 -37.5zM61 84q7 -21 18 -41t30 -29q5 -2 11 -2.5t8 -0.5q17 0 29.5 18t21 41.5t13.5 46.5t7 34q7 41 10.5 81.5t3.5 82.5q0 38 -3 76t-10 76q-2 9 -5.5 24.5t-8.5 32.5q-13 -47 -21.5 -80
t-14 -56t-9.5 -39.5t-8 -31.5q-18 -60 -38 -117t-34 -116zM54 112q5 23 10.5 44.5t12.5 44.5q8 29 18.5 58t19.5 59q18 62 31 119.5t30 114.5q-9 25 -22 44t-30 21q-20 -3 -33.5 -17t-22.5 -33.5t-14 -40t-8 -36.5q-17 -88 -17 -172q0 -21 1 -49t3.5 -57t7.5 -55.5t13 -44.5
z" />
    <glyph glyph-name="ydieresis" unicode="&#xff;" horiz-adv-x="189" 
d="M167 620v2q0 1 1 2q0 5 8 5q5 0 8 -5q0 -11 -5.5 -24t-9.5 -24q-9 -37 -20 -72.5t-21 -72.5q-2 -6 -5 -18t-6.5 -24.5t-8 -24.5t-8.5 -19q0 -49 -1 -98t-1 -99q0 -35 1 -73.5t3 -72.5q-1 -5 -8 -5t-8 4q-2 33 -3 71t-1 72q0 51 1 101.5t1 101.5q-7 14 -12 31t-7 31
q-8 30 -20 61t-19 60q-3 12 -5.5 18t-4.5 11t-3.5 11t-3.5 17q-1 6 -2 11.5t-1 10.5q-1 2 -1 6.5v6.5q0 6 8 6q4 0 7 -5q0 -25 8.5 -59t20.5 -70t24.5 -70t19.5 -59q13 44 27.5 89.5t25.5 90.5q2 9 3 15t2.5 11.5t3.5 12t5 16.5zM119 674q0 4 3 7.5t7 3.5q5 0 8 -3.5t3 -7.5
q0 -11 -10 -11q-5 0 -8 3.5t-3 7.5zM45 674q0 5 3.5 8t7.5 3q11 0 11 -10q0 -5 -3.5 -8t-7.5 -3t-7.5 3t-3.5 7z" />
    <glyph glyph-name="fraction" unicode="&#x2044;" horiz-adv-x="291" 
d="M14 27q26 73 51 148t60 146q18 38 39 75t38 76q6 12 15.5 38t20.5 52t22 45.5t19 19.5q7 0 7 -9q-20 -37 -35 -75t-32 -76q-24 -54 -51 -107t-52 -106.5t-47 -109t-37 -113.5l-12 -33q-3 -3 -8 -3q-7 0 -7 7z" />
    <glyph glyph-name="degree" unicode="&#xb0;" horiz-adv-x="182" 
d="M12 558q3 39 27 57t52 18q30 0 54.5 -19.5t24.5 -57.5q0 -35 -24 -53t-53 -18t-53.5 17.5t-27.5 55.5zM141 519q12 22 12 41q0 29 -20 44.5t-45 15.5q-22 0 -39.5 -14t-20.5 -47q3 -32 19.5 -46.5t39.5 -14.5q28 0 54 21z" />
    <glyph glyph-name="sterling" unicode="&#xa3;" horiz-adv-x="217" 
d="M106 1q-17 0 -32.5 -0.5t-30.5 -2.5q-9 0 -9 6q5 53 5.5 106.5t0.5 106.5q0 19 -0.5 38t-0.5 39h-19q-4 0 -6 3t-2 6q0 8 7 8h19v45h-8.5t-10.5 1q-5 2 -5 6q0 8 4 8h20v30q0 3 -0.5 7t-1 11.5t-1 20t-0.5 33.5q0 34 2 66t7 52q5 22 20.5 31t35.5 9q18 0 30 -2.5
t19.5 -6.5t12.5 -10.5t11 -13.5q11 -15 15.5 -40.5t4.5 -51.5q0 -18 -1 -35t-3 -30q0 -3 -0.5 -6.5t-0.5 -5.5q0 -6 -7 -6t-7 7q0 9 0.5 19t1.5 19v37q0 18 -2 38t-8 36.5t-18 27t-33 11.5q-4 0 -7.5 0.5t-7.5 0.5q-16 0 -29 -8q-7 -8 -11.5 -23t-7 -34.5t-3.5 -42.5t-1 -45
q0 -20 0.5 -32t1.5 -18.5t1.5 -9.5t0.5 -6v-28q20 0 25 -0.5t9 -1t13 -0.5h38q5 0 5 -8q0 -4 -4 -8q-7 0 -12 0.5t-13 0.5t-22 0.5t-39 0.5v-23t1 -23q21 0 42 -1t43 -1q4 -1 4 -6q0 -8 -3 -8q-8 0 -12 -0.5t-7.5 -0.5t-8 -0.5t-12.5 -0.5q-20 0 -29 0.5t-16 0.5
q0 -21 0.5 -42t0.5 -41q0 -50 -0.5 -99t-4.5 -98q8 1 15 1h15q15 0 30 -0.5t30 -0.5q14 0 28.5 1t28.5 4q8 -2 8 -7q0 -2 -1 -4t-4 -3q-11 -2 -26.5 -2.5t-32.5 -0.5h-35z" />
    <glyph glyph-name="bullet" unicode="&#x2022;" horiz-adv-x="123" 
d="M11 320q0 19 13 32t37 13q21 0 35.5 -13t14.5 -32q0 -15 -9 -26t-24 -16q-8 -3 -16 -3q-21 0 -36 13t-15 32z" />
    <glyph glyph-name="cent" unicode="&#xa2;" horiz-adv-x="220" 
d="M117 496q45 -3 63 -32.5t18 -74.5q0 -5 -0.5 -10t-0.5 -10q-1 -10 -1.5 -12t-3.5 -2q-2 0 -4 1t-3 6t-1.5 15t-0.5 27q0 11 -2 24t-9 24t-20 19t-35 10q-1 -47 -1.5 -91t-0.5 -102q0 -42 1.5 -81.5t1.5 -81.5q0 -16 -0.5 -48.5t-0.5 -66.5q28 5 51 25q8 12 10.5 25.5
t2.5 27.5q0 8 -0.5 17t-0.5 18q0 2 2 3t4 1q3 0 6 -2t3 -4q0 -8 0.5 -17t0.5 -19q0 -17 -3 -33.5t-14 -27.5t-28 -18.5t-34 -9.5q-1 -21 -1.5 -38.5t-0.5 -28.5q-1 -4 -8 -4q-8 0 -8 6q0 10 0.5 27t0.5 37q-21 1 -39.5 11.5t-24.5 32.5q-6 18 -7.5 49t-1.5 64q0 30 0.5 58.5
t0.5 42.5q0 31 -0.5 41.5t-0.5 16t-0.5 15.5t-0.5 41q0 26 3 51t13 42q9 11 24 22t35 13q1 17 1 34.5v37.5q0 5 7 5q6 0 8 -4v-72zM100 10q1 35 1 69.5v51.5q0 39 -1 77.5t-1 78.5v55.5t0.5 48.5t1 45t0.5 46q-18 -2 -31.5 -11.5t-19.5 -21.5q-3 -7 -5 -21t-3 -30.5t-1 -33
v-27.5q0 -96 0.5 -152t1 -86t2 -41.5t3.5 -18.5q21 -27 52 -29z" />
    <glyph glyph-name="periodcentered" unicode="&#xb7;" horiz-adv-x="73" 
d="M36 302q-5 0 -7.5 3.5t-2.5 7.5t3 7.5t7 3.5q5 0 8 -3.5t3 -7.5q0 -11 -11 -11z" />
    <glyph glyph-name="paragraph" unicode="&#xb6;" horiz-adv-x="244" 
d="M150 384q-13 0 -22.5 -0.5t-19.5 -0.5q-12 0 -23 2t-20 7q-26 14 -39.5 48t-13.5 71q0 31 9.5 59t31.5 41q16 9 28 12t32 3q15 0 25 -0.5t20 -0.5t22 -0.5t31 -0.5q7 -1 7 -6q0 -2 -2.5 -4t-12.5 -2q4 -53 5.5 -104.5t1.5 -103.5q0 -58 -1 -115.5t-1 -114.5q0 -45 3 -88
t3 -88q0 -6 -7 -6t-7 7q0 45 -3 88t-3 88q0 54 0.5 109t0.5 111q0 55 -1 108.5t-5 108.5q-8 1 -12.5 2t-12.5 1q-1 -28 -1 -55.5v-54.5q0 -128 3 -253.5t3 -255.5q0 -6 -7 -6t-7 7q0 41 -0.5 94.5t-1.5 107.5t-1.5 103t-1.5 82z" />
    <glyph glyph-name="section" unicode="&#xa7;" horiz-adv-x="196" 
d="M79 435q-22 23 -38 47.5t-16 59.5q0 21 7 43q6 20 29 33.5t47 13.5q25 0 37 -15q20 -24 23 -52t3 -66q0 -6 -7 -6t-7 7q0 34 -3 60.5t-21 49.5q-13 6 -18.5 7t-9.5 1q-19 0 -40 -9q-15 -16 -19 -31t-6 -42q0 -31 18 -54.5t40.5 -46t44 -48t27.5 -59.5q2 -7 3 -15.5
t1 -17.5q0 -16 -3.5 -33t-10.5 -32t-19 -26t-28 -14q22 -22 39 -47t17 -60q0 -13 -0.5 -25.5t-5.5 -24.5q-7 -19 -22.5 -30t-44.5 -11q-25 0 -39.5 13t-22 33t-9.5 43.5t-2 44.5q0 7 7 7t7 -6q0 -14 1 -35t6.5 -40t17.5 -32.5t35 -13.5q31 0 44.5 19t13.5 61q0 9 -1 18
t-5 17q-12 22 -33 43.5t-42 45t-36.5 51t-15.5 61.5q0 31 9 61t27 40zM103 200q16 3 26.5 12.5t17 23t9 29.5t2.5 33q0 8 -0.5 15t-1.5 12q-7 32 -26 55.5t-41 45.5q-10 -1 -21 -11q-18 -13 -25 -39.5t-7 -52.5q0 -31 12 -55q9 -19 23.5 -35t31.5 -33z" />
    <glyph glyph-name="agrave" unicode="&#xe0;" horiz-adv-x="239" 
d="M26 37q-2 -10 -4 -20.5t-6 -19.5q-3 -3 -6 -3q-5 0 -5 5q3 11 3.5 17t2.5 16q20 94 32.5 163.5t21 123t15 94.5t14.5 80q7 32 10.5 66t16.5 63q2 3 6.5 6t6.5 3q3 0 5.5 -6t4 -14t2 -16t1.5 -12l21 -165q6 -50 12.5 -99.5t13.5 -99.5q3 -20 8.5 -43.5t8.5 -44.5
q5 -34 13 -66t10 -65q0 -4 -6 -4q-3 0 -6 3q-6 32 -10.5 62t-11.5 61q-1 4 -4.5 23t-7 41.5t-7.5 42.5l-5 25q-17 0 -29.5 -0.5t-24.5 -1.5t-25 -1.5t-30 -0.5zM68 264q27 0 52.5 1.5t53.5 1.5q0 20 -2.5 28.5t-2.5 28.5q-3 16 -6 34t-6.5 46.5t-9 71.5t-13.5 109
q-1 6 -2 14t-1 16q-6 -14 -11 -41.5t-10 -51.5q-12 -60 -19.5 -121t-19.5 -122zM69 723q5 -2 20 -10t34 -14q22 -8 38.5 -18t16.5 -14t-6 -4q-9 2 -27 9.5t-36.5 16.5t-32.5 17.5t-14 11.5q0 5 7 5z" />
    <glyph glyph-name="aacute" unicode="&#xe1;" horiz-adv-x="239" 
d="M26 37q-2 -10 -4 -20.5t-6 -19.5q-3 -3 -6 -3q-5 0 -5 5q3 11 3.5 17t2.5 16q20 94 32.5 163.5t21 123t15 94.5t14.5 80q7 32 10.5 66t16.5 63q2 3 6.5 6t6.5 3q3 0 5.5 -6t4 -14t2 -16t1.5 -12l21 -165q6 -50 12.5 -99.5t13.5 -99.5q3 -20 8.5 -43.5t8.5 -44.5
q5 -34 13 -66t10 -65q0 -4 -6 -4q-3 0 -6 3q-6 32 -10.5 62t-11.5 61q-1 4 -4.5 23t-7 41.5t-7.5 42.5l-5 25q-17 0 -29.5 -0.5t-24.5 -1.5t-25 -1.5t-30 -0.5zM68 264q27 0 52.5 1.5t53.5 1.5q0 20 -2.5 28.5t-2.5 28.5q-3 16 -6 34t-6.5 46.5t-9 71.5t-13.5 109
q-1 6 -2 14t-1 16q-6 -14 -11 -41.5t-10 -51.5q-12 -60 -19.5 -121t-19.5 -122zM172 721q7 0 7 -5q0 -4 -7 -7q2 1 -12.5 -6t-33.5 -15.5t-37 -16t-22 -7.5q-6 0 -6 4q0 3 15 11.5t34.5 17t37.5 15.5t24 9z" />
    <glyph glyph-name="acircumflex" unicode="&#xe2;" horiz-adv-x="239" 
d="M26 37q-2 -10 -4 -20.5t-6 -19.5q-3 -3 -6 -3q-5 0 -5 5q3 11 3.5 17t2.5 16q20 94 32.5 163.5t21 123t15 94.5t14.5 80q7 32 10.5 66t16.5 63q2 3 6.5 6t6.5 3q3 0 5.5 -6t4 -14t2 -16t1.5 -12l21 -165q6 -50 12.5 -99.5t13.5 -99.5q3 -20 8.5 -43.5t8.5 -44.5
q5 -34 13 -66t10 -65q0 -4 -6 -4q-3 0 -6 3q-6 32 -10.5 62t-11.5 61q-1 4 -4.5 23t-7 41.5t-7.5 42.5l-5 25q-17 0 -29.5 -0.5t-24.5 -1.5t-25 -1.5t-30 -0.5zM68 264q27 0 52.5 1.5t53.5 1.5q0 20 -2.5 28.5t-2.5 28.5q-3 16 -6 34t-6.5 46.5t-9 71.5t-13.5 109
q-1 6 -2 14t-1 16q-6 -14 -11 -41.5t-10 -51.5q-12 -60 -19.5 -121t-19.5 -122zM87 710q5 6 14 18.5t18 12.5q5 0 16.5 -10t23.5 -23t21.5 -24t9.5 -14q0 -7 -7 -7q-5 0 -7 2q-17 17 -28 31.5t-29 30.5q-2 -3 -4.5 -6.5t-8.5 -10.5t-16 -17.5t-26 -26.5q-3 -3 -9 -3
q-5 0 -5 5q0 4 5 10.5t11 13t12 12t9 6.5z" />
    <glyph glyph-name="adieresis" unicode="&#xe4;" horiz-adv-x="239" 
d="M26 37q-2 -10 -4 -20.5t-6 -19.5q-3 -3 -6 -3q-5 0 -5 5q3 11 3.5 17t2.5 16q20 94 32.5 163.5t21 123t15 94.5t14.5 80q7 32 10.5 66t16.5 63q2 3 6.5 6t6.5 3q3 0 5.5 -6t4 -14t2 -16t1.5 -12l21 -165q6 -50 12.5 -99.5t13.5 -99.5q3 -20 8.5 -43.5t8.5 -44.5
q5 -34 13 -66t10 -65q0 -4 -6 -4q-3 0 -6 3q-6 32 -10.5 62t-11.5 61q-1 4 -4.5 23t-7 41.5t-7.5 42.5l-5 25q-17 0 -29.5 -0.5t-24.5 -1.5t-25 -1.5t-30 -0.5zM68 264q27 0 52.5 1.5t53.5 1.5q0 20 -2.5 28.5t-2.5 28.5q-3 16 -6 34t-6.5 46.5t-9 71.5t-13.5 109
q-1 6 -2 14t-1 16q-6 -14 -11 -41.5t-10 -51.5q-12 -60 -19.5 -121t-19.5 -122zM146 674q0 4 3 7.5t7 3.5q5 0 8 -3.5t3 -7.5q0 -11 -10 -11q-5 0 -8 3.5t-3 7.5zM72 674q0 5 3.5 8t7.5 3q11 0 11 -10q0 -5 -3.5 -8t-7.5 -3t-7.5 3t-3.5 7z" />
    <glyph glyph-name="atilde" unicode="&#xe3;" horiz-adv-x="239" 
d="M26 37q-2 -10 -4 -20.5t-6 -19.5q-3 -3 -6 -3q-5 0 -5 5q3 11 3.5 17t2.5 16q20 94 32.5 163.5t21 123t15 94.5t14.5 80q7 32 10.5 66t16.5 63q2 3 6.5 6t6.5 3q3 0 5.5 -6t4 -14t2 -16t1.5 -12l21 -165q6 -50 12.5 -99.5t13.5 -99.5q3 -20 8.5 -43.5t8.5 -44.5
q5 -34 13 -66t10 -65q0 -4 -6 -4q-3 0 -6 3q-6 32 -10.5 62t-11.5 61q-1 4 -4.5 23t-7 41.5t-7.5 42.5l-5 25q-17 0 -29.5 -0.5t-24.5 -1.5t-25 -1.5t-30 -0.5zM68 264q27 0 52.5 1.5t53.5 1.5q0 20 -2.5 28.5t-2.5 28.5q-3 16 -6 34t-6.5 46.5t-9 71.5t-13.5 109
q-1 6 -2 14t-1 16q-6 -14 -11 -41.5t-10 -51.5q-12 -60 -19.5 -121t-19.5 -122zM60 685q0 -6 -7 -6t-7 7q0 13 13 21.5t24 8.5q17 0 30.5 -12t25.5 -18q6 -3 11 -3q7 0 15 2q8 4 11 7q3 2 4 5q3 6 9 6q5 0 5 -6t-4.5 -11t-9.5 -8q-8 -5 -15 -7t-13 -2q-14 0 -25.5 9
t-27.5 18q-8 5 -16 5q-17 0 -23 -16z" />
    <glyph glyph-name="aring" unicode="&#xe5;" horiz-adv-x="239" 
d="M26 37q-2 -10 -4 -20.5t-6 -19.5q-3 -3 -6 -3q-5 0 -5 5q3 11 3.5 17t2.5 16q20 94 32.5 163.5t21 123t15 94.5t14.5 80q7 32 10.5 66t16.5 63q2 3 6.5 6t6.5 3q3 0 5.5 -6t4 -14t2 -16t1.5 -12l21 -165q6 -50 12.5 -99.5t13.5 -99.5q3 -20 8.5 -43.5t8.5 -44.5
q5 -34 13 -66t10 -65q0 -4 -6 -4q-3 0 -6 3q-6 32 -10.5 62t-11.5 61q-1 4 -4.5 23t-7 41.5t-7.5 42.5l-5 25q-17 0 -29.5 -0.5t-24.5 -1.5t-25 -1.5t-30 -0.5zM68 264q27 0 52.5 1.5t53.5 1.5q0 20 -2.5 28.5t-2.5 28.5q-3 16 -6 34t-6.5 46.5t-9 71.5t-13.5 109
q-1 6 -2 14t-1 16q-6 -14 -11 -41.5t-10 -51.5q-12 -60 -19.5 -121t-19.5 -122zM75 714q0 29 16.5 42t36.5 13q21 0 38.5 -14t17.5 -41q0 -26 -16 -39.5t-36 -13.5t-36.5 13t-20.5 40zM89 715q4 -23 15 -33t24 -10q14 0 26.5 11t12.5 30q0 16 -10 33q-14 12 -30 12
q-15 0 -26.5 -11.5t-11.5 -31.5z" />
    <glyph glyph-name="uacute" unicode="&#xfa;" horiz-adv-x="247" 
d="M46 222q0 -22 -0.5 -45.5t-0.5 -46.5q0 -32 8 -64t31 -48q8 -5 16 -6t16 -1q28 0 45.5 6t26.5 18t12 30t3 41q0 27 0.5 54t0.5 55q0 99 -2 203.5t-4 202.5q0 5 8 5q5 0 7 -4q3 -69 5 -140t2 -140q0 -29 0.5 -62t0.5 -62t-0.5 -57t-0.5 -57q0 -26 -4.5 -51t-21.5 -36
q-13 -8 -35.5 -14.5t-45.5 -6.5q-14 0 -25 2.5t-19 9.5q-14 13 -19 23t-11 27q-6 18 -8 39t-2 42q0 20 0.5 39t0.5 37q0 82 -2 156t-2 141v113q0 8 7 8q6 0 8 -7v-218q0 -38 2.5 -76t2.5 -76v-34zM176 721q7 0 7 -5q0 -4 -7 -7q2 1 -12.5 -6t-33.5 -15.5t-37 -16t-22 -7.5
q-6 0 -6 4q0 3 15 11.5t34.5 17t37.5 15.5t24 9z" />
    <glyph glyph-name="scaron" unicode="&#x161;" horiz-adv-x="214" 
d="M22 138q0 6 8 6q4 0 7 -5q0 -9 -0.5 -18t-0.5 -20q0 -20 4 -38.5t18 -32.5q19 -22 42 -22q17 0 32.5 7.5t23.5 23.5q13 23 16.5 50.5t3.5 54.5q0 17 -0.5 33.5t-0.5 32.5q0 35 -13 60t-32.5 46.5t-42.5 41.5t-42 45q-14 17 -17.5 39t-3.5 44q0 18 1.5 39t3.5 38
q5 34 25.5 50.5t52.5 16.5q16 0 29 -2t22 -13q17 -20 21.5 -47t4.5 -55q0 -14 -0.5 -30.5t-0.5 -29.5q-1 -4 -8 -4q-2 0 -6 2t-4 5q0 18 0.5 30t0.5 19.5t0.5 12t0.5 9.5q0 18 -2 34.5t-8.5 29t-18.5 20t-31 7.5q-13 0 -23 -3t-22 -15q-17 -17 -20 -49.5t-3 -67.5
q0 -15 2 -29t8 -27q10 -20 26.5 -36t34.5 -33t35.5 -36.5t29.5 -45.5q10 -23 13.5 -46.5t3.5 -46.5q0 -19 -1 -37t-1 -38t-5 -40t-16 -35.5t-27.5 -25.5t-38.5 -10q-32 0 -55 23q-10 9 -15 22.5t-7.5 29t-3 31t-0.5 28.5v7zM107 677q3 6 13.5 18t43.5 45q4 4 10 4q2 0 3 -3
t1 -5q0 -5 -5 -9t-11 -9q-2 -3 -9.5 -12t-16.5 -18.5t-18 -17t-13 -7.5q-5 0 -16 10t-22.5 23t-20 24t-8.5 14q0 7 7 7q5 0 7 -2l14.5 -14.5t10.5 -13.5q5 -9 12.5 -17t17.5 -17z" />
    <glyph glyph-name="eacute" unicode="&#xe9;" horiz-adv-x="224" 
d="M46 317q40 0 76 1t78 4q5 0 5 -4q0 -3 -3 -6t-8 -3q-41 -4 -75 -4.5t-73 -0.5q0 -7 -0.5 -13t-0.5 -13q-2 -67 -3.5 -131.5t-2.5 -131.5q21 0 34 -0.5t21 -1t12.5 -0.5h8.5q43 0 88 3q7 0 7 -7q0 -2 -2 -5t-6 -3q-41 -3 -80 -3q-48 0 -93 3q-3 0 -3 4q2 94 4 185t2 182
q0 60 -1 121.5t-5 122.5q1 3 3.5 6.5t7.5 3.5q26 0 48 -0.5t46 -0.5t41.5 0.5t32.5 0.5q5 0 6 -1.5t1 -3.5t-1.5 -4.5t-6.5 -2.5q-10 0 -31.5 -0.5t-46.5 -0.5q-17 0 -38.5 -0.5t-47.5 -0.5q4 -57 5 -115t1 -114v-66zM156 721q7 0 7 -5q0 -4 -7 -7q2 1 -12.5 -6t-33.5 -15.5
t-37 -16t-22 -7.5q-6 0 -6 4q0 3 15 11.5t34.5 17t37.5 15.5t24 9z" />
    <glyph glyph-name="egrave" unicode="&#xe8;" horiz-adv-x="224" 
d="M46 317q40 0 76 1t78 4q5 0 5 -4q0 -3 -3 -6t-8 -3q-41 -4 -75 -4.5t-73 -0.5q0 -7 -0.5 -13t-0.5 -13q-2 -67 -3.5 -131.5t-2.5 -131.5q21 0 34 -0.5t21 -1t12.5 -0.5h8.5q43 0 88 3q7 0 7 -7q0 -2 -2 -5t-6 -3q-41 -3 -80 -3q-48 0 -93 3q-3 0 -3 4q2 94 4 185t2 182
q0 60 -1 121.5t-5 122.5q1 3 3.5 6.5t7.5 3.5q26 0 48 -0.5t46 -0.5t41.5 0.5t32.5 0.5q5 0 6 -1.5t1 -3.5t-1.5 -4.5t-6.5 -2.5q-10 0 -31.5 -0.5t-46.5 -0.5q-17 0 -38.5 -0.5t-47.5 -0.5q4 -57 5 -115t1 -114v-66zM53 723q5 -2 20 -10t34 -14q22 -8 38.5 -18t16.5 -14
t-6 -4q-9 2 -27 9.5t-36.5 16.5t-32.5 17.5t-14 11.5q0 5 7 5z" />
    <glyph glyph-name="ecircumflex" unicode="&#xea;" horiz-adv-x="224" 
d="M46 317q40 0 76 1t78 4q5 0 5 -4q0 -3 -3 -6t-8 -3q-41 -4 -75 -4.5t-73 -0.5q0 -7 -0.5 -13t-0.5 -13q-2 -67 -3.5 -131.5t-2.5 -131.5q21 0 34 -0.5t21 -1t12.5 -0.5h8.5q43 0 88 3q7 0 7 -7q0 -2 -2 -5t-6 -3q-41 -3 -80 -3q-48 0 -93 3q-3 0 -3 4q2 94 4 185t2 182
q0 60 -1 121.5t-5 122.5q1 3 3.5 6.5t7.5 3.5q26 0 48 -0.5t46 -0.5t41.5 0.5t32.5 0.5q5 0 6 -1.5t1 -3.5t-1.5 -4.5t-6.5 -2.5q-10 0 -31.5 -0.5t-46.5 -0.5q-17 0 -38.5 -0.5t-47.5 -0.5q4 -57 5 -115t1 -114v-66zM71 710q5 6 14 18.5t18 12.5q5 0 16.5 -10t23.5 -23
t21.5 -24t9.5 -14q0 -7 -7 -7q-5 0 -7 2q-17 17 -28 31.5t-29 30.5q-2 -3 -4.5 -6.5t-8.5 -10.5t-16 -17.5t-26 -26.5q-3 -3 -9 -3q-5 0 -5 5q0 4 5 10.5t11 13t12 12t9 6.5z" />
    <glyph glyph-name="edieresis" unicode="&#xeb;" horiz-adv-x="224" 
d="M46 317q40 0 76 1t78 4q5 0 5 -4q0 -3 -3 -6t-8 -3q-41 -4 -75 -4.5t-73 -0.5q0 -7 -0.5 -13t-0.5 -13q-2 -67 -3.5 -131.5t-2.5 -131.5q21 0 34 -0.5t21 -1t12.5 -0.5h8.5q43 0 88 3q7 0 7 -7q0 -2 -2 -5t-6 -3q-41 -3 -80 -3q-48 0 -93 3q-3 0 -3 4q2 94 4 185t2 182
q0 60 -1 121.5t-5 122.5q1 3 3.5 6.5t7.5 3.5q26 0 48 -0.5t46 -0.5t41.5 0.5t32.5 0.5q5 0 6 -1.5t1 -3.5t-1.5 -4.5t-6.5 -2.5q-10 0 -31.5 -0.5t-46.5 -0.5q-17 0 -38.5 -0.5t-47.5 -0.5q4 -57 5 -115t1 -114v-66zM131 674q0 4 3 7.5t7 3.5q5 0 8 -3.5t3 -7.5
q0 -11 -10 -11q-5 0 -8 3.5t-3 7.5zM57 674q0 5 3.5 8t7.5 3q11 0 11 -10q0 -5 -3.5 -8t-7.5 -3t-7.5 3t-3.5 7z" />
    <glyph glyph-name="iacute" unicode="&#xed;" horiz-adv-x="88" 
d="M55 0q-1 -4 -9 -4t-8 5q2 29 2 60v60q0 40 -1 79t-1 80q0 88 -1.5 174t-1.5 173q0 5 7 5t9 -4q0 -87 1 -173.5t3 -173.5q1 -42 2 -83t1 -84q0 -57 -3 -114zM99 721q7 0 7 -5q0 -4 -7 -7q2 1 -12.5 -6t-33.5 -15.5t-37 -16t-22 -7.5q-6 0 -6 4q0 3 15 11.5t34.5 17
t37.5 15.5t24 9z" />
    <glyph glyph-name="igrave" unicode="&#xec;" horiz-adv-x="92" 
d="M54 0q-1 -4 -9 -4t-8 5q2 29 2 60v60q0 40 -1 79t-1 80q0 88 -1.5 174t-1.5 173q0 5 7 5t9 -4q0 -87 1 -173.5t3 -173.5q1 -42 2 -83t1 -84q0 -57 -3 -114zM-5 723q5 -2 20 -10t34 -14q22 -8 38.5 -18t16.5 -14t-6 -4q-9 2 -27 9.5t-36.5 16.5t-32.5 17.5t-14 11.5
q0 5 7 5z" />
    <glyph glyph-name="icircumflex" unicode="&#xee;" horiz-adv-x="94" 
d="M54 0q-1 -4 -9 -4t-8 5q2 29 2 60v60q0 40 -1 79t-1 80q0 88 -1.5 174t-1.5 173q0 5 7 5t9 -4q0 -87 1 -173.5t3 -173.5q1 -42 2 -83t1 -84q0 -57 -3 -114zM14 710q5 6 14 18.5t18 12.5q5 0 16.5 -10t23.5 -23t21.5 -24t9.5 -14q0 -7 -7 -7q-5 0 -7 2q-17 17 -28 31.5
t-29 30.5q-2 -3 -4.5 -6.5t-8.5 -10.5t-16 -17.5t-26 -26.5q-3 -3 -9 -3q-5 0 -5 5q0 4 5 10.5t11 13t12 12t9 6.5z" />
    <glyph glyph-name="idieresis" unicode="&#xef;" horiz-adv-x="95" 
d="M55 0q-1 -4 -9 -4t-8 5q2 29 2 60v60q0 40 -1 79t-1 80q0 88 -1.5 174t-1.5 173q0 5 7 5t9 -4q0 -87 1 -173.5t3 -173.5q1 -42 2 -83t1 -84q0 -57 -3 -114zM74 674q0 4 3 7.5t7 3.5q5 0 8 -3.5t3 -7.5q0 -11 -10 -11q-5 0 -8 3.5t-3 7.5zM0 674q0 5 3.5 8t7.5 3
q11 0 11 -10q0 -5 -3.5 -8t-7.5 -3t-7.5 3t-3.5 7z" />
    <glyph glyph-name="ntilde" unicode="&#xf1;" horiz-adv-x="257" 
d="M47 561q-1 -41 -2 -86t-1 -85q0 -92 1.5 -165t1.5 -142v-40.5t-1 -40.5q-1 -5 -8 -5t-7 6q1 44 1.5 87t0.5 87q0 37 -1 66.5t-2.5 54.5t-2.5 47.5t-1 45.5q0 40 2.5 85t3.5 86q0 12 1 24t1 25q0 8 -0.5 10.5t-0.5 4.5q1 4 8 4q5 0 9 -6q11 -45 25.5 -87t26.5 -85
q22 -78 41.5 -161t35.5 -162q4 -17 7.5 -36t11.5 -42l-2 160t-1 161q0 60 1 125t6 125q1 3 7 3q7 0 8 -4q-2 -42 -3 -82.5t-1 -81.5q0 -63 1 -129t1 -128q0 -51 -0.5 -100t-0.5 -99q0 -3 -3.5 -3.5t-4.5 -0.5q-5 0 -8 10q-4 11 -9 26l-10.5 31.5t-9.5 33t-7 30.5
q-16 79 -34.5 162.5t-41.5 160.5q-9 30 -19 60t-20 61v-11zM63 685q0 -6 -7 -6t-7 7q0 13 13 21.5t24 8.5q17 0 30.5 -12t25.5 -18q6 -3 11 -3q7 0 15 2q8 4 11 7q3 2 4 5q3 6 9 6q5 0 5 -6t-4.5 -11t-9.5 -8q-8 -5 -15 -7t-13 -2q-14 0 -25.5 9t-27.5 18q-8 5 -16 5
q-17 0 -23 -16z" />
    <glyph glyph-name="oacute" unicode="&#xf3;" 
d="M29 493q3 19 10 43t18.5 45.5t28 36t38.5 14.5q18 0 30.5 -10.5t21.5 -26t15 -33.5l11 -33q15 -49 22 -100.5t7 -104.5q0 -45 -4.5 -90.5t-10.5 -87.5q-3 -19 -8.5 -45t-16 -49.5t-27 -40t-42.5 -16.5q-22 0 -37 14t-25.5 34t-16.5 42.5t-10 40.5q-21 94 -21 193
q0 86 17 174zM141 13q30 25 41 61t17 74q7 41 10.5 82.5t3.5 84.5q0 38 -3 76.5t-10 76.5q-3 14 -8.5 39t-15 49.5t-22.5 43.5t-30 21q-20 -3 -33.5 -17.5t-22.5 -34t-14 -40.5t-8 -37q-8 -44 -12.5 -87.5t-4.5 -87.5q0 -95 20 -190q3 -15 7.5 -31.5t11 -32.5t16.5 -29.5
t25 -21.5q5 -2 11 -2.5t8 -0.5q1 0 5 1.5t8 2.5zM174 721q7 0 7 -5q0 -4 -7 -7q2 1 -12.5 -6t-33.5 -15.5t-37 -16t-22 -7.5q-6 0 -6 4q0 3 15 11.5t34.5 17t37.5 15.5t24 9z" />
    <glyph glyph-name="ograve" unicode="&#xf2;" 
d="M29 493q3 19 10 43t18.5 45.5t28 36t38.5 14.5q18 0 30.5 -10.5t21.5 -26t15 -33.5l11 -33q15 -49 22 -100.5t7 -104.5q0 -45 -4.5 -90.5t-10.5 -87.5q-3 -19 -8.5 -45t-16 -49.5t-27 -40t-42.5 -16.5q-22 0 -37 14t-25.5 34t-16.5 42.5t-10 40.5q-21 94 -21 193
q0 86 17 174zM141 13q30 25 41 61t17 74q7 41 10.5 82.5t3.5 84.5q0 38 -3 76.5t-10 76.5q-3 14 -8.5 39t-15 49.5t-22.5 43.5t-30 21q-20 -3 -33.5 -17.5t-22.5 -34t-14 -40.5t-8 -37q-8 -44 -12.5 -87.5t-4.5 -87.5q0 -95 20 -190q3 -15 7.5 -31.5t11 -32.5t16.5 -29.5
t25 -21.5q5 -2 11 -2.5t8 -0.5q1 0 5 1.5t8 2.5zM71 723q5 -2 20 -10t34 -14q22 -8 38.5 -18t16.5 -14t-6 -4q-9 2 -27 9.5t-36.5 16.5t-32.5 17.5t-14 11.5q0 5 7 5z" />
    <glyph glyph-name="ocircumflex" unicode="&#xf4;" 
d="M29 493q3 19 10 43t18.5 45.5t28 36t38.5 14.5q18 0 30.5 -10.5t21.5 -26t15 -33.5l11 -33q15 -49 22 -100.5t7 -104.5q0 -45 -4.5 -90.5t-10.5 -87.5q-3 -19 -8.5 -45t-16 -49.5t-27 -40t-42.5 -16.5q-22 0 -37 14t-25.5 34t-16.5 42.5t-10 40.5q-21 94 -21 193
q0 86 17 174zM141 13q30 25 41 61t17 74q7 41 10.5 82.5t3.5 84.5q0 38 -3 76.5t-10 76.5q-3 14 -8.5 39t-15 49.5t-22.5 43.5t-30 21q-20 -3 -33.5 -17.5t-22.5 -34t-14 -40.5t-8 -37q-8 -44 -12.5 -87.5t-4.5 -87.5q0 -95 20 -190q3 -15 7.5 -31.5t11 -32.5t16.5 -29.5
t25 -21.5q5 -2 11 -2.5t8 -0.5q1 0 5 1.5t8 2.5zM89 710q5 6 14 18.5t18 12.5q5 0 16.5 -10t23.5 -23t21.5 -24t9.5 -14q0 -7 -7 -7q-5 0 -7 2q-17 17 -28 31.5t-29 30.5q-2 -3 -4.5 -6.5t-8.5 -10.5t-16 -17.5t-26 -26.5q-3 -3 -9 -3q-5 0 -5 5q0 4 5 10.5t11 13t12 12
t9 6.5z" />
    <glyph glyph-name="odieresis" unicode="&#xf6;" 
d="M29 493q3 19 10 43t18.5 45.5t28 36t38.5 14.5q18 0 30.5 -10.5t21.5 -26t15 -33.5l11 -33q15 -49 22 -100.5t7 -104.5q0 -45 -4.5 -90.5t-10.5 -87.5q-3 -19 -8.5 -45t-16 -49.5t-27 -40t-42.5 -16.5q-22 0 -37 14t-25.5 34t-16.5 42.5t-10 40.5q-21 94 -21 193
q0 86 17 174zM141 13q30 25 41 61t17 74q7 41 10.5 82.5t3.5 84.5q0 38 -3 76.5t-10 76.5q-3 14 -8.5 39t-15 49.5t-22.5 43.5t-30 21q-20 -3 -33.5 -17.5t-22.5 -34t-14 -40.5t-8 -37q-8 -44 -12.5 -87.5t-4.5 -87.5q0 -95 20 -190q3 -15 7.5 -31.5t11 -32.5t16.5 -29.5
t25 -21.5q5 -2 11 -2.5t8 -0.5q1 0 5 1.5t8 2.5zM148 674q0 4 3 7.5t7 3.5q5 0 8 -3.5t3 -7.5q0 -11 -10 -11q-5 0 -8 3.5t-3 7.5zM74 674q0 5 3.5 8t7.5 3q11 0 11 -10q0 -5 -3.5 -8t-7.5 -3t-7.5 3t-3.5 7z" />
    <glyph glyph-name="otilde" unicode="&#xf5;" 
d="M29 493q3 19 10 43t18.5 45.5t28 36t38.5 14.5q18 0 30.5 -10.5t21.5 -26t15 -33.5l11 -33q15 -49 22 -100.5t7 -104.5q0 -45 -4.5 -90.5t-10.5 -87.5q-3 -19 -8.5 -45t-16 -49.5t-27 -40t-42.5 -16.5q-22 0 -37 14t-25.5 34t-16.5 42.5t-10 40.5q-21 94 -21 193
q0 86 17 174zM141 13q30 25 41 61t17 74q7 41 10.5 82.5t3.5 84.5q0 38 -3 76.5t-10 76.5q-3 14 -8.5 39t-15 49.5t-22.5 43.5t-30 21q-20 -3 -33.5 -17.5t-22.5 -34t-14 -40.5t-8 -37q-8 -44 -12.5 -87.5t-4.5 -87.5q0 -95 20 -190q3 -15 7.5 -31.5t11 -32.5t16.5 -29.5
t25 -21.5q5 -2 11 -2.5t8 -0.5q1 0 5 1.5t8 2.5zM62 685q0 -6 -7 -6t-7 7q0 13 13 21.5t24 8.5q17 0 30.5 -12t25.5 -18q6 -3 11 -3q7 0 15 2q8 4 11 7q3 2 4 5q3 6 9 6q5 0 5 -6t-4.5 -11t-9.5 -8q-8 -5 -15 -7t-13 -2q-14 0 -25.5 9t-27.5 18q-8 5 -16 5q-17 0 -23 -16z
" />
    <glyph glyph-name="ugrave" unicode="&#xf9;" horiz-adv-x="247" 
d="M46 222q0 -22 -0.5 -45.5t-0.5 -46.5q0 -32 8 -64t31 -48q8 -5 16 -6t16 -1q28 0 45.5 6t26.5 18t12 30t3 41q0 27 0.5 54t0.5 55q0 99 -2 203.5t-4 202.5q0 5 8 5q5 0 7 -4q3 -69 5 -140t2 -140q0 -29 0.5 -62t0.5 -62t-0.5 -57t-0.5 -57q0 -26 -4.5 -51t-21.5 -36
q-13 -8 -35.5 -14.5t-45.5 -6.5q-14 0 -25 2.5t-19 9.5q-14 13 -19 23t-11 27q-6 18 -8 39t-2 42q0 20 0.5 39t0.5 37q0 82 -2 156t-2 141v113q0 8 7 8q6 0 8 -7v-218q0 -38 2.5 -76t2.5 -76v-34zM73 723q5 -2 20 -10t34 -14q22 -8 38.5 -18t16.5 -14t-6 -4q-9 2 -27 9.5
t-36.5 16.5t-32.5 17.5t-14 11.5q0 5 7 5z" />
    <glyph glyph-name="ucircumflex" unicode="&#xfb;" horiz-adv-x="247" 
d="M46 222q0 -22 -0.5 -45.5t-0.5 -46.5q0 -32 8 -64t31 -48q8 -5 16 -6t16 -1q28 0 45.5 6t26.5 18t12 30t3 41q0 27 0.5 54t0.5 55q0 99 -2 203.5t-4 202.5q0 5 8 5q5 0 7 -4q3 -69 5 -140t2 -140q0 -29 0.5 -62t0.5 -62t-0.5 -57t-0.5 -57q0 -26 -4.5 -51t-21.5 -36
q-13 -8 -35.5 -14.5t-45.5 -6.5q-14 0 -25 2.5t-19 9.5q-14 13 -19 23t-11 27q-6 18 -8 39t-2 42q0 20 0.5 39t0.5 37q0 82 -2 156t-2 141v113q0 8 7 8q6 0 8 -7v-218q0 -38 2.5 -76t2.5 -76v-34zM91 710q5 6 14 18.5t18 12.5q5 0 16.5 -10t23.5 -23t21.5 -24t9.5 -14
q0 -7 -7 -7q-5 0 -7 2q-17 17 -28 31.5t-29 30.5q-2 -3 -4.5 -6.5t-8.5 -10.5t-16 -17.5t-26 -26.5q-3 -3 -9 -3q-5 0 -5 5q0 4 5 10.5t11 13t12 12t9 6.5z" />
    <glyph glyph-name="udieresis" unicode="&#xfc;" horiz-adv-x="247" 
d="M46 222q0 -22 -0.5 -45.5t-0.5 -46.5q0 -32 8 -64t31 -48q8 -5 16 -6t16 -1q28 0 45.5 6t26.5 18t12 30t3 41q0 27 0.5 54t0.5 55q0 99 -2 203.5t-4 202.5q0 5 8 5q5 0 7 -4q3 -69 5 -140t2 -140q0 -29 0.5 -62t0.5 -62t-0.5 -57t-0.5 -57q0 -26 -4.5 -51t-21.5 -36
q-13 -8 -35.5 -14.5t-45.5 -6.5q-14 0 -25 2.5t-19 9.5q-14 13 -19 23t-11 27q-6 18 -8 39t-2 42q0 20 0.5 39t0.5 37q0 82 -2 156t-2 141v113q0 8 7 8q6 0 8 -7v-218q0 -38 2.5 -76t2.5 -76v-34zM150 674q0 4 3 7.5t7 3.5q5 0 8 -3.5t3 -7.5q0 -11 -10 -11q-5 0 -8 3.5
t-3 7.5zM76 674q0 5 3.5 8t7.5 3q11 0 11 -10q0 -5 -3.5 -8t-7.5 -3t-7.5 3t-3.5 7z" />
    <glyph glyph-name="ae" unicode="&#xe6;" horiz-adv-x="409" 
d="M134 281q-30 -72 -60.5 -142t-54.5 -144q-3 -3 -7 -3q-7 0 -7 6q29 88 64.5 171t70.5 170q26 67 52 137.5t49 139.5q2 10 9 10q27 0 49.5 -0.5t46.5 -0.5h17.5t9 0.5t6.5 0.5h11q5 0 6 -1.5t1 -3.5t-1.5 -4.5t-6.5 -2.5h-8.5t-8 -0.5t-12 -0.5h-19.5q-17 0 -38.5 -0.5
t-47.5 -0.5q4 -57 5 -115t1 -114v-66h34t27 1t27.5 1.5t35.5 2.5q5 0 5 -4q0 -3 -3 -6t-8 -3q-20 -2 -33.5 -3t-25.5 -1.5t-25.5 -0.5h-32.5q-4 -74 -5 -145.5t-2 -143.5q21 0 34 -0.5t21 -1t12 -0.5h8h17t11.5 0.5t12 1t17.5 1.5q7 0 7 -7q0 -2 -2 -5t-6 -3
q-10 -1 -15.5 -1.5t-10 -1t-9.5 -0.5h-15q-48 0 -93 3q-3 0 -3 4q1 70 2.5 138.5t2.5 137.5q-7 -1 -13 -1h-11q-11 0 -22 0.5t-26 0.5h-40zM139 293q20 1 34.5 1h25.5q18 0 27.5 -0.5t19.5 -0.5q1 20 1 39.5v39.5q0 50 -1 101t-3 102q-20 -60 -41 -118t-44 -117z" />
    <glyph glyph-name="oe" unicode="&#x153;" horiz-adv-x="353" 
d="M205 317h34t27 1t27.5 1.5t35.5 2.5q5 0 5 -4q0 -3 -3 -6t-8 -3q-20 -2 -34 -3t-26 -1.5t-25.5 -0.5h-32.5q0 -7 -0.5 -13t-0.5 -13q-2 -67 -3.5 -131.5t-2.5 -131.5q21 0 34 -0.5t21 -1t12.5 -0.5h8.5h17t11.5 0.5t12 1t17.5 1.5q7 0 7 -7q0 -2 -2 -5t-6 -3
q-10 -1 -15.5 -1.5t-10 -1t-9.5 -0.5h-15q-23 0 -45 0.5t-43 1.5q-13 -12 -38 -12q-29 0 -51.5 21.5t-38 55t-26 75t-16.5 82t-8.5 75t-2.5 55.5q0 45 7 86.5t23 77.5q8 18 19 38.5t25 38t31 28.5t37 11q9 0 18 -1t20 -6q1 1 4 1q26 0 48 -0.5t46 -0.5h17.5t9 0.5t6.5 0.5
h11q5 0 6 -1.5t1 -3.5t-1.5 -4.5t-6.5 -2.5h-8.5t-8 -0.5t-12 -0.5h-19.5q-17 0 -38.5 -0.5t-47.5 -0.5q4 -57 5 -115t1 -114v-66zM185 10q2 92 4 182t2 180q0 60 -1 121.5t-5 122.5q-7 3 -15.5 3.5t-15.5 0.5q-23 0 -42 -18t-33.5 -42.5t-24 -51t-13.5 -43.5
q-14 -65 -14 -132q0 -17 2.5 -48.5t8.5 -68.5t15.5 -75t24 -69t33 -51t43.5 -20t31 9z" />
    <glyph glyph-name="OE" unicode="&#x152;" horiz-adv-x="383" 
d="M205 317q40 0 76 1t78 4q5 0 5 -4q0 -3 -3 -6t-8 -3q-41 -4 -75 -4.5t-73 -0.5q0 -7 -0.5 -13t-0.5 -13q-2 -67 -3.5 -131.5t-2.5 -131.5q21 0 34 -0.5t21 -1t12.5 -0.5h8.5q43 0 88 3q7 0 7 -7q0 -2 -2 -5t-6 -3q-41 -3 -80 -3q-23 0 -45 0.5t-43 1.5q-13 -12 -38 -12
q-29 0 -51.5 21.5t-38 55t-26 75t-16.5 82t-8.5 75t-2.5 55.5q0 45 7 86.5t23 77.5q8 18 19 38.5t25 38t31 28.5t37 11q9 0 18 -1t20 -6q1 1 4 1q26 0 48 -0.5t46 -0.5t41.5 0.5t32.5 0.5q5 0 6 -1.5t1 -3.5t-1.5 -4.5t-6.5 -2.5q-10 0 -31.5 -0.5t-46.5 -0.5
q-17 0 -38.5 -0.5t-47.5 -0.5q4 -57 5 -115t1 -114v-66zM185 10q2 92 4 182t2 180q0 60 -1 121.5t-5 122.5q-7 3 -15.5 3.5t-15.5 0.5q-23 0 -42 -18t-33.5 -42.5t-24 -51t-13.5 -43.5q-14 -65 -14 -132q0 -17 2.5 -48.5t8.5 -68.5t15.5 -75t24 -69t33 -51t43.5 -20t31 9z
" />
    <glyph glyph-name="AE" unicode="&#xc6;" horiz-adv-x="439" 
d="M134 281q-30 -72 -60.5 -142t-54.5 -144q-3 -3 -7 -3q-7 0 -7 6q29 88 64.5 171t70.5 170q26 67 52 137.5t49 139.5q2 10 9 10q27 0 49.5 -0.5t46.5 -0.5t41.5 0.5t32.5 0.5q5 0 6 -1.5t1 -3.5t-1.5 -4.5t-6.5 -2.5q-10 0 -31.5 -0.5t-46.5 -0.5q-17 0 -38.5 -0.5
t-47.5 -0.5q4 -57 5 -115t1 -114v-66q40 0 76 1t78 4q5 0 5 -4q0 -3 -3 -6t-8 -3q-41 -4 -74.5 -4.5t-72.5 -0.5q-4 -74 -5 -145.5t-2 -143.5q21 0 34 -0.5t21 -1t12 -0.5h8q43 0 88 3q7 0 7 -7q0 -2 -2 -5t-6 -3q-41 -3 -80 -3q-48 0 -93 3q-3 0 -3 4q1 70 2.5 138.5
t2.5 137.5q-7 -1 -13 -1h-11q-11 0 -22 0.5t-26 0.5h-40zM139 293q20 1 34.5 1h25.5q18 0 27.5 -0.5t19.5 -0.5q1 20 1 39.5v39.5q0 50 -1 101t-3 102q-20 -60 -41 -118t-44 -117z" />
    <glyph glyph-name="cedilla" unicode="&#xb8;" horiz-adv-x="91" 
d="M42 -47q23 0 36 -15t13 -32q0 -14 -10 -24q-8 -8 -16.5 -13.5t-18.5 -5.5t-23 5q-6 2 -14.5 12t-8.5 16q0 7 5 7t8 -4t6.5 -9t10 -9t17.5 -4q2 0 6.5 1.5t9.5 4.5t9 8.5t4 13.5q0 26 -21 34q-2 1 -6.5 1h-6.5q-6 0 -9.5 1t-3.5 9q0 9 4 21.5t4 29.5l1 1q2 2 7 2q6 0 6 -7
q0 -16 -3.5 -25.5t-5.5 -18.5z" />
    <glyph glyph-name="ccedilla" unicode="&#xe7;" horiz-adv-x="215" 
d="M39 100q0 -15 1.5 -29.5t9.5 -28.5q8 -13 28.5 -23t40.5 -10q21 0 33.5 19t19 44.5t9 50.5t2.5 37q0 17 0.5 27t1.5 15t3 6t4 1q3 0 3.5 -2t1.5 -12q0 -25 -1 -51t-5.5 -51t-14.5 -47.5t-28 -40.5q-10 -10 -28 -10q-22 0 -45 12t-33 24q-6 9 -10 20t-4 22t-1 24t-1 27
q0 63 1 122.5t1 122.5q0 14 -0.5 42.5t-0.5 58.5q0 33 1.5 64t7.5 49q7 23 26 33.5t42 10.5q21 0 41 -7.5t34 -21.5q11 -11 14 -27.5t3 -33.5q0 -10 -0.5 -19t-0.5 -17q0 -2 -3 -4t-6 -2q-2 0 -4 1t-2 3q0 9 0.5 18t0.5 17q0 14 -2.5 27.5t-10.5 25.5q-30 25 -62 25
q-16 0 -31 -7t-27 -22q-2 -7 -3 -18.5t-2 -41.5t-1 -86v-152q0 -39 -1.5 -79t-1.5 -80v-26zM102 -47q23 0 36 -15t13 -32q0 -14 -10 -24q-8 -8 -16.5 -13.5t-18.5 -5.5t-23 5q-6 2 -14.5 12t-8.5 16q0 7 5 7t8 -4t6.5 -9t10 -9t17.5 -4q2 0 6.5 1.5t9.5 4.5t9 8.5t4 13.5
q0 26 -21 34q-2 1 -6.5 1h-6.5q-6 0 -9.5 1t-3.5 9q0 9 4 21.5t4 29.5l1 1q2 2 7 2q6 0 6 -7q0 -16 -3.5 -25.5t-5.5 -18.5z" />
    <glyph glyph-name="dagger" unicode="&#x2020;" horiz-adv-x="285" 
d="M141 -71v93.5t-0.5 104t-1 104t-1.5 93.5l-2 70t-1 71h-40.5t-28.5 0.5t-21 0.5h-18q-5 0 -7 3.5t-2 6.5q0 5 6 7h18t17 -0.5t27 -0.5h49v44t0.5 58.5t1 57.5t1.5 41q1 4 8 4q8 0 8 -6q-1 -14 -1.5 -41.5t-0.5 -58v-58v-41.5h54t52 -1q9 -2 9 -7t-3 -7.5t-6 -2.5
q-21 0 -51 0.5t-55 0.5q0 -35 1 -70t1 -70q0 -43 0.5 -94t0.5 -104t0.5 -104t0.5 -93q0 -5 -7 -5q-6 0 -8 4z" />
    <glyph glyph-name="Aacute" unicode="&#xc1;" horiz-adv-x="239" 
d="M26 37q-2 -10 -4 -20.5t-6 -19.5q-3 -3 -6 -3q-5 0 -5 5q3 11 3.5 17t2.5 16q20 94 32.5 163.5t21 123t15 94.5t14.5 80q7 32 10.5 66t16.5 63q2 3 6.5 6t6.5 3q3 0 5.5 -6t4 -14t2 -16t1.5 -12l21 -165q6 -50 12.5 -99.5t13.5 -99.5q3 -20 8.5 -43.5t8.5 -44.5
q5 -34 13 -66t10 -65q0 -4 -6 -4q-3 0 -6 3q-6 32 -10.5 62t-11.5 61q-1 4 -4.5 23t-7 41.5t-7.5 42.5l-5 25q-17 0 -29.5 -0.5t-24.5 -1.5t-25 -1.5t-30 -0.5zM68 264q27 0 52.5 1.5t53.5 1.5q0 20 -2.5 28.5t-2.5 28.5q-3 16 -6 34t-6.5 46.5t-9 71.5t-13.5 109
q-1 6 -2 14t-1 16q-6 -14 -11 -41.5t-10 -51.5q-12 -60 -19.5 -121t-19.5 -122zM172 721q7 0 7 -5q0 -4 -7 -7q2 1 -12.5 -6t-33.5 -15.5t-37 -16t-22 -7.5q-6 0 -6 4q0 3 15 11.5t34.5 17t37.5 15.5t24 9z" />
    <glyph glyph-name="Agrave" unicode="&#xc0;" horiz-adv-x="239" 
d="M26 37q-2 -10 -4 -20.5t-6 -19.5q-3 -3 -6 -3q-5 0 -5 5q3 11 3.5 17t2.5 16q20 94 32.5 163.5t21 123t15 94.5t14.5 80q7 32 10.5 66t16.5 63q2 3 6.5 6t6.5 3q3 0 5.5 -6t4 -14t2 -16t1.5 -12l21 -165q6 -50 12.5 -99.5t13.5 -99.5q3 -20 8.5 -43.5t8.5 -44.5
q5 -34 13 -66t10 -65q0 -4 -6 -4q-3 0 -6 3q-6 32 -10.5 62t-11.5 61q-1 4 -4.5 23t-7 41.5t-7.5 42.5l-5 25q-17 0 -29.5 -0.5t-24.5 -1.5t-25 -1.5t-30 -0.5zM68 264q27 0 52.5 1.5t53.5 1.5q0 20 -2.5 28.5t-2.5 28.5q-3 16 -6 34t-6.5 46.5t-9 71.5t-13.5 109
q-1 6 -2 14t-1 16q-6 -14 -11 -41.5t-10 -51.5q-12 -60 -19.5 -121t-19.5 -122zM69 723q5 -2 20 -10t34 -14q22 -8 38.5 -18t16.5 -14t-6 -4q-9 2 -27 9.5t-36.5 16.5t-32.5 17.5t-14 11.5q0 5 7 5z" />
    <glyph glyph-name="Acircumflex" unicode="&#xc2;" horiz-adv-x="239" 
d="M26 37q-2 -10 -4 -20.5t-6 -19.5q-3 -3 -6 -3q-5 0 -5 5q3 11 3.5 17t2.5 16q20 94 32.5 163.5t21 123t15 94.5t14.5 80q7 32 10.5 66t16.5 63q2 3 6.5 6t6.5 3q3 0 5.5 -6t4 -14t2 -16t1.5 -12l21 -165q6 -50 12.5 -99.5t13.5 -99.5q3 -20 8.5 -43.5t8.5 -44.5
q5 -34 13 -66t10 -65q0 -4 -6 -4q-3 0 -6 3q-6 32 -10.5 62t-11.5 61q-1 4 -4.5 23t-7 41.5t-7.5 42.5l-5 25q-17 0 -29.5 -0.5t-24.5 -1.5t-25 -1.5t-30 -0.5zM68 264q27 0 52.5 1.5t53.5 1.5q0 20 -2.5 28.5t-2.5 28.5q-3 16 -6 34t-6.5 46.5t-9 71.5t-13.5 109
q-1 6 -2 14t-1 16q-6 -14 -11 -41.5t-10 -51.5q-12 -60 -19.5 -121t-19.5 -122zM87 710q5 6 14 18.5t18 12.5q5 0 16.5 -10t23.5 -23t21.5 -24t9.5 -14q0 -7 -7 -7q-5 0 -7 2q-17 17 -28 31.5t-29 30.5q-2 -3 -4.5 -6.5t-8.5 -10.5t-16 -17.5t-26 -26.5q-3 -3 -9 -3
q-5 0 -5 5q0 4 5 10.5t11 13t12 12t9 6.5z" />
    <glyph glyph-name="Adieresis" unicode="&#xc4;" horiz-adv-x="239" 
d="M26 37q-2 -10 -4 -20.5t-6 -19.5q-3 -3 -6 -3q-5 0 -5 5q3 11 3.5 17t2.5 16q20 94 32.5 163.5t21 123t15 94.5t14.5 80q7 32 10.5 66t16.5 63q2 3 6.5 6t6.5 3q3 0 5.5 -6t4 -14t2 -16t1.5 -12l21 -165q6 -50 12.5 -99.5t13.5 -99.5q3 -20 8.5 -43.5t8.5 -44.5
q5 -34 13 -66t10 -65q0 -4 -6 -4q-3 0 -6 3q-6 32 -10.5 62t-11.5 61q-1 4 -4.5 23t-7 41.5t-7.5 42.5l-5 25q-17 0 -29.5 -0.5t-24.5 -1.5t-25 -1.5t-30 -0.5zM68 264q27 0 52.5 1.5t53.5 1.5q0 20 -2.5 28.5t-2.5 28.5q-3 16 -6 34t-6.5 46.5t-9 71.5t-13.5 109
q-1 6 -2 14t-1 16q-6 -14 -11 -41.5t-10 -51.5q-12 -60 -19.5 -121t-19.5 -122zM146 674q0 4 3 7.5t7 3.5q5 0 8 -3.5t3 -7.5q0 -11 -10 -11q-5 0 -8 3.5t-3 7.5zM72 674q0 5 3.5 8t7.5 3q11 0 11 -10q0 -5 -3.5 -8t-7.5 -3t-7.5 3t-3.5 7z" />
    <glyph glyph-name="Atilde" unicode="&#xc3;" horiz-adv-x="239" 
d="M26 37q-2 -10 -4 -20.5t-6 -19.5q-3 -3 -6 -3q-5 0 -5 5q3 11 3.5 17t2.5 16q20 94 32.5 163.5t21 123t15 94.5t14.5 80q7 32 10.5 66t16.5 63q2 3 6.5 6t6.5 3q3 0 5.5 -6t4 -14t2 -16t1.5 -12l21 -165q6 -50 12.5 -99.5t13.5 -99.5q3 -20 8.5 -43.5t8.5 -44.5
q5 -34 13 -66t10 -65q0 -4 -6 -4q-3 0 -6 3q-6 32 -10.5 62t-11.5 61q-1 4 -4.5 23t-7 41.5t-7.5 42.5l-5 25q-17 0 -29.5 -0.5t-24.5 -1.5t-25 -1.5t-30 -0.5zM68 264q27 0 52.5 1.5t53.5 1.5q0 20 -2.5 28.5t-2.5 28.5q-3 16 -6 34t-6.5 46.5t-9 71.5t-13.5 109
q-1 6 -2 14t-1 16q-6 -14 -11 -41.5t-10 -51.5q-12 -60 -19.5 -121t-19.5 -122zM60 685q0 -6 -7 -6t-7 7q0 13 13 21.5t24 8.5q17 0 30.5 -12t25.5 -18q6 -3 11 -3q7 0 15 2q8 4 11 7q3 2 4 5q3 6 9 6q5 0 5 -6t-4.5 -11t-9.5 -8q-8 -5 -15 -7t-13 -2q-14 0 -25.5 9
t-27.5 18q-8 5 -16 5q-17 0 -23 -16z" />
    <glyph glyph-name="Aring" unicode="&#xc5;" horiz-adv-x="239" 
d="M26 37q-2 -10 -4 -20.5t-6 -19.5q-3 -3 -6 -3q-5 0 -5 5q3 11 3.5 17t2.5 16q20 94 32.5 163.5t21 123t15 94.5t14.5 80q7 32 10.5 66t16.5 63q2 3 6.5 6t6.5 3q3 0 5.5 -6t4 -14t2 -16t1.5 -12l21 -165q6 -50 12.5 -99.5t13.5 -99.5q3 -20 8.5 -43.5t8.5 -44.5
q5 -34 13 -66t10 -65q0 -4 -6 -4q-3 0 -6 3q-6 32 -10.5 62t-11.5 61q-1 4 -4.5 23t-7 41.5t-7.5 42.5l-5 25q-17 0 -29.5 -0.5t-24.5 -1.5t-25 -1.5t-30 -0.5zM68 264q27 0 52.5 1.5t53.5 1.5q0 20 -2.5 28.5t-2.5 28.5q-3 16 -6 34t-6.5 46.5t-9 71.5t-13.5 109
q-1 6 -2 14t-1 16q-6 -14 -11 -41.5t-10 -51.5q-12 -60 -19.5 -121t-19.5 -122zM75 714q0 29 16.5 42t36.5 13q21 0 38.5 -14t17.5 -41q0 -26 -16 -39.5t-36 -13.5t-36.5 13t-20.5 40zM89 715q4 -23 15 -33t24 -10q14 0 26.5 11t12.5 30q0 16 -10 33q-14 12 -30 12
q-15 0 -26.5 -11.5t-11.5 -31.5z" />
    <glyph glyph-name="Ccedilla" unicode="&#xc7;" horiz-adv-x="215" 
d="M39 100q0 -15 1.5 -29.5t9.5 -28.5q8 -13 28.5 -23t40.5 -10q21 0 33.5 19t19 44.5t9 50.5t2.5 37q0 17 0.5 27t1.5 15t3 6t4 1q3 0 3.5 -2t1.5 -12q0 -25 -1 -51t-5.5 -51t-14.5 -47.5t-28 -40.5q-10 -10 -28 -10q-22 0 -45 12t-33 24q-6 9 -10 20t-4 22t-1 24t-1 27
q0 63 1 122.5t1 122.5q0 14 -0.5 42.5t-0.5 58.5q0 33 1.5 64t7.5 49q7 23 26 33.5t42 10.5q21 0 41 -7.5t34 -21.5q11 -11 14 -27.5t3 -33.5q0 -10 -0.5 -19t-0.5 -17q0 -2 -3 -4t-6 -2q-2 0 -4 1t-2 3q0 9 0.5 18t0.5 17q0 14 -2.5 27.5t-10.5 25.5q-30 25 -62 25
q-16 0 -31 -7t-27 -22q-2 -7 -3 -18.5t-2 -41.5t-1 -86v-152q0 -39 -1.5 -79t-1.5 -80v-26zM102 -47q23 0 36 -15t13 -32q0 -14 -10 -24q-8 -8 -16.5 -13.5t-18.5 -5.5t-23 5q-6 2 -14.5 12t-8.5 16q0 7 5 7t8 -4t6.5 -9t10 -9t17.5 -4q2 0 6.5 1.5t9.5 4.5t9 8.5t4 13.5
q0 26 -21 34q-2 1 -6.5 1h-6.5q-6 0 -9.5 1t-3.5 9q0 9 4 21.5t4 29.5l1 1q2 2 7 2q6 0 6 -7q0 -16 -3.5 -25.5t-5.5 -18.5z" />
    <glyph glyph-name="Eacute" unicode="&#xc9;" horiz-adv-x="224" 
d="M46 317q40 0 76 1t78 4q5 0 5 -4q0 -3 -3 -6t-8 -3q-41 -4 -75 -4.5t-73 -0.5q0 -7 -0.5 -13t-0.5 -13q-2 -67 -3.5 -131.5t-2.5 -131.5q21 0 34 -0.5t21 -1t12.5 -0.5h8.5q43 0 88 3q7 0 7 -7q0 -2 -2 -5t-6 -3q-41 -3 -80 -3q-48 0 -93 3q-3 0 -3 4q2 94 4 185t2 182
q0 60 -1 121.5t-5 122.5q1 3 3.5 6.5t7.5 3.5q26 0 48 -0.5t46 -0.5t41.5 0.5t32.5 0.5q5 0 6 -1.5t1 -3.5t-1.5 -4.5t-6.5 -2.5q-10 0 -31.5 -0.5t-46.5 -0.5q-17 0 -38.5 -0.5t-47.5 -0.5q4 -57 5 -115t1 -114v-66zM156 721q7 0 7 -5q0 -4 -7 -7q2 1 -12.5 -6t-33.5 -15.5
t-37 -16t-22 -7.5q-6 0 -6 4q0 3 15 11.5t34.5 17t37.5 15.5t24 9z" />
    <glyph glyph-name="Egrave" unicode="&#xc8;" horiz-adv-x="224" 
d="M46 317q40 0 76 1t78 4q5 0 5 -4q0 -3 -3 -6t-8 -3q-41 -4 -75 -4.5t-73 -0.5q0 -7 -0.5 -13t-0.5 -13q-2 -67 -3.5 -131.5t-2.5 -131.5q21 0 34 -0.5t21 -1t12.5 -0.5h8.5q43 0 88 3q7 0 7 -7q0 -2 -2 -5t-6 -3q-41 -3 -80 -3q-48 0 -93 3q-3 0 -3 4q2 94 4 185t2 182
q0 60 -1 121.5t-5 122.5q1 3 3.5 6.5t7.5 3.5q26 0 48 -0.5t46 -0.5t41.5 0.5t32.5 0.5q5 0 6 -1.5t1 -3.5t-1.5 -4.5t-6.5 -2.5q-10 0 -31.5 -0.5t-46.5 -0.5q-17 0 -38.5 -0.5t-47.5 -0.5q4 -57 5 -115t1 -114v-66zM53 723q5 -2 20 -10t34 -14q22 -8 38.5 -18t16.5 -14
t-6 -4q-9 2 -27 9.5t-36.5 16.5t-32.5 17.5t-14 11.5q0 5 7 5z" />
    <glyph glyph-name="Ecircumflex" unicode="&#xca;" horiz-adv-x="224" 
d="M46 317q40 0 76 1t78 4q5 0 5 -4q0 -3 -3 -6t-8 -3q-41 -4 -75 -4.5t-73 -0.5q0 -7 -0.5 -13t-0.5 -13q-2 -67 -3.5 -131.5t-2.5 -131.5q21 0 34 -0.5t21 -1t12.5 -0.5h8.5q43 0 88 3q7 0 7 -7q0 -2 -2 -5t-6 -3q-41 -3 -80 -3q-48 0 -93 3q-3 0 -3 4q2 94 4 185t2 182
q0 60 -1 121.5t-5 122.5q1 3 3.5 6.5t7.5 3.5q26 0 48 -0.5t46 -0.5t41.5 0.5t32.5 0.5q5 0 6 -1.5t1 -3.5t-1.5 -4.5t-6.5 -2.5q-10 0 -31.5 -0.5t-46.5 -0.5q-17 0 -38.5 -0.5t-47.5 -0.5q4 -57 5 -115t1 -114v-66zM71 710q5 6 14 18.5t18 12.5q5 0 16.5 -10t23.5 -23
t21.5 -24t9.5 -14q0 -7 -7 -7q-5 0 -7 2q-17 17 -28 31.5t-29 30.5q-2 -3 -4.5 -6.5t-8.5 -10.5t-16 -17.5t-26 -26.5q-3 -3 -9 -3q-5 0 -5 5q0 4 5 10.5t11 13t12 12t9 6.5z" />
    <glyph glyph-name="Edieresis" unicode="&#xcb;" horiz-adv-x="224" 
d="M46 317q40 0 76 1t78 4q5 0 5 -4q0 -3 -3 -6t-8 -3q-41 -4 -75 -4.5t-73 -0.5q0 -7 -0.5 -13t-0.5 -13q-2 -67 -3.5 -131.5t-2.5 -131.5q21 0 34 -0.5t21 -1t12.5 -0.5h8.5q43 0 88 3q7 0 7 -7q0 -2 -2 -5t-6 -3q-41 -3 -80 -3q-48 0 -93 3q-3 0 -3 4q2 94 4 185t2 182
q0 60 -1 121.5t-5 122.5q1 3 3.5 6.5t7.5 3.5q26 0 48 -0.5t46 -0.5t41.5 0.5t32.5 0.5q5 0 6 -1.5t1 -3.5t-1.5 -4.5t-6.5 -2.5q-10 0 -31.5 -0.5t-46.5 -0.5q-17 0 -38.5 -0.5t-47.5 -0.5q4 -57 5 -115t1 -114v-66zM131 674q0 4 3 7.5t7 3.5q5 0 8 -3.5t3 -7.5
q0 -11 -10 -11q-5 0 -8 3.5t-3 7.5zM57 674q0 5 3.5 8t7.5 3q11 0 11 -10q0 -5 -3.5 -8t-7.5 -3t-7.5 3t-3.5 7z" />
    <glyph glyph-name="Iacute" unicode="&#xcd;" horiz-adv-x="88" 
d="M55 0q-1 -4 -9 -4t-8 5q2 29 2 60v60q0 40 -1 79t-1 80q0 88 -1.5 174t-1.5 173q0 5 7 5t9 -4q0 -87 1 -173.5t3 -173.5q1 -42 2 -83t1 -84q0 -57 -3 -114zM99 721q7 0 7 -5q0 -4 -7 -7q2 1 -12.5 -6t-33.5 -15.5t-37 -16t-22 -7.5q-6 0 -6 4q0 3 15 11.5t34.5 17
t37.5 15.5t24 9z" />
    <glyph glyph-name="Igrave" unicode="&#xcc;" horiz-adv-x="92" 
d="M54 0q-1 -4 -9 -4t-8 5q2 29 2 60v60q0 40 -1 79t-1 80q0 88 -1.5 174t-1.5 173q0 5 7 5t9 -4q0 -87 1 -173.5t3 -173.5q1 -42 2 -83t1 -84q0 -57 -3 -114zM-5 723q5 -2 20 -10t34 -14q22 -8 38.5 -18t16.5 -14t-6 -4q-9 2 -27 9.5t-36.5 16.5t-32.5 17.5t-14 11.5
q0 5 7 5z" />
    <glyph glyph-name="Icircumflex" unicode="&#xce;" horiz-adv-x="94" 
d="M54 0q-1 -4 -9 -4t-8 5q2 29 2 60v60q0 40 -1 79t-1 80q0 88 -1.5 174t-1.5 173q0 5 7 5t9 -4q0 -87 1 -173.5t3 -173.5q1 -42 2 -83t1 -84q0 -57 -3 -114zM14 710q5 6 14 18.5t18 12.5q5 0 16.5 -10t23.5 -23t21.5 -24t9.5 -14q0 -7 -7 -7q-5 0 -7 2q-17 17 -28 31.5
t-29 30.5q-2 -3 -4.5 -6.5t-8.5 -10.5t-16 -17.5t-26 -26.5q-3 -3 -9 -3q-5 0 -5 5q0 4 5 10.5t11 13t12 12t9 6.5z" />
    <glyph glyph-name="Idieresis" unicode="&#xcf;" horiz-adv-x="95" 
d="M55 0q-1 -4 -9 -4t-8 5q2 29 2 60v60q0 40 -1 79t-1 80q0 88 -1.5 174t-1.5 173q0 5 7 5t9 -4q0 -87 1 -173.5t3 -173.5q1 -42 2 -83t1 -84q0 -57 -3 -114zM74 674q0 4 3 7.5t7 3.5q5 0 8 -3.5t3 -7.5q0 -11 -10 -11q-5 0 -8 3.5t-3 7.5zM0 674q0 5 3.5 8t7.5 3
q11 0 11 -10q0 -5 -3.5 -8t-7.5 -3t-7.5 3t-3.5 7z" />
    <glyph glyph-name="Ntilde" unicode="&#xd1;" 
d="M47 561q-1 -41 -2 -86t-1 -85q0 -92 1.5 -165t1.5 -142v-40.5t-1 -40.5q-1 -5 -8 -5t-7 6q1 44 1.5 87t0.5 87q0 37 -1 66.5t-2.5 54.5t-2.5 47.5t-1 45.5q0 40 2.5 85t3.5 86q0 12 1 24t1 25q0 8 -0.5 10.5t-0.5 4.5q1 4 8 4q5 0 9 -6q11 -45 25.5 -87t26.5 -85
q22 -78 41.5 -161t35.5 -162q4 -17 7.5 -36t11.5 -42l-2 160t-1 161q0 60 1 125t6 125q1 3 7 3q7 0 8 -4q-2 -42 -3 -82.5t-1 -81.5q0 -63 1 -129t1 -128q0 -51 -0.5 -100t-0.5 -99q0 -3 -3.5 -3.5t-4.5 -0.5q-5 0 -8 10q-4 11 -9 26l-10.5 31.5t-9.5 33t-7 30.5
q-16 79 -34.5 162.5t-41.5 160.5q-9 30 -19 60t-20 61v-11zM63 685q0 -6 -7 -6t-7 7q0 13 13 21.5t24 8.5q17 0 30.5 -12t25.5 -18q6 -3 11 -3q7 0 15 2q8 4 11 7q3 2 4 5q3 6 9 6q5 0 5 -6t-4.5 -11t-9.5 -8q-8 -5 -15 -7t-13 -2q-14 0 -25.5 9t-27.5 18q-8 5 -16 5
q-17 0 -23 -16z" />
    <glyph glyph-name="Oacute" unicode="&#xd3;" 
d="M29 493q3 19 10 43t18.5 45.5t28 36t38.5 14.5q18 0 30.5 -10.5t21.5 -26t15 -33.5l11 -33q15 -49 22 -100.5t7 -104.5q0 -45 -4.5 -90.5t-10.5 -87.5q-3 -19 -8.5 -45t-16 -49.5t-27 -40t-42.5 -16.5q-22 0 -37 14t-25.5 34t-16.5 42.5t-10 40.5q-21 94 -21 193
q0 86 17 174zM141 13q30 25 41 61t17 74q7 41 10.5 82.5t3.5 84.5q0 38 -3 76.5t-10 76.5q-3 14 -8.5 39t-15 49.5t-22.5 43.5t-30 21q-20 -3 -33.5 -17.5t-22.5 -34t-14 -40.5t-8 -37q-8 -44 -12.5 -87.5t-4.5 -87.5q0 -95 20 -190q3 -15 7.5 -31.5t11 -32.5t16.5 -29.5
t25 -21.5q5 -2 11 -2.5t8 -0.5q1 0 5 1.5t8 2.5zM174 721q7 0 7 -5q0 -4 -7 -7q2 1 -12.5 -6t-33.5 -15.5t-37 -16t-22 -7.5q-6 0 -6 4q0 3 15 11.5t34.5 17t37.5 15.5t24 9z" />
    <glyph glyph-name="Ograve" unicode="&#xd2;" 
d="M29 493q3 19 10 43t18.5 45.5t28 36t38.5 14.5q18 0 30.5 -10.5t21.5 -26t15 -33.5l11 -33q15 -49 22 -100.5t7 -104.5q0 -45 -4.5 -90.5t-10.5 -87.5q-3 -19 -8.5 -45t-16 -49.5t-27 -40t-42.5 -16.5q-22 0 -37 14t-25.5 34t-16.5 42.5t-10 40.5q-21 94 -21 193
q0 86 17 174zM141 13q30 25 41 61t17 74q7 41 10.5 82.5t3.5 84.5q0 38 -3 76.5t-10 76.5q-3 14 -8.5 39t-15 49.5t-22.5 43.5t-30 21q-20 -3 -33.5 -17.5t-22.5 -34t-14 -40.5t-8 -37q-8 -44 -12.5 -87.5t-4.5 -87.5q0 -95 20 -190q3 -15 7.5 -31.5t11 -32.5t16.5 -29.5
t25 -21.5q5 -2 11 -2.5t8 -0.5q1 0 5 1.5t8 2.5zM71 723q5 -2 20 -10t34 -14q22 -8 38.5 -18t16.5 -14t-6 -4q-9 2 -27 9.5t-36.5 16.5t-32.5 17.5t-14 11.5q0 5 7 5z" />
    <glyph glyph-name="Ocircumflex" unicode="&#xd4;" 
d="M29 493q3 19 10 43t18.5 45.5t28 36t38.5 14.5q18 0 30.5 -10.5t21.5 -26t15 -33.5l11 -33q15 -49 22 -100.5t7 -104.5q0 -45 -4.5 -90.5t-10.5 -87.5q-3 -19 -8.5 -45t-16 -49.5t-27 -40t-42.5 -16.5q-22 0 -37 14t-25.5 34t-16.5 42.5t-10 40.5q-21 94 -21 193
q0 86 17 174zM141 13q30 25 41 61t17 74q7 41 10.5 82.5t3.5 84.5q0 38 -3 76.5t-10 76.5q-3 14 -8.5 39t-15 49.5t-22.5 43.5t-30 21q-20 -3 -33.5 -17.5t-22.5 -34t-14 -40.5t-8 -37q-8 -44 -12.5 -87.5t-4.5 -87.5q0 -95 20 -190q3 -15 7.5 -31.5t11 -32.5t16.5 -29.5
t25 -21.5q5 -2 11 -2.5t8 -0.5q1 0 5 1.5t8 2.5zM89 710q5 6 14 18.5t18 12.5q5 0 16.5 -10t23.5 -23t21.5 -24t9.5 -14q0 -7 -7 -7q-5 0 -7 2q-17 17 -28 31.5t-29 30.5q-2 -3 -4.5 -6.5t-8.5 -10.5t-16 -17.5t-26 -26.5q-3 -3 -9 -3q-5 0 -5 5q0 4 5 10.5t11 13t12 12
t9 6.5z" />
    <glyph glyph-name="Odieresis" unicode="&#xd6;" 
d="M29 493q3 19 10 43t18.5 45.5t28 36t38.5 14.5q18 0 30.5 -10.5t21.5 -26t15 -33.5l11 -33q15 -49 22 -100.5t7 -104.5q0 -45 -4.5 -90.5t-10.5 -87.5q-3 -19 -8.5 -45t-16 -49.5t-27 -40t-42.5 -16.5q-22 0 -37 14t-25.5 34t-16.5 42.5t-10 40.5q-21 94 -21 193
q0 86 17 174zM141 13q30 25 41 61t17 74q7 41 10.5 82.5t3.5 84.5q0 38 -3 76.5t-10 76.5q-3 14 -8.5 39t-15 49.5t-22.5 43.5t-30 21q-20 -3 -33.5 -17.5t-22.5 -34t-14 -40.5t-8 -37q-8 -44 -12.5 -87.5t-4.5 -87.5q0 -95 20 -190q3 -15 7.5 -31.5t11 -32.5t16.5 -29.5
t25 -21.5q5 -2 11 -2.5t8 -0.5q1 0 5 1.5t8 2.5zM148 674q0 4 3 7.5t7 3.5q5 0 8 -3.5t3 -7.5q0 -11 -10 -11q-5 0 -8 3.5t-3 7.5zM74 674q0 5 3.5 8t7.5 3q11 0 11 -10q0 -5 -3.5 -8t-7.5 -3t-7.5 3t-3.5 7z" />
    <glyph glyph-name="Otilde" unicode="&#xd5;" 
d="M29 493q3 19 10 43t18.5 45.5t28 36t38.5 14.5q18 0 30.5 -10.5t21.5 -26t15 -33.5l11 -33q15 -49 22 -100.5t7 -104.5q0 -45 -4.5 -90.5t-10.5 -87.5q-3 -19 -8.5 -45t-16 -49.5t-27 -40t-42.5 -16.5q-22 0 -37 14t-25.5 34t-16.5 42.5t-10 40.5q-21 94 -21 193
q0 86 17 174zM141 13q30 25 41 61t17 74q7 41 10.5 82.5t3.5 84.5q0 38 -3 76.5t-10 76.5q-3 14 -8.5 39t-15 49.5t-22.5 43.5t-30 21q-20 -3 -33.5 -17.5t-22.5 -34t-14 -40.5t-8 -37q-8 -44 -12.5 -87.5t-4.5 -87.5q0 -95 20 -190q3 -15 7.5 -31.5t11 -32.5t16.5 -29.5
t25 -21.5q5 -2 11 -2.5t8 -0.5q1 0 5 1.5t8 2.5zM62 685q0 -6 -7 -6t-7 7q0 13 13 21.5t24 8.5q17 0 30.5 -12t25.5 -18q6 -3 11 -3q7 0 15 2q8 4 11 7q3 2 4 5q3 6 9 6q5 0 5 -6t-4.5 -11t-9.5 -8q-8 -5 -15 -7t-13 -2q-14 0 -25.5 9t-27.5 18q-8 5 -16 5q-17 0 -23 -16z
" />
    <glyph glyph-name="Uacute" unicode="&#xda;" horiz-adv-x="247" 
d="M46 222q0 -22 -0.5 -45.5t-0.5 -46.5q0 -32 8 -64t31 -48q8 -5 16 -6t16 -1q28 0 45.5 6t26.5 18t12 30t3 41q0 27 0.5 54t0.5 55q0 99 -2 203.5t-4 202.5q0 5 8 5q5 0 7 -4q3 -69 5 -140t2 -140q0 -29 0.5 -62t0.5 -62t-0.5 -57t-0.5 -57q0 -26 -4.5 -51t-21.5 -36
q-13 -8 -35.5 -14.5t-45.5 -6.5q-14 0 -25 2.5t-19 9.5q-14 13 -19 23t-11 27q-6 18 -8 39t-2 42q0 20 0.5 39t0.5 37q0 82 -2 156t-2 141v113q0 8 7 8q6 0 8 -7v-218q0 -38 2.5 -76t2.5 -76v-34zM176 721q7 0 7 -5q0 -4 -7 -7q2 1 -12.5 -6t-33.5 -15.5t-37 -16t-22 -7.5
q-6 0 -6 4q0 3 15 11.5t34.5 17t37.5 15.5t24 9z" />
    <glyph glyph-name="Ucircumflex" unicode="&#xdb;" horiz-adv-x="247" 
d="M46 222q0 -22 -0.5 -45.5t-0.5 -46.5q0 -32 8 -64t31 -48q8 -5 16 -6t16 -1q28 0 45.5 6t26.5 18t12 30t3 41q0 27 0.5 54t0.5 55q0 99 -2 203.5t-4 202.5q0 5 8 5q5 0 7 -4q3 -69 5 -140t2 -140q0 -29 0.5 -62t0.5 -62t-0.5 -57t-0.5 -57q0 -26 -4.5 -51t-21.5 -36
q-13 -8 -35.5 -14.5t-45.5 -6.5q-14 0 -25 2.5t-19 9.5q-14 13 -19 23t-11 27q-6 18 -8 39t-2 42q0 20 0.5 39t0.5 37q0 82 -2 156t-2 141v113q0 8 7 8q6 0 8 -7v-218q0 -38 2.5 -76t2.5 -76v-34zM91 710q5 6 14 18.5t18 12.5q5 0 16.5 -10t23.5 -23t21.5 -24t9.5 -14
q0 -7 -7 -7q-5 0 -7 2q-17 17 -28 31.5t-29 30.5q-2 -3 -4.5 -6.5t-8.5 -10.5t-16 -17.5t-26 -26.5q-3 -3 -9 -3q-5 0 -5 5q0 4 5 10.5t11 13t12 12t9 6.5z" />
    <glyph glyph-name="Udieresis" unicode="&#xdc;" horiz-adv-x="247" 
d="M46 222q0 -22 -0.5 -45.5t-0.5 -46.5q0 -32 8 -64t31 -48q8 -5 16 -6t16 -1q28 0 45.5 6t26.5 18t12 30t3 41q0 27 0.5 54t0.5 55q0 99 -2 203.5t-4 202.5q0 5 8 5q5 0 7 -4q3 -69 5 -140t2 -140q0 -29 0.5 -62t0.5 -62t-0.5 -57t-0.5 -57q0 -26 -4.5 -51t-21.5 -36
q-13 -8 -35.5 -14.5t-45.5 -6.5q-14 0 -25 2.5t-19 9.5q-14 13 -19 23t-11 27q-6 18 -8 39t-2 42q0 20 0.5 39t0.5 37q0 82 -2 156t-2 141v113q0 8 7 8q6 0 8 -7v-218q0 -38 2.5 -76t2.5 -76v-34zM150 674q0 4 3 7.5t7 3.5q5 0 8 -3.5t3 -7.5q0 -11 -10 -11q-5 0 -8 3.5
t-3 7.5zM76 674q0 5 3.5 8t7.5 3q11 0 11 -10q0 -5 -3.5 -8t-7.5 -3t-7.5 3t-3.5 7z" />
    <glyph glyph-name="Ugrave" unicode="&#xd9;" horiz-adv-x="247" 
d="M46 222q0 -22 -0.5 -45.5t-0.5 -46.5q0 -32 8 -64t31 -48q8 -5 16 -6t16 -1q28 0 45.5 6t26.5 18t12 30t3 41q0 27 0.5 54t0.5 55q0 99 -2 203.5t-4 202.5q0 5 8 5q5 0 7 -4q3 -69 5 -140t2 -140q0 -29 0.5 -62t0.5 -62t-0.5 -57t-0.5 -57q0 -26 -4.5 -51t-21.5 -36
q-13 -8 -35.5 -14.5t-45.5 -6.5q-14 0 -25 2.5t-19 9.5q-14 13 -19 23t-11 27q-6 18 -8 39t-2 42q0 20 0.5 39t0.5 37q0 82 -2 156t-2 141v113q0 8 7 8q6 0 8 -7v-218q0 -38 2.5 -76t2.5 -76v-34zM73 723q5 -2 20 -10t34 -14q22 -8 38.5 -18t16.5 -14t-6 -4q-9 2 -27 9.5
t-36.5 16.5t-32.5 17.5t-14 11.5q0 5 7 5z" />
    <glyph glyph-name="Ydieresis" unicode="&#x178;" horiz-adv-x="189" 
d="M167 620v2q0 1 1 2q0 5 8 5q5 0 8 -5q0 -11 -5.5 -24t-9.5 -24q-9 -37 -20 -72.5t-21 -72.5q-2 -6 -5 -18t-6.5 -24.5t-8 -24.5t-8.5 -19q0 -49 -1 -98t-1 -99q0 -35 1 -73.5t3 -72.5q-1 -5 -8 -5t-8 4q-2 33 -3 71t-1 72q0 51 1 101.5t1 101.5q-7 14 -12 31t-7 31
q-8 30 -20 61t-19 60q-3 12 -5.5 18t-4.5 11t-3.5 11t-3.5 17q-1 6 -2 11.5t-1 10.5q-1 2 -1 6.5v6.5q0 6 8 6q4 0 7 -5q0 -25 8.5 -59t20.5 -70t24.5 -70t19.5 -59q13 44 27.5 89.5t25.5 90.5q2 9 3 15t2.5 11.5t3.5 12t5 16.5zM119 674q0 4 3 7.5t7 3.5q5 0 8 -3.5t3 -7.5
q0 -11 -10 -11q-5 0 -8 3.5t-3 7.5zM45 674q0 5 3.5 8t7.5 3q11 0 11 -10q0 -5 -3.5 -8t-7.5 -3t-7.5 3t-3.5 7z" />
    <glyph glyph-name="registered" unicode="&#xae;" horiz-adv-x="407" 
d="M67 63q27 -27 63 -41.5t76 -14.5q46 0 87 18t63 62q15 32 19.5 75t4.5 85q0 21 -0.5 41.5t-0.5 37.5q0 9 -0.5 29t-0.5 43q0 22 -1 45t-5.5 45t-14 42t-25.5 36q-23 22 -56.5 35t-70.5 13q-43 0 -85.5 -16t-64.5 -48q-19 -27 -21.5 -60t-4.5 -65q-2 -29 -2 -56v-57
t0.5 -57.5t1.5 -58.5q1 -35 8 -70t30 -63zM51 566q30 30 70.5 45.5t82.5 15.5q46 0 88 -18.5t69 -57.5q21 -30 27.5 -72t6.5 -84q0 -28 -1 -49t-2 -43q0 -17 0.5 -33.5t0.5 -33.5q0 -29 -2 -58t-8 -58q-5 -23 -14 -39.5t-24 -33.5q-22 -25 -59 -38t-78 -13q-39 0 -75.5 11
t-59.5 31q-20 17 -31.5 41t-18.5 51.5t-9 58t-2 60.5q0 31 1 59t1 51q0 15 0.5 28.5t0.5 30.5q0 40 5.5 79.5t30.5 68.5zM267 94q-5 10 -7.5 16t-4.5 11.5t-4.5 11.5t-6.5 17q-8 22 -14 36t-12 26t-13 25.5t-17 34.5q-13 -1 -24 -1h-18q1 -18 1 -35v-34q0 -28 -1 -39
t-1.5 -17.5t-1.5 -15t-1 -31.5q0 -3 -3 -4t-5 -1q-8 0 -8 6q2 51 3.5 87t2.5 65t2 54.5t1.5 54.5t0.5 65v87q0 3 2 6t5 3q5 0 13 0.5t19 0.5q13 0 27.5 -1t28 -4t25 -8.5t17.5 -13.5q11 -14 13 -39.5t2 -49.5q0 -43 -3 -68t-11 -39q-10 -19 -27.5 -21t-43.5 -4
q11 -21 17.5 -35t12 -26.5t11.5 -26t16 -34.5q8 -17 11 -26.5t11 -28.5q0 -4 -3.5 -5t-6.5 -1q-1 0 -5 2zM158 283q24 3 31 3.5t9 0.5q17 0 31.5 2.5t24.5 10.5q7 6 10.5 19t5 30t2 37t0.5 40q-1 7 -1.5 16.5t-2 19t-4.5 18t-9 14.5q-11 9 -38.5 11t-65.5 2q0 -28 -0.5 -40
t-0.5 -20t-0.5 -19.5t-0.5 -38.5v-37q0 -17 -1.5 -34t-1.5 -34z" />
    <glyph glyph-name="copyright" unicode="&#xa9;" horiz-adv-x="407" 
d="M343 62q12 14 18.5 29.5t10 32t4.5 33.5t2 35q1 29 1.5 59.5t0.5 60.5t-0.5 58.5t-2.5 57.5q-2 32 -7 66t-24 61q-22 32 -61.5 48t-82.5 16q-37 0 -70.5 -11t-56.5 -33q-17 -16 -26 -37t-13 -44t-5 -47t-1 -46q0 -23 -1 -46.5t-1 -32.5q0 -17 -0.5 -37.5t-0.5 -41.5
q0 -42 4.5 -81t19.5 -71q22 -44 63 -64.5t87 -20.5q40 0 77.5 14.5t64.5 41.5zM24 506q5 23 14 40.5t24 34.5q22 25 59 37t78 12q39 0 75.5 -11t59.5 -31q19 -17 31 -41.5t19 -53t9 -59.5t2 -61q0 -31 -1 -57.5t-1 -49.5q0 -15 0.5 -31.5t0.5 -33.5q0 -40 -6.5 -78
t-31.5 -67q-30 -30 -70.5 -45.5t-82.5 -15.5q-46 0 -88 18.5t-69 57.5q-21 30 -27.5 70.5t-6.5 82.5q0 28 1 54t2 48q0 17 -0.5 33.5t-0.5 33.5q0 29 2 56.5t8 56.5zM140 130q-6 9 -10 20t-4 22t-1 24t-1 27q0 31 0.5 45t0.5 24.5t0.5 24t0.5 45.5q0 5 -0.5 19.5t-0.5 33.5
q0 22 1 42t4 28q7 23 30 33.5t46 10.5q42 0 71 -29q11 -11 14 -27.5t3 -33.5q0 -10 -0.5 -19t-0.5 -17q0 -2 -3 -4t-6 -2q-2 0 -4 1t-2 3q0 9 0.5 18t0.5 17q0 14 -2.5 27.5t-10.5 25.5q-14 12 -27.5 18.5t-30.5 6.5q-16 0 -33 -7t-29 -22q-2 -3 -3 -6.5t-2 -22t-1 -58
v-113.5q0 -20 -1 -37t-1 -49q0 -15 1 -29.5t9 -28.5q8 -13 25 -23t40 -10q22 0 35.5 11.5t20.5 27.5t9.5 33.5t2.5 29.5q0 17 0.5 27t1.5 15t2.5 6t3.5 1q3 0 4 -2t2 -12q0 -23 -1.5 -49.5t-9 -49t-24 -37.5t-46.5 -15q-32 0 -48 12t-26 24z" />
    <glyph glyph-name="R" unicode="R" horiz-adv-x="210" 
d="M79 273q-6 -2 -16 -2h-17q1 -18 1 -35v-34q0 -57 -2.5 -105t-2.5 -95q0 -3 -3 -4t-5 -1q-8 0 -8 6q6 153 8 308t2 308q0 3 2.5 3.5t4.5 2.5q5 0 13 0.5t19 0.5q13 0 27.5 -1t28 -4t25 -8t17.5 -13q11 -14 13 -39.5t2 -49.5q0 -62 -1.5 -105t-9.5 -71t-25 -42.5t-49 -18.5
q17 -45 31 -92t25 -92q6 -22 11.5 -44.5t15.5 -43.5q0 -1 -4 -3t-7 -2q-1 0 -5 2q-11 21 -16.5 44.5t-11.5 45.5q-11 45 -24 92t-30 92h-9zM58 283l33 4h1q1 0 1 0.5t1 0.5q2 0 2.5 -0.5t1.5 -0.5h12t9 2q24 8 36 27.5t14 44.5q3 20 4 40t1 42t-0.5 45t-1.5 42
q-1 7 -1.5 16.5t-2 19t-4.5 18t-9 14.5q-11 9 -35.5 11t-44.5 2h-24q0 -57 -1 -112.5t-1 -109.5v-37q0 -17 -1.5 -34t-1.5 -34z" />
    <glyph glyph-name="Scaron" unicode="&#x160;" horiz-adv-x="214" 
d="M22 138q0 6 8 6q4 0 7 -5q0 -9 -0.5 -18t-0.5 -20q0 -20 4 -38.5t18 -32.5q19 -22 42 -22q17 0 32.5 7.5t23.5 23.5q13 23 16.5 50.5t3.5 54.5q0 17 -0.5 33.5t-0.5 32.5q0 35 -13 60t-32.5 46.5t-42.5 41.5t-42 45q-14 17 -17.5 39t-3.5 44q0 18 1.5 39t3.5 38
q5 34 25.5 50.5t52.5 16.5q16 0 29 -2t22 -13q17 -20 21.5 -47t4.5 -55q0 -14 -0.5 -30.5t-0.5 -29.5q-1 -4 -8 -4q-2 0 -6 2t-4 5q0 18 0.5 30t0.5 19.5t0.5 12t0.5 9.5q0 18 -2 34.5t-8.5 29t-18.5 20t-31 7.5q-13 0 -23 -3t-22 -15q-17 -17 -20 -49.5t-3 -67.5
q0 -15 2 -29t8 -27q10 -20 26.5 -36t34.5 -33t35.5 -36.5t29.5 -45.5q10 -23 13.5 -46.5t3.5 -46.5q0 -19 -1 -37t-1 -38t-5 -40t-16 -35.5t-27.5 -25.5t-38.5 -10q-32 0 -55 23q-10 9 -15 22.5t-7.5 29t-3 31t-0.5 28.5v7zM107 677q3 6 13.5 18t43.5 45q4 4 10 4q2 0 3 -3
t1 -5q0 -5 -5 -9t-11 -9q-2 -3 -9.5 -12t-16.5 -18.5t-18 -17t-13 -7.5q-5 0 -16 10t-22.5 23t-20 24t-8.5 14q0 7 7 7q5 0 7 -2l14.5 -14.5t10.5 -13.5q5 -9 12.5 -17t17.5 -17z" />
    <glyph glyph-name="yacute" unicode="&#xfd;" horiz-adv-x="189" 
d="M167 620v2q0 1 1 2q0 5 8 5q5 0 8 -5q0 -11 -5.5 -24t-9.5 -24q-9 -37 -20 -72.5t-21 -72.5q-2 -6 -5 -18t-6.5 -24.5t-8 -24.5t-8.5 -19q0 -49 -1 -98t-1 -99q0 -35 1 -73.5t3 -72.5q-1 -5 -8 -5t-8 4q-2 33 -3 71t-1 72q0 51 1 101.5t1 101.5q-7 14 -12 31t-7 31
q-8 30 -20 61t-19 60q-3 12 -5.5 18t-4.5 11t-3.5 11t-3.5 17q-1 6 -2 11.5t-1 10.5q-1 2 -1 6.5v6.5q0 6 8 6q4 0 7 -5q0 -25 8.5 -59t20.5 -70t24.5 -70t19.5 -59q13 44 27.5 89.5t25.5 90.5q2 9 3 15t2.5 11.5t3.5 12t5 16.5zM144 721q7 0 7 -5q0 -4 -7 -7q2 1 -12.5 -6
t-33.5 -15.5t-37 -16t-22 -7.5q-6 0 -6 4q0 3 15 11.5t34.5 17t37.5 15.5t24 9z" />
    <glyph glyph-name="Yacute" unicode="&#xdd;" horiz-adv-x="189" 
d="M167 620v2q0 1 1 2q0 5 8 5q5 0 8 -5q0 -11 -5.5 -24t-9.5 -24q-9 -37 -20 -72.5t-21 -72.5q-2 -6 -5 -18t-6.5 -24.5t-8 -24.5t-8.5 -19q0 -49 -1 -98t-1 -99q0 -35 1 -73.5t3 -72.5q-1 -5 -8 -5t-8 4q-2 33 -3 71t-1 72q0 51 1 101.5t1 101.5q-7 14 -12 31t-7 31
q-8 30 -20 61t-19 60q-3 12 -5.5 18t-4.5 11t-3.5 11t-3.5 17q-1 6 -2 11.5t-1 10.5q-1 2 -1 6.5v6.5q0 6 8 6q4 0 7 -5q0 -25 8.5 -59t20.5 -70t24.5 -70t19.5 -59q13 44 27.5 89.5t25.5 90.5q2 9 3 15t2.5 11.5t3.5 12t5 16.5zM144 721q7 0 7 -5q0 -4 -7 -7q2 1 -12.5 -6
t-33.5 -15.5t-37 -16t-22 -7.5q-6 0 -6 4q0 3 15 11.5t34.5 17t37.5 15.5t24 9z" />
    <glyph glyph-name="zcaron" unicode="&#x17e;" horiz-adv-x="214" 
d="M17 6q11 48 21.5 97.5t24.5 97.5q8 29 19 57.5t19 57.5q17 60 30 118t33 115q4 15 12 31t10 33q-54 -3 -85 -3q-34 0 -51.5 1.5t-31.5 3.5q-3 0 -4.5 2.5t-1.5 4.5q0 3 6 5q19 -1 38 -1.5t37 -0.5q26 0 50 0.5t50 0.5q6 0 9 -5q0 -17 -16 -58.5t-39 -127.5
q-8 -30 -14.5 -60t-14.5 -60q-8 -29 -19.5 -57.5t-19.5 -57.5q-13 -47 -23.5 -95t-21.5 -94q16 -1 31.5 -2t32.5 -1q22 0 44 1t44 3q3 -1 6 -3t3 -4q0 -3 -6 -4q-22 -2 -44 -3t-44 -1q-20 0 -38.5 1t-38.5 3q-2 1 -4.5 1.5t-2.5 3.5zM105 677q3 6 13.5 18t43.5 45q4 4 10 4
q2 0 3 -3t1 -5q0 -5 -5 -9t-11 -9q-2 -3 -9.5 -12t-16.5 -18.5t-18 -17t-13 -7.5q-5 0 -16 10t-22.5 23t-20 24t-8.5 14q0 7 7 7q5 0 7 -2l14.5 -14.5t10.5 -13.5q5 -9 12.5 -17t17.5 -17z" />
    <glyph glyph-name="Zcaron" unicode="&#x17d;" horiz-adv-x="214" 
d="M17 6q11 48 21.5 97.5t24.5 97.5q8 29 19 57.5t19 57.5q17 60 30 118t33 115q4 15 12 31t10 33q-54 -3 -85 -3q-34 0 -51.5 1.5t-31.5 3.5q-3 0 -4.5 2.5t-1.5 4.5q0 3 6 5q19 -1 38 -1.5t37 -0.5q26 0 50 0.5t50 0.5q6 0 9 -5q0 -17 -16 -58.5t-39 -127.5
q-8 -30 -14.5 -60t-14.5 -60q-8 -29 -19.5 -57.5t-19.5 -57.5q-13 -47 -23.5 -95t-21.5 -94q16 -1 31.5 -2t32.5 -1q22 0 44 1t44 3q3 -1 6 -3t3 -4q0 -3 -6 -4q-22 -2 -44 -3t-44 -1q-20 0 -38.5 1t-38.5 3q-2 1 -4.5 1.5t-2.5 3.5zM105 677q3 6 13.5 18t43.5 45q4 4 10 4
q2 0 3 -3t1 -5q0 -5 -5 -9t-11 -9q-2 -3 -9.5 -12t-16.5 -18.5t-18 -17t-13 -7.5q-5 0 -16 10t-22.5 23t-20 24t-8.5 14q0 7 7 7q5 0 7 -2l14.5 -14.5t10.5 -13.5q5 -9 12.5 -17t17.5 -17z" />
    <glyph glyph-name="Eth" unicode="&#xd0;" horiz-adv-x="244" 
d="M35 0q-3 0 -3 3q2 76 2.5 150.5t1.5 150.5q-5 -1 -8.5 -1h-11.5q-4 4 -4 8q0 8 5 8h19v42v126.5t-2 131.5q0 8 19 8q7 0 15.5 -0.5t19.5 -0.5q17 0 32.5 -3t29.5 -16q16 -14 26 -31.5t15 -37.5t8 -40.5t6 -40.5q7 -46 10 -88.5t3 -86.5q0 -40 -3 -82q-1 -14 -2.5 -37.5
t-1.5 -38.5q0 -26 -11.5 -48.5t-30.5 -40t-42 -27.5t-45 -10q-9 0 -19.5 1t-20.5 1h-7zM56 13q8 0 13 -0.5t11 -0.5q21 0 42 10.5t37.5 27t27 36.5t11.5 40q2 48 3.5 90t1.5 83q0 38 -4 79t-8 78q-2 19 -5.5 40.5t-9.5 41t-15 35.5t-24 25q-14 8 -28.5 11t-29.5 3h-32
q3 -131 3 -261v-32h12t6 0.5t8.5 1t19.5 0.5h12.5t8 -0.5t7.5 -0.5h12q3 0 3 -8q0 -5 -4 -6q-9 0 -14.5 -0.5t-14 -0.5h-21.5h-35q-1 -74 -2 -146.5t-3 -145.5h11z" />
    <glyph glyph-name="eth" unicode="&#xf0;" horiz-adv-x="244" 
d="M35 0q-3 0 -3 3q2 76 2.5 150.5t1.5 150.5q-5 -1 -8.5 -1h-11.5q-4 4 -4 8q0 8 5 8h19v42v126.5t-2 131.5q0 8 19 8q7 0 15.5 -0.5t19.5 -0.5q17 0 32.5 -3t29.5 -16q16 -14 26 -31.5t15 -37.5t8 -40.5t6 -40.5q7 -46 10 -88.5t3 -86.5q0 -40 -3 -82q-1 -14 -2.5 -37.5
t-1.5 -38.5q0 -26 -11.5 -48.5t-30.5 -40t-42 -27.5t-45 -10q-9 0 -19.5 1t-20.5 1h-7zM56 13q8 0 13 -0.5t11 -0.5q21 0 42 10.5t37.5 27t27 36.5t11.5 40q2 48 3.5 90t1.5 83q0 38 -4 79t-8 78q-2 19 -5.5 40.5t-9.5 41t-15 35.5t-24 25q-14 8 -28.5 11t-29.5 3h-32
q3 -131 3 -261v-32h12t6 0.5t8.5 1t19.5 0.5h12.5t8 -0.5t7.5 -0.5h12q3 0 3 -8q0 -5 -4 -6q-9 0 -14.5 -0.5t-14 -0.5h-21.5h-35q-1 -74 -2 -146.5t-3 -145.5h11z" />
    <glyph glyph-name="Thorn" unicode="&#xde;" horiz-adv-x="205" 
d="M46 3q-1 -4 -8 -6q-2 0 -5 0.5t-3 4.5q-1 30 -1 63.5v63.5t-0.5 42.5t-1 21t-1 21t-0.5 42.5q0 32 1 61t4 63q1 37 1.5 64t0.5 53v50.5t0.5 30.5t1 21t0.5 21q1 7 7 7q2 0 5 -1t3 -4q0 -23 0.5 -53.5t0.5 -65.5q9 0 17.5 0.5t17.5 0.5q23 0 44 -6t38 -28
q14 -17 19.5 -40.5t5.5 -47.5q0 -11 -0.5 -21t-1.5 -20q-2 -22 -4.5 -39t-7.5 -39q-5 -23 -11 -37t-16.5 -22.5t-26 -13t-39.5 -8.5q-11 -2 -21 -2h-21q1 -24 1 -47v-45v-43t1 -42zM50 471q0 -53 -4 -101.5t-4 -101.5q0 -27 1 -42.5t1 -31.5q27 0 53.5 3t46.5 17q6 4 11 14
t9 23t6 26t2 24q2 17 3.5 37.5t1.5 37.5q0 18 -1.5 34t-7 30t-17.5 26.5t-33 21.5q-7 0 -14 1t-15 1q-10 0 -20 -0.5t-19 -0.5v-18z" />
    <glyph glyph-name="thorn" unicode="&#xfe;" horiz-adv-x="205" 
d="M46 3q-1 -4 -8 -6q-2 0 -5 0.5t-3 4.5q-1 30 -1 63.5v63.5t-0.5 42.5t-1 21t-1 21t-0.5 42.5q0 32 1 61t4 63q1 37 1.5 64t0.5 53v50.5t0.5 30.5t1 21t0.5 21q1 7 7 7q2 0 5 -1t3 -4q0 -23 0.5 -53.5t0.5 -65.5q9 0 17.5 0.5t17.5 0.5q23 0 44 -6t38 -28
q14 -17 19.5 -40.5t5.5 -47.5q0 -11 -0.5 -21t-1.5 -20q-2 -22 -4.5 -39t-7.5 -39q-5 -23 -11 -37t-16.5 -22.5t-26 -13t-39.5 -8.5q-11 -2 -21 -2h-21q1 -24 1 -47v-45v-43t1 -42zM50 471q0 -53 -4 -101.5t-4 -101.5q0 -27 1 -42.5t1 -31.5q27 0 53.5 3t46.5 17q6 4 11 14
t9 23t6 26t2 24q2 17 3.5 37.5t1.5 37.5q0 18 -1.5 34t-7 30t-17.5 26.5t-33 21.5q-7 0 -14 1t-15 1q-10 0 -20 -0.5t-19 -0.5v-18z" />
    <glyph glyph-name="asciitilde" unicode="~" horiz-adv-x="169" 
d="M120 302q8 0 13 3.5t8 7t4.5 7t4.5 3.5q7 0 7 -6q0 -7 -4.5 -11.5t-9.5 -8.5t-12.5 -6t-12.5 -2q-17 0 -30.5 13t-26.5 23q-4 2 -6 2q-15 0 -24 -12q-4 -5 -5.5 -10.5t-5.5 -5.5q-8 0 -8 6q0 4 2.5 8.5t5.5 7.5q5 5 12 11.5t24 6.5q11 0 18 -6t14 -12.5t14 -12.5t18 -6z
" />
    <glyph glyph-name="hungarumlaut" unicode="&#x2dd;" horiz-adv-x="204" 
d="M6 664q-6 0 -6 6q0 4 16.5 12.5t36.5 16.5q18 7 33 12.5t20 7.5q2 1 5 1q7 0 7 -4t-7 -7q2 1 -12.5 -6t-33.5 -15.5t-37 -16t-22 -7.5zM93 676q-2 -2 16 7.5t39 17.5q17 7 31.5 13.5t18.5 6.5q6 0 6 -5q0 -3 -16 -11.5t-35.5 -17.5t-37.5 -16t-22 -7q-7 0 -7 5q0 4 7 7z
" />
    <glyph glyph-name="uhungarumlaut" unicode="&#x171;" horiz-adv-x="280" 
d="M46 222q0 -22 -0.5 -45.5t-0.5 -46.5q0 -32 8 -64t31 -48q8 -5 16 -6t16 -1q28 0 45.5 6t26.5 18t12 30t3 41q0 27 0.5 54t0.5 55q0 99 -2 203.5t-4 202.5q0 5 8 5q5 0 7 -4q3 -69 5 -140t2 -140q0 -29 0.5 -62t0.5 -62t-0.5 -57t-0.5 -57q0 -26 -4.5 -51t-21.5 -36
q-13 -8 -35.5 -14.5t-45.5 -6.5q-14 0 -25 2.5t-19 9.5q-14 13 -19 23t-11 27q-6 18 -8 39t-2 42q0 20 0.5 39t0.5 37q0 82 -2 156t-2 141v113q0 8 7 8q6 0 8 -7v-218q0 -38 2.5 -76t2.5 -76v-34zM56 664q-6 0 -6 6q0 4 16.5 12.5t36.5 16.5q18 7 33 12.5t20 7.5q2 1 5 1
q7 0 7 -4t-7 -7q2 1 -12.5 -6t-33.5 -15.5t-37 -16t-22 -7.5zM143 676q-2 -2 16 7.5t39 17.5q17 7 31.5 13.5t18.5 6.5q6 0 6 -5q0 -3 -16 -11.5t-35.5 -17.5t-37.5 -16t-22 -7q-7 0 -7 5q0 4 7 7z" />
    <glyph glyph-name="Uhungarumlaut" unicode="&#x170;" horiz-adv-x="280" 
d="M46 222q0 -22 -0.5 -45.5t-0.5 -46.5q0 -32 8 -64t31 -48q8 -5 16 -6t16 -1q28 0 45.5 6t26.5 18t12 30t3 41q0 27 0.5 54t0.5 55q0 99 -2 203.5t-4 202.5q0 5 8 5q5 0 7 -4q3 -69 5 -140t2 -140q0 -29 0.5 -62t0.5 -62t-0.5 -57t-0.5 -57q0 -26 -4.5 -51t-21.5 -36
q-13 -8 -35.5 -14.5t-45.5 -6.5q-14 0 -25 2.5t-19 9.5q-14 13 -19 23t-11 27q-6 18 -8 39t-2 42q0 20 0.5 39t0.5 37q0 82 -2 156t-2 141v113q0 8 7 8q6 0 8 -7v-218q0 -38 2.5 -76t2.5 -76v-34zM56 664q-6 0 -6 6q0 4 16.5 12.5t36.5 16.5q18 7 33 12.5t20 7.5q2 1 5 1
q7 0 7 -4t-7 -7q2 1 -12.5 -6t-33.5 -15.5t-37 -16t-22 -7.5zM143 676q-2 -2 16 7.5t39 17.5q17 7 31.5 13.5t18.5 6.5q6 0 6 -5q0 -3 -16 -11.5t-35.5 -17.5t-37.5 -16t-22 -7q-7 0 -7 5q0 4 7 7z" />
    <glyph glyph-name="racute" unicode="&#x155;" horiz-adv-x="210" 
d="M79 273q-6 -2 -16 -2h-17q1 -18 1 -35v-34q0 -57 -2.5 -105t-2.5 -95q0 -3 -3 -4t-5 -1q-8 0 -8 6q6 153 8 309t2 309q0 3 2.5 3.5t4.5 2.5q5 0 13 0.5t19 0.5q13 0 27.5 -1t28 -4t25 -8t17.5 -13q11 -14 13 -39.5t2 -49.5q0 -62 -1.5 -105t-9.5 -71.5t-25 -43.5t-49 -19
q17 -45 31 -92t25 -92q6 -22 11.5 -44.5t15.5 -43.5q0 -1 -4 -3t-7 -2q-1 0 -5 2q-11 21 -16.5 44.5t-11.5 45.5q-11 45 -24 92t-30 92h-9zM58 283q17 2 33 2t28 4q24 8 36 27.5t14 44.5q3 20 4 40t1 42t-0.5 46t-1.5 43q-1 7 -1.5 16.5t-2 19t-4.5 18t-9 14.5
q-11 9 -35.5 11t-44.5 2h-24q0 -57 -1 -113.5t-1 -110.5v-37q0 -17 -1.5 -34t-1.5 -34zM156 721q7 0 7 -5q0 -4 -7 -7q2 1 -12.5 -6t-33.5 -15.5t-37 -16t-22 -7.5q-6 0 -6 4q0 3 15 11.5t34.5 17t37.5 15.5t24 9z" />
    <glyph glyph-name="abreve" unicode="&#x103;" horiz-adv-x="239" 
d="M26 37q-2 -10 -4 -20.5t-6 -19.5q-3 -3 -6 -3q-5 0 -5 5q3 11 3.5 17t2.5 16q20 94 32.5 163.5t21 123t15 94.5t14.5 80q7 32 10.5 66t16.5 63q2 3 6.5 6t6.5 3q3 0 5.5 -6t4 -14t2 -16t1.5 -12l21 -165q6 -50 12.5 -99.5t13.5 -99.5q3 -20 8.5 -43.5t8.5 -44.5
q5 -34 13 -66t10 -65q0 -4 -6 -4q-3 0 -6 3q-6 32 -10.5 62t-11.5 61q-1 4 -4.5 23t-7 41.5t-7.5 42.5l-5 25q-17 0 -29.5 -0.5t-24.5 -1.5t-25 -1.5t-30 -0.5zM68 264q27 0 52.5 1.5t53.5 1.5q0 20 -2.5 28.5t-2.5 28.5q-3 16 -6 34t-6.5 46.5t-9 71.5t-13.5 109
q-1 6 -2 14t-1 16q-6 -14 -11 -41.5t-10 -51.5q-12 -60 -19.5 -121t-19.5 -122zM65 724q0 7 7 7t7 -7q4 -23 16 -32t25 -9q14 0 26.5 10.5t12.5 30.5q0 6 7 6q8 0 8 -7q0 -26 -16.5 -40t-36.5 -14t-37 14.5t-19 40.5z" />
    <glyph glyph-name="cacute" unicode="&#x107;" horiz-adv-x="215" 
d="M39 100q0 -15 1.5 -29.5t9.5 -28.5q8 -13 28.5 -23t40.5 -10q21 0 33.5 19t19 44.5t9 50.5t2.5 37q0 17 0.5 27t1.5 15t3 6t4 1q3 0 3.5 -2t1.5 -12q0 -25 -1 -51t-5.5 -51t-14.5 -47.5t-28 -40.5q-10 -10 -28 -10q-22 0 -45 12t-33 24q-6 9 -10 20t-4 22t-1 24t-1 27
q0 63 1 122.5t1 122.5q0 14 -0.5 42.5t-0.5 58.5q0 33 1.5 64t7.5 49q7 23 26 33.5t42 10.5q21 0 41 -7.5t34 -21.5q11 -11 14 -27.5t3 -33.5q0 -10 -0.5 -19t-0.5 -17q0 -2 -3 -4t-6 -2q-2 0 -4 1t-2 3q0 9 0.5 18t0.5 17q0 14 -2.5 27.5t-10.5 25.5q-30 25 -62 25
q-16 0 -31 -7t-27 -22q-2 -7 -3 -18.5t-2 -41.5t-1 -86v-152q0 -39 -1.5 -79t-1.5 -80v-26zM157 721q7 0 7 -5q0 -4 -7 -7q2 1 -12.5 -6t-33.5 -15.5t-37 -16t-22 -7.5q-6 0 -6 4q0 3 15 11.5t34.5 17t37.5 15.5t24 9z" />
    <glyph glyph-name="ccaron" unicode="&#x10d;" horiz-adv-x="215" 
d="M39 100q0 -15 1.5 -29.5t9.5 -28.5q8 -13 28.5 -23t40.5 -10q21 0 33.5 19t19 44.5t9 50.5t2.5 37q0 17 0.5 27t1.5 15t3 6t4 1q3 0 3.5 -2t1.5 -12q0 -25 -1 -51t-5.5 -51t-14.5 -47.5t-28 -40.5q-10 -10 -28 -10q-22 0 -45 12t-33 24q-6 9 -10 20t-4 22t-1 24t-1 27
q0 63 1 122.5t1 122.5q0 14 -0.5 42.5t-0.5 58.5q0 33 1.5 64t7.5 49q7 23 26 33.5t42 10.5q21 0 41 -7.5t34 -21.5q11 -11 14 -27.5t3 -33.5q0 -10 -0.5 -19t-0.5 -17q0 -2 -3 -4t-6 -2q-2 0 -4 1t-2 3q0 9 0.5 18t0.5 17q0 14 -2.5 27.5t-10.5 25.5q-30 25 -62 25
q-16 0 -31 -7t-27 -22q-2 -7 -3 -18.5t-2 -41.5t-1 -86v-152q0 -39 -1.5 -79t-1.5 -80v-26zM104 677q3 6 13.5 18t43.5 45q4 4 10 4q2 0 3 -3t1 -5q0 -5 -5 -9t-11 -9q-2 -3 -9.5 -12t-16.5 -18.5t-18 -17t-13 -7.5q-5 0 -16 10t-22.5 23t-20 24t-8.5 14q0 7 7 7q5 0 7 -2
l14.5 -14.5t10.5 -13.5q5 -9 12.5 -17t17.5 -17z" />
    <glyph glyph-name="ecaron" unicode="&#x11b;" horiz-adv-x="224" 
d="M46 317q40 0 76 1t78 4q5 0 5 -4q0 -3 -3 -6t-8 -3q-41 -4 -75 -4.5t-73 -0.5q0 -7 -0.5 -13t-0.5 -13q-2 -67 -3.5 -131.5t-2.5 -131.5q21 0 34 -0.5t21 -1t12.5 -0.5h8.5q43 0 88 3q7 0 7 -7q0 -2 -2 -5t-6 -3q-41 -3 -80 -3q-48 0 -93 3q-3 0 -3 4q2 94 4 185t2 182
q0 60 -1 121.5t-5 122.5q1 3 3.5 6.5t7.5 3.5q26 0 48 -0.5t46 -0.5t41.5 0.5t32.5 0.5q5 0 6 -1.5t1 -3.5t-1.5 -4.5t-6.5 -2.5q-10 0 -31.5 -0.5t-46.5 -0.5q-17 0 -38.5 -0.5t-47.5 -0.5q4 -57 5 -115t1 -114v-66zM103 677q3 6 13.5 18t43.5 45q4 4 10 4q2 0 3 -3t1 -5
q0 -5 -5 -9t-11 -9q-2 -3 -9.5 -12t-16.5 -18.5t-18 -17t-13 -7.5q-5 0 -16 10t-22.5 23t-20 24t-8.5 14q0 7 7 7q5 0 7 -2l14.5 -14.5t10.5 -13.5q5 -9 12.5 -17t17.5 -17z" />
    <glyph glyph-name="dcaron" unicode="&#x10f;" horiz-adv-x="265" 
d="M224 499q2 18 8 34.5t8 35.5q2 14 5.5 27.5t3.5 27.5q0 6 8 6q3 0 8 -5q0 -14 -3.5 -28.5t-5.5 -28.5q-5 -23 -9 -38t-7 -32q-2 -13 -7.5 -35.5t-5.5 -36.5q-3 -4 -8 -4q-8 0 -8 5q0 6 1 15.5t3 20t4 20.5t5 16zM29 0q-3 0 -3 3q2 91 3 179t1 179v126.5t-2 131.5
q0 8 19 8q7 0 15.5 -0.5t19.5 -0.5q17 0 32.5 -3t29.5 -16q16 -14 26 -31.5t15 -37.5t8 -40.5t6 -40.5q7 -46 10 -88.5t3 -86.5q0 -40 -3 -82q-1 -14 -2.5 -37.5t-1.5 -38.5q0 -26 -11.5 -48.5t-30.5 -40t-42 -27.5t-45 -10q-9 0 -19.5 1t-20.5 1h-7zM50 13q8 0 13 -0.5
t11 -0.5q21 0 42 10.5t37.5 27t27 36.5t11.5 40q2 48 3.5 90t1.5 83q0 38 -4 79t-8 78q-2 19 -5.5 40.5t-9.5 41t-15 35.5t-24 25q-14 8 -28.5 11t-29.5 3h-32q3 -131 3 -261q0 -85 -1 -169t-4 -169h11z" />
    <glyph glyph-name="nacute" unicode="&#x144;" 
d="M47 561q-1 -41 -2 -86t-1 -85q0 -92 1.5 -165t1.5 -142v-40.5t-1 -40.5q-1 -5 -8 -5t-7 6q1 44 1.5 87t0.5 87q0 37 -1 66.5t-2.5 54.5t-2.5 47.5t-1 45.5q0 40 2.5 85t3.5 86q0 12 1 24t1 25q0 8 -0.5 10.5t-0.5 4.5q1 4 8 4q5 0 9 -6q11 -45 25.5 -87t26.5 -85
q22 -78 41.5 -161t35.5 -162q4 -17 7.5 -36t11.5 -42l-2 160t-1 161q0 60 1 125t6 125q1 3 7 3q7 0 8 -4q-2 -42 -3 -82.5t-1 -81.5q0 -63 1 -129t1 -128q0 -51 -0.5 -100t-0.5 -99q0 -3 -3.5 -3.5t-4.5 -0.5q-5 0 -8 10q-4 11 -9 26l-10.5 31.5t-9.5 33t-7 30.5
q-16 79 -34.5 162.5t-41.5 160.5q-9 30 -19 60t-20 61v-11zM175 721q7 0 7 -5q0 -4 -7 -7q2 1 -12.5 -6t-33.5 -15.5t-37 -16t-22 -7.5q-6 0 -6 4q0 3 15 11.5t34.5 17t37.5 15.5t24 9z" />
    <glyph glyph-name="ncaron" unicode="&#x148;" 
d="M47 561q-1 -41 -2 -86t-1 -85q0 -92 1.5 -165t1.5 -142v-40.5t-1 -40.5q-1 -5 -8 -5t-7 6q1 44 1.5 87t0.5 87q0 37 -1 66.5t-2.5 54.5t-2.5 47.5t-1 45.5q0 40 2.5 85t3.5 86q0 12 1 24t1 25q0 8 -0.5 10.5t-0.5 4.5q1 4 8 4q5 0 9 -6q11 -45 25.5 -87t26.5 -85
q22 -78 41.5 -161t35.5 -162q4 -17 7.5 -36t11.5 -42l-2 160t-1 161q0 60 1 125t6 125q1 3 7 3q7 0 8 -4q-2 -42 -3 -82.5t-1 -81.5q0 -63 1 -129t1 -128q0 -51 -0.5 -100t-0.5 -99q0 -3 -3.5 -3.5t-4.5 -0.5q-5 0 -8 10q-4 11 -9 26l-10.5 31.5t-9.5 33t-7 30.5
q-16 79 -34.5 162.5t-41.5 160.5q-9 30 -19 60t-20 61v-11zM122 677q3 6 13.5 18t43.5 45q4 4 10 4q2 0 3 -3t1 -5q0 -5 -5 -9t-11 -9q-2 -3 -9.5 -12t-16.5 -18.5t-18 -17t-13 -7.5q-5 0 -16 10t-22.5 23t-20 24t-8.5 14q0 7 7 7q5 0 7 -2l14.5 -14.5t10.5 -13.5
q5 -9 12.5 -17t17.5 -17z" />
    <glyph glyph-name="ohungarumlaut" unicode="&#x151;" 
d="M29 493q3 19 10 43t18.5 45.5t28 36t38.5 14.5q18 0 30.5 -10.5t21.5 -26t15 -33.5l11 -33q15 -49 22 -100.5t7 -104.5q0 -45 -4.5 -90.5t-10.5 -87.5q-3 -19 -8.5 -45t-16 -49.5t-27 -40t-42.5 -16.5q-22 0 -37 14t-25.5 34t-16.5 42.5t-10 40.5q-21 94 -21 193
q0 86 17 174zM141 13q30 25 41 61t17 74q7 41 10.5 82.5t3.5 84.5q0 38 -3 76.5t-10 76.5q-3 14 -8.5 39t-15 49.5t-22.5 43.5t-30 21q-20 -3 -33.5 -17.5t-22.5 -34t-14 -40.5t-8 -37q-8 -44 -12.5 -87.5t-4.5 -87.5q0 -95 20 -190q3 -15 7.5 -31.5t11 -32.5t16.5 -29.5
t25 -21.5q5 -2 11 -2.5t8 -0.5q1 0 5 1.5t8 2.5zM26 664q-6 0 -6 6q0 4 16.5 12.5t36.5 16.5q18 7 33 12.5t20 7.5q2 1 5 1q7 0 7 -4t-7 -7q2 1 -12.5 -6t-33.5 -15.5t-37 -16t-22 -7.5zM113 676q-2 -2 16 7.5t39 17.5q17 7 31.5 13.5t18.5 6.5q6 0 6 -5q0 -3 -16 -11.5
t-35.5 -17.5t-37.5 -16t-22 -7q-7 0 -7 5q0 4 7 7z" />
    <glyph glyph-name="rcaron" unicode="&#x159;" horiz-adv-x="210" 
d="M79 273q-6 -2 -16 -2h-17q1 -18 1 -35v-34q0 -57 -2.5 -105t-2.5 -95q0 -3 -3 -4t-5 -1q-8 0 -8 6q6 153 8 309t2 309q0 3 2.5 3.5t4.5 2.5q5 0 13 0.5t19 0.5q13 0 27.5 -1t28 -4t25 -8t17.5 -13q11 -14 13 -39.5t2 -49.5q0 -62 -1.5 -105t-9.5 -71.5t-25 -43.5t-49 -19
q17 -45 31 -92t25 -92q6 -22 11.5 -44.5t15.5 -43.5q0 -1 -4 -3t-7 -2q-1 0 -5 2q-11 21 -16.5 44.5t-11.5 45.5q-11 45 -24 92t-30 92h-9zM58 283q17 2 33 2t28 4q24 8 36 27.5t14 44.5q3 20 4 40t1 42t-0.5 46t-1.5 43q-1 7 -1.5 16.5t-2 19t-4.5 18t-9 14.5
q-11 9 -35.5 11t-44.5 2h-24q0 -57 -1 -113.5t-1 -110.5v-37q0 -17 -1.5 -34t-1.5 -34zM103 677q3 6 13.5 18t43.5 45q4 4 10 4q2 0 3 -3t1 -5q0 -5 -5 -9t-11 -9q-2 -3 -9.5 -12t-16.5 -18.5t-18 -17t-13 -7.5q-5 0 -16 10t-22.5 23t-20 24t-8.5 14q0 7 7 7q5 0 7 -2
l14.5 -14.5t10.5 -13.5q5 -9 12.5 -17t17.5 -17z" />
    <glyph glyph-name="uring" unicode="&#x16f;" horiz-adv-x="247" 
d="M46 222q0 -22 -0.5 -45.5t-0.5 -46.5q0 -32 8 -64t31 -48q8 -5 16 -6t16 -1q28 0 45.5 6t26.5 18t12 30t3 41q0 27 0.5 54t0.5 55q0 99 -2 203.5t-4 202.5q0 5 8 5q5 0 7 -4q3 -69 5 -140t2 -140q0 -29 0.5 -62t0.5 -62t-0.5 -57t-0.5 -57q0 -26 -4.5 -51t-21.5 -36
q-13 -8 -35.5 -14.5t-45.5 -6.5q-14 0 -25 2.5t-19 9.5q-14 13 -19 23t-11 27q-6 18 -8 39t-2 42q0 20 0.5 39t0.5 37q0 82 -2 156t-2 141v113q0 8 7 8q6 0 8 -7v-218q0 -38 2.5 -76t2.5 -76v-34zM69 714q0 29 16.5 42t36.5 13q21 0 38.5 -14t17.5 -41q0 -26 -16 -39.5
t-36 -13.5t-36.5 13t-20.5 40zM83 715q4 -23 15 -33t24 -10q14 0 26.5 11t12.5 30q0 16 -10 33q-14 12 -30 12q-15 0 -26.5 -11.5t-11.5 -31.5z" />
    <glyph glyph-name="zdotaccent" unicode="&#x17c;" horiz-adv-x="214" 
d="M17 6q11 48 21.5 97.5t24.5 97.5q8 29 19 57.5t19 57.5q17 60 30 118t33 115q4 15 12 31t10 33q-54 -3 -85 -3q-34 0 -51.5 1.5t-31.5 3.5q-3 0 -4.5 2.5t-1.5 4.5q0 3 6 5q19 -1 38 -1.5t37 -0.5q26 0 50 0.5t50 0.5q6 0 9 -5q0 -17 -16 -58.5t-39 -127.5
q-8 -30 -14.5 -60t-14.5 -60q-8 -29 -19.5 -57.5t-19.5 -57.5q-13 -47 -23.5 -95t-21.5 -94q16 -1 31.5 -2t32.5 -1q22 0 44 1t44 3q3 -1 6 -3t3 -4q0 -3 -6 -4q-22 -2 -44 -3t-44 -1q-20 0 -38.5 1t-38.5 3q-2 1 -4.5 1.5t-2.5 3.5zM105 664q-5 0 -7.5 3.5t-2.5 7.5t3 7.5
t7 3.5q5 0 8 -3.5t3 -7.5q0 -11 -11 -11z" />
    <glyph glyph-name="lcaron" unicode="&#x13e;" horiz-adv-x="206" 
d="M125 499q2 18 8 34.5t8 35.5q2 14 5.5 27.5t3.5 27.5q0 6 8 6q3 0 8 -5q0 -14 -3.5 -28.5t-5.5 -28.5q-5 -23 -9 -38t-7 -32q-2 -13 -7.5 -35.5t-5.5 -36.5q-3 -4 -8 -4q-8 0 -8 5q0 6 1 15.5t3 20t4 20.5t5 16zM193 16q8 -1 8 -7q0 -2 -1.5 -4.5t-6.5 -2.5
q-29 0 -54 -3.5t-52 -3.5q-13 0 -25 1.5t-26 3.5q-5 0 -5 5q0 49 -1 96.5t-3 96.5q-1 11 -1 28.5v28.5q0 21 0.5 45t1.5 64.5t2 103.5t1 162q0 2 3 4t5 2q5 0 8 -5q0 -100 -2.5 -206t-2.5 -206q0 -53 2.5 -102t2.5 -103q13 -3 24.5 -3.5t24.5 -0.5q24 0 48.5 3t48.5 3z" />
    <glyph glyph-name="tcaron" unicode="&#x165;" horiz-adv-x="239" 
d="M180 463q2 18 8 34.5t8 35.5q2 14 5.5 27.5t3.5 27.5q0 6 8 6q3 0 8 -5q0 -14 -3.5 -28.5t-5.5 -28.5q-5 -23 -9 -38t-7 -32q-2 -13 -7.5 -35.5t-5.5 -36.5q-3 -4 -8 -4q-8 0 -8 5q0 6 1 15.5t3 20t4 20.5t5 16zM116 214l-12 216q-1 14 -1.5 27t-0.5 27q0 33 1.5 65.5
t1.5 66.5q-27 0 -51.5 0.5t-42.5 0.5q-6 0 -6 4q0 5 6 7q21 0 49.5 -1t59 -1.5t59.5 -1.5t49 -1q5 -1 5.5 -2t0.5 -3t-0.5 -4t-5.5 -2q-20 0 -48.5 1.5t-58.5 1.5q0 -40 -2 -77t-2 -76q0 -25 1.5 -57t3.5 -65.5t4 -66t4 -59.5q0 -28 -0.5 -45.5t-0.5 -33.5q0 -34 0.5 -68
t0.5 -65q-1 -5 -8 -5t-8 4q0 24 -0.5 40.5t-1 27t-0.5 16.5v10v19.5t1 19.5z" />
    <glyph glyph-name="zacute" unicode="&#x17a;" horiz-adv-x="214" 
d="M17 6q11 48 21.5 97.5t24.5 97.5q8 29 19 57.5t19 57.5q17 60 30 118t33 115q4 15 12 31t10 33q-54 -3 -85 -3q-34 0 -51.5 1.5t-31.5 3.5q-3 0 -4.5 2.5t-1.5 4.5q0 3 6 5q19 -1 38 -1.5t37 -0.5q26 0 50 0.5t50 0.5q6 0 9 -5q0 -17 -16 -58.5t-39 -127.5
q-8 -30 -14.5 -60t-14.5 -60q-8 -29 -19.5 -57.5t-19.5 -57.5q-13 -47 -23.5 -95t-21.5 -94q16 -1 31.5 -2t32.5 -1q22 0 44 1t44 3q3 -1 6 -3t3 -4q0 -3 -6 -4q-22 -2 -44 -3t-44 -1q-20 0 -38.5 1t-38.5 3q-2 1 -4.5 1.5t-2.5 3.5zM158 721q7 0 7 -5q0 -4 -7 -7
q2 1 -12.5 -6t-33.5 -15.5t-37 -16t-22 -7.5q-6 0 -6 4q0 3 15 11.5t34.5 17t37.5 15.5t24 9z" />
    <glyph glyph-name="dcroat" unicode="&#x111;" horiz-adv-x="244" 
d="M35 0q-3 0 -3 3q2 76 2.5 150.5t1.5 150.5q-5 -1 -8.5 -1h-11.5q-4 4 -4 8q0 8 5 8h19v42v126.5t-2 131.5q0 8 19 8q7 0 15.5 -0.5t19.5 -0.5q17 0 32.5 -3t29.5 -16q16 -14 26 -31.5t15 -37.5t8 -40.5t6 -40.5q7 -46 10 -88.5t3 -86.5q0 -40 -3 -82q-1 -14 -2.5 -37.5
t-1.5 -38.5q0 -26 -11.5 -48.5t-30.5 -40t-42 -27.5t-45 -10q-9 0 -19.5 1t-20.5 1h-7zM56 13q8 0 13 -0.5t11 -0.5q21 0 42 10.5t37.5 27t27 36.5t11.5 40q2 48 3.5 90t1.5 83q0 38 -4 79t-8 78q-2 19 -5.5 40.5t-9.5 41t-15 35.5t-24 25q-14 8 -28.5 11t-29.5 3h-32
q3 -131 3 -261v-32h12t6 0.5t8.5 1t19.5 0.5h12.5t8 -0.5t7.5 -0.5h12q3 0 3 -8q0 -5 -4 -6q-9 0 -14.5 -0.5t-14 -0.5h-21.5h-35q-1 -74 -2 -146.5t-3 -145.5h11z" />
    <glyph glyph-name="Lslash" unicode="&#x141;" horiz-adv-x="211" 
d="M31 301l-10 -10q-3 -3 -6 -3q-8 0 -8 6q0 2 2 6l23 22q0 20 0.5 46.5t1.5 63t1.5 85.5t0.5 113q0 2 3 4t5 2q5 0 8 -5q0 -72 -1.5 -145.5t-2.5 -147.5q13 12 22 20.5t18.5 17t21 19t29.5 26.5q4 3 7 3t5 -3t2 -5t-2 -4l-12.5 -12.5l-8 -8t-8.5 -8t-14 -13.5
q-23 -21 -36.5 -34t-24.5 -22v-95q0 -53 2.5 -102t2.5 -103q13 -3 24.5 -3.5t24.5 -0.5q24 0 48.5 3t48.5 3q8 -1 8 -7q0 -2 -1.5 -4.5t-6.5 -2.5q-29 0 -54 -3.5t-52 -3.5q-13 0 -25 1.5t-26 3.5q-5 0 -5 5q0 49 -1 96.5t-3 96.5q-1 11 -1 28.5v28.5v46z" />
    <glyph glyph-name="lslash" unicode="&#x142;" horiz-adv-x="211" 
d="M31 301l-10 -10q-3 -3 -6 -3q-8 0 -8 6q0 2 2 6l23 22q0 20 0.5 46.5t1.5 63t1.5 85.5t0.5 113q0 2 3 4t5 2q5 0 8 -5q0 -72 -1.5 -145.5t-2.5 -147.5q13 12 22 20.5t18.5 17t21 19t29.5 26.5q4 3 7 3t5 -3t2 -5t-2 -4l-12.5 -12.5l-8 -8t-8.5 -8t-14 -13.5
q-23 -21 -36.5 -34t-24.5 -22v-95q0 -53 2.5 -102t2.5 -103q13 -3 24.5 -3.5t24.5 -0.5q24 0 48.5 3t48.5 3q8 -1 8 -7q0 -2 -1.5 -4.5t-6.5 -2.5q-29 0 -54 -3.5t-52 -3.5q-13 0 -25 1.5t-26 3.5q-5 0 -5 5q0 49 -1 96.5t-3 96.5q-1 11 -1 28.5v28.5v46z" />
    <glyph glyph-name="Tcaron" unicode="&#x164;" horiz-adv-x="239" 
d="M180 463q2 18 8 34.5t8 35.5q2 14 5.5 27.5t3.5 27.5q0 6 8 6q3 0 8 -5q0 -14 -3.5 -28.5t-5.5 -28.5q-5 -23 -9 -38t-7 -32q-2 -13 -7.5 -35.5t-5.5 -36.5q-3 -4 -8 -4q-8 0 -8 5q0 6 1 15.5t3 20t4 20.5t5 16zM116 214l-12 216q-1 14 -1.5 27t-0.5 27q0 33 1.5 65.5
t1.5 66.5q-27 0 -51.5 0.5t-42.5 0.5q-6 0 -6 4q0 5 6 7q21 0 49.5 -1t59 -1.5t59.5 -1.5t49 -1q5 -1 5.5 -2t0.5 -3t-0.5 -4t-5.5 -2q-20 0 -48.5 1.5t-58.5 1.5q0 -40 -2 -77t-2 -76q0 -25 1.5 -57t3.5 -65.5t4 -66t4 -59.5q0 -28 -0.5 -45.5t-0.5 -33.5q0 -34 0.5 -68
t0.5 -65q-1 -5 -8 -5t-8 4q0 24 -0.5 40.5t-1 27t-0.5 16.5v10v19.5t1 19.5z" />
    <glyph glyph-name="Zdotaccent" unicode="&#x17b;" horiz-adv-x="214" 
d="M17 6q11 48 21.5 97.5t24.5 97.5q8 29 19 57.5t19 57.5q17 60 30 118t33 115q4 15 12 31t10 33q-54 -3 -85 -3q-34 0 -51.5 1.5t-31.5 3.5q-3 0 -4.5 2.5t-1.5 4.5q0 3 6 5q19 -1 38 -1.5t37 -0.5q26 0 50 0.5t50 0.5q6 0 9 -5q0 -17 -16 -58.5t-39 -127.5
q-8 -30 -14.5 -60t-14.5 -60q-8 -29 -19.5 -57.5t-19.5 -57.5q-13 -47 -23.5 -95t-21.5 -94q16 -1 31.5 -2t32.5 -1q22 0 44 1t44 3q3 -1 6 -3t3 -4q0 -3 -6 -4q-22 -2 -44 -3t-44 -1q-20 0 -38.5 1t-38.5 3q-2 1 -4.5 1.5t-2.5 3.5zM105 664q-5 0 -7.5 3.5t-2.5 7.5t3 7.5
t7 3.5q5 0 8 -3.5t3 -7.5q0 -11 -11 -11z" />
    <glyph glyph-name="Racute" unicode="&#x154;" horiz-adv-x="210" 
d="M79 273q-6 -2 -16 -2h-17q1 -18 1 -35v-34q0 -57 -2.5 -105t-2.5 -95q0 -3 -3 -4t-5 -1q-8 0 -8 6q6 153 8 309t2 309q0 3 2.5 3.5t4.5 2.5q5 0 13 0.5t19 0.5q13 0 27.5 -1t28 -4t25 -8t17.5 -13q11 -14 13 -39.5t2 -49.5q0 -62 -1.5 -105t-9.5 -71.5t-25 -43.5t-49 -19
q17 -45 31 -92t25 -92q6 -22 11.5 -44.5t15.5 -43.5q0 -1 -4 -3t-7 -2q-1 0 -5 2q-11 21 -16.5 44.5t-11.5 45.5q-11 45 -24 92t-30 92h-9zM58 283q17 2 33 2t28 4q24 8 36 27.5t14 44.5q3 20 4 40t1 42t-0.5 46t-1.5 43q-1 7 -1.5 16.5t-2 19t-4.5 18t-9 14.5
q-11 9 -35.5 11t-44.5 2h-24q0 -57 -1 -113.5t-1 -110.5v-37q0 -17 -1.5 -34t-1.5 -34zM156 721q7 0 7 -5q0 -4 -7 -7q2 1 -12.5 -6t-33.5 -15.5t-37 -16t-22 -7.5q-6 0 -6 4q0 3 15 11.5t34.5 17t37.5 15.5t24 9z" />
    <glyph glyph-name="Dcaron" unicode="&#x10e;" horiz-adv-x="265" 
d="M224 499q2 18 8 34.5t8 35.5q2 14 5.5 27.5t3.5 27.5q0 6 8 6q3 0 8 -5q0 -14 -3.5 -28.5t-5.5 -28.5q-5 -23 -9 -38t-7 -32q-2 -13 -7.5 -35.5t-5.5 -36.5q-3 -4 -8 -4q-8 0 -8 5q0 6 1 15.5t3 20t4 20.5t5 16zM29 0q-3 0 -3 3q2 91 3 179t1 179v126.5t-2 131.5
q0 8 19 8q7 0 15.5 -0.5t19.5 -0.5q17 0 32.5 -3t29.5 -16q16 -14 26 -31.5t15 -37.5t8 -40.5t6 -40.5q7 -46 10 -88.5t3 -86.5q0 -40 -3 -82q-1 -14 -2.5 -37.5t-1.5 -38.5q0 -26 -11.5 -48.5t-30.5 -40t-42 -27.5t-45 -10q-9 0 -19.5 1t-20.5 1h-7zM50 13q8 0 13 -0.5
t11 -0.5q21 0 42 10.5t37.5 27t27 36.5t11.5 40q2 48 3.5 90t1.5 83q0 38 -4 79t-8 78q-2 19 -5.5 40.5t-9.5 41t-15 35.5t-24 25q-14 8 -28.5 11t-29.5 3h-32q3 -131 3 -261q0 -85 -1 -169t-4 -169h11z" />
    <glyph glyph-name="Dcroat" unicode="&#x110;" horiz-adv-x="244" 
d="M35 0q-3 0 -3 3q2 76 2.5 150.5t1.5 150.5q-5 -1 -8.5 -1h-11.5q-4 4 -4 8q0 8 5 8h19v42v126.5t-2 131.5q0 8 19 8q7 0 15.5 -0.5t19.5 -0.5q17 0 32.5 -3t29.5 -16q16 -14 26 -31.5t15 -37.5t8 -40.5t6 -40.5q7 -46 10 -88.5t3 -86.5q0 -40 -3 -82q-1 -14 -2.5 -37.5
t-1.5 -38.5q0 -26 -11.5 -48.5t-30.5 -40t-42 -27.5t-45 -10q-9 0 -19.5 1t-20.5 1h-7zM56 13q8 0 13 -0.5t11 -0.5q21 0 42 10.5t37.5 27t27 36.5t11.5 40q2 48 3.5 90t1.5 83q0 38 -4 79t-8 78q-2 19 -5.5 40.5t-9.5 41t-15 35.5t-24 25q-14 8 -28.5 11t-29.5 3h-32
q3 -131 3 -261v-32h12t6 0.5t8.5 1t19.5 0.5h12.5t8 -0.5t7.5 -0.5h12q3 0 3 -8q0 -5 -4 -6q-9 0 -14.5 -0.5t-14 -0.5h-21.5h-35q-1 -74 -2 -146.5t-3 -145.5h11z" />
    <glyph glyph-name="Ncaron" unicode="&#x147;" 
d="M47 561q-1 -41 -2 -86t-1 -85q0 -92 1.5 -165t1.5 -142v-40.5t-1 -40.5q-1 -5 -8 -5t-7 6q1 44 1.5 87t0.5 87q0 37 -1 66.5t-2.5 54.5t-2.5 47.5t-1 45.5q0 40 2.5 85t3.5 86q0 12 1 24t1 25q0 8 -0.5 10.5t-0.5 4.5q1 4 8 4q5 0 9 -6q11 -45 25.5 -87t26.5 -85
q22 -78 41.5 -161t35.5 -162q4 -17 7.5 -36t11.5 -42l-2 160t-1 161q0 60 1 125t6 125q1 3 7 3q7 0 8 -4q-2 -42 -3 -82.5t-1 -81.5q0 -63 1 -129t1 -128q0 -51 -0.5 -100t-0.5 -99q0 -3 -3.5 -3.5t-4.5 -0.5q-5 0 -8 10q-4 11 -9 26l-10.5 31.5t-9.5 33t-7 30.5
q-16 79 -34.5 162.5t-41.5 160.5q-9 30 -19 60t-20 61v-11zM122 677q3 6 13.5 18t43.5 45q4 4 10 4q2 0 3 -3t1 -5q0 -5 -5 -9t-11 -9q-2 -3 -9.5 -12t-16.5 -18.5t-18 -17t-13 -7.5q-5 0 -16 10t-22.5 23t-20 24t-8.5 14q0 7 7 7q5 0 7 -2l14.5 -14.5t10.5 -13.5
q5 -9 12.5 -17t17.5 -17z" />
    <glyph glyph-name="Rcaron" unicode="&#x158;" horiz-adv-x="210" 
d="M79 273q-6 -2 -16 -2h-17q1 -18 1 -35v-34q0 -57 -2.5 -105t-2.5 -95q0 -3 -3 -4t-5 -1q-8 0 -8 6q6 153 8 309t2 309q0 3 2.5 3.5t4.5 2.5q5 0 13 0.5t19 0.5q13 0 27.5 -1t28 -4t25 -8t17.5 -13q11 -14 13 -39.5t2 -49.5q0 -62 -1.5 -105t-9.5 -71.5t-25 -43.5t-49 -19
q17 -45 31 -92t25 -92q6 -22 11.5 -44.5t15.5 -43.5q0 -1 -4 -3t-7 -2q-1 0 -5 2q-11 21 -16.5 44.5t-11.5 45.5q-11 45 -24 92t-30 92h-9zM58 283q17 2 33 2t28 4q24 8 36 27.5t14 44.5q3 20 4 40t1 42t-0.5 46t-1.5 43q-1 7 -1.5 16.5t-2 19t-4.5 18t-9 14.5
q-11 9 -35.5 11t-44.5 2h-24q0 -57 -1 -113.5t-1 -110.5v-37q0 -17 -1.5 -34t-1.5 -34zM103 677q3 6 13.5 18t43.5 45q4 4 10 4q2 0 3 -3t1 -5q0 -5 -5 -9t-11 -9q-2 -3 -9.5 -12t-16.5 -18.5t-18 -17t-13 -7.5q-5 0 -16 10t-22.5 23t-20 24t-8.5 14q0 7 7 7q5 0 7 -2
l14.5 -14.5t10.5 -13.5q5 -9 12.5 -17t17.5 -17z" />
    <glyph glyph-name="Ccaron" unicode="&#x10c;" horiz-adv-x="215" 
d="M39 100q0 -15 1.5 -29.5t9.5 -28.5q8 -13 28.5 -23t40.5 -10q21 0 33.5 19t19 44.5t9 50.5t2.5 37q0 17 0.5 27t1.5 15t3 6t4 1q3 0 3.5 -2t1.5 -12q0 -25 -1 -51t-5.5 -51t-14.5 -47.5t-28 -40.5q-10 -10 -28 -10q-22 0 -45 12t-33 24q-6 9 -10 20t-4 22t-1 24t-1 27
q0 63 1 122.5t1 122.5q0 14 -0.5 42.5t-0.5 58.5q0 33 1.5 64t7.5 49q7 23 26 33.5t42 10.5q21 0 41 -7.5t34 -21.5q11 -11 14 -27.5t3 -33.5q0 -10 -0.5 -19t-0.5 -17q0 -2 -3 -4t-6 -2q-2 0 -4 1t-2 3q0 9 0.5 18t0.5 17q0 14 -2.5 27.5t-10.5 25.5q-30 25 -62 25
q-16 0 -31 -7t-27 -22q-2 -7 -3 -18.5t-2 -41.5t-1 -86v-152q0 -39 -1.5 -79t-1.5 -80v-26zM104 677q3 6 13.5 18t43.5 45q4 4 10 4q2 0 3 -3t1 -5q0 -5 -5 -9t-11 -9q-2 -3 -9.5 -12t-16.5 -18.5t-18 -17t-13 -7.5q-5 0 -16 10t-22.5 23t-20 24t-8.5 14q0 7 7 7q5 0 7 -2
l14.5 -14.5t10.5 -13.5q5 -9 12.5 -17t17.5 -17z" />
    <glyph glyph-name="Nacute" unicode="&#x143;" 
d="M47 561q-1 -41 -2 -86t-1 -85q0 -92 1.5 -165t1.5 -142v-40.5t-1 -40.5q-1 -5 -8 -5t-7 6q1 44 1.5 87t0.5 87q0 37 -1 66.5t-2.5 54.5t-2.5 47.5t-1 45.5q0 40 2.5 85t3.5 86q0 12 1 24t1 25q0 8 -0.5 10.5t-0.5 4.5q1 4 8 4q5 0 9 -6q11 -45 25.5 -87t26.5 -85
q22 -78 41.5 -161t35.5 -162q4 -17 7.5 -36t11.5 -42l-2 160t-1 161q0 60 1 125t6 125q1 3 7 3q7 0 8 -4q-2 -42 -3 -82.5t-1 -81.5q0 -63 1 -129t1 -128q0 -51 -0.5 -100t-0.5 -99q0 -3 -3.5 -3.5t-4.5 -0.5q-5 0 -8 10q-4 11 -9 26l-10.5 31.5t-9.5 33t-7 30.5
q-16 79 -34.5 162.5t-41.5 160.5q-9 30 -19 60t-20 61v-11zM175 721q7 0 7 -5q0 -4 -7 -7q2 1 -12.5 -6t-33.5 -15.5t-37 -16t-22 -7.5q-6 0 -6 4q0 3 15 11.5t34.5 17t37.5 15.5t24 9z" />
    <glyph glyph-name="sacute" unicode="&#x15b;" horiz-adv-x="214" 
d="M22 138q0 6 8 6q4 0 7 -5q0 -9 -0.5 -18t-0.5 -20q0 -20 4 -38.5t18 -32.5q19 -22 42 -22q17 0 32.5 7.5t23.5 23.5q13 23 16.5 50.5t3.5 54.5q0 17 -0.5 33.5t-0.5 32.5q0 35 -13 60t-32.5 46.5t-42.5 41.5t-42 45q-14 17 -17.5 39t-3.5 44q0 18 1.5 39t3.5 38
q5 34 25.5 50.5t52.5 16.5q16 0 29 -2t22 -13q17 -20 21.5 -47t4.5 -55q0 -14 -0.5 -30.5t-0.5 -29.5q-1 -4 -8 -4q-2 0 -6 2t-4 5q0 18 0.5 30t0.5 19.5t0.5 12t0.5 9.5q0 18 -2 34.5t-8.5 29t-18.5 20t-31 7.5q-13 0 -23 -3t-22 -15q-17 -17 -20 -49.5t-3 -67.5
q0 -15 2 -29t8 -27q10 -20 26.5 -36t34.5 -33t35.5 -36.5t29.5 -45.5q10 -23 13.5 -46.5t3.5 -46.5q0 -19 -1 -37t-1 -38t-5 -40t-16 -35.5t-27.5 -25.5t-38.5 -10q-32 0 -55 23q-10 9 -15 22.5t-7.5 29t-3 31t-0.5 28.5v7zM160 721q7 0 7 -5q0 -4 -7 -7q2 1 -12.5 -6
t-33.5 -15.5t-37 -16t-22 -7.5q-6 0 -6 4q0 3 15 11.5t34.5 17t37.5 15.5t24 9z" />
    <glyph glyph-name="Sacute" unicode="&#x15a;" horiz-adv-x="214" 
d="M22 138q0 6 8 6q4 0 7 -5q0 -9 -0.5 -18t-0.5 -20q0 -20 4 -38.5t18 -32.5q19 -22 42 -22q17 0 32.5 7.5t23.5 23.5q13 23 16.5 50.5t3.5 54.5q0 17 -0.5 33.5t-0.5 32.5q0 35 -13 60t-32.5 46.5t-42.5 41.5t-42 45q-14 17 -17.5 39t-3.5 44q0 18 1.5 39t3.5 38
q5 34 25.5 50.5t52.5 16.5q16 0 29 -2t22 -13q17 -20 21.5 -47t4.5 -55q0 -14 -0.5 -30.5t-0.5 -29.5q-1 -4 -8 -4q-2 0 -6 2t-4 5q0 18 0.5 30t0.5 19.5t0.5 12t0.5 9.5q0 18 -2 34.5t-8.5 29t-18.5 20t-31 7.5q-13 0 -23 -3t-22 -15q-17 -17 -20 -49.5t-3 -67.5
q0 -15 2 -29t8 -27q10 -20 26.5 -36t34.5 -33t35.5 -36.5t29.5 -45.5q10 -23 13.5 -46.5t3.5 -46.5q0 -19 -1 -37t-1 -38t-5 -40t-16 -35.5t-27.5 -25.5t-38.5 -10q-32 0 -55 23q-10 9 -15 22.5t-7.5 29t-3 31t-0.5 28.5v7zM160 721q7 0 7 -5q0 -4 -7 -7q2 1 -12.5 -6
t-33.5 -15.5t-37 -16t-22 -7.5q-6 0 -6 4q0 3 15 11.5t34.5 17t37.5 15.5t24 9z" />
    <glyph glyph-name="lacute" unicode="&#x13a;" horiz-adv-x="206" 
d="M193 16q8 -1 8 -7q0 -2 -1.5 -4.5t-6.5 -2.5q-29 0 -54 -3.5t-52 -3.5q-13 0 -25 1.5t-26 3.5q-5 0 -5 5q0 49 -1 96.5t-3 96.5q-1 11 -1 28.5v28.5q0 21 0.5 45t1.5 64.5t2 103.5t1 162q0 2 3 4t5 2q5 0 8 -5q0 -100 -2.5 -206t-2.5 -206q0 -53 2.5 -102t2.5 -103
q13 -3 24.5 -3.5t24.5 -0.5q24 0 48.5 3t48.5 3zM153 721q7 0 7 -5q0 -4 -7 -7q2 1 -12.5 -6t-33.5 -15.5t-37 -16t-22 -7.5q-6 0 -6 4q0 3 15 11.5t34.5 17t37.5 15.5t24 9z" />
    <glyph glyph-name="Lacute" unicode="&#x139;" horiz-adv-x="206" 
d="M193 16q8 -1 8 -7q0 -2 -1.5 -4.5t-6.5 -2.5q-29 0 -54 -3.5t-52 -3.5q-13 0 -25 1.5t-26 3.5q-5 0 -5 5q0 49 -1 96.5t-3 96.5q-1 11 -1 28.5v28.5q0 21 0.5 45t1.5 64.5t2 103.5t1 162q0 2 3 4t5 2q5 0 8 -5q0 -100 -2.5 -206t-2.5 -206q0 -53 2.5 -102t2.5 -103
q13 -3 24.5 -3.5t24.5 -0.5q24 0 48.5 3t48.5 3zM153 721q7 0 7 -5q0 -4 -7 -7q2 1 -12.5 -6t-33.5 -15.5t-37 -16t-22 -7.5q-6 0 -6 4q0 3 15 11.5t34.5 17t37.5 15.5t24 9z" />
    <glyph glyph-name="Lcaron" unicode="&#x13d;" horiz-adv-x="206" 
d="M125 499q2 18 8 34.5t8 35.5q2 14 5.5 27.5t3.5 27.5q0 6 8 6q3 0 8 -5q0 -14 -3.5 -28.5t-5.5 -28.5q-5 -23 -9 -38t-7 -32q-2 -13 -7.5 -35.5t-5.5 -36.5q-3 -4 -8 -4q-8 0 -8 5q0 6 1 15.5t3 20t4 20.5t5 16zM193 16q8 -1 8 -7q0 -2 -1.5 -4.5t-6.5 -2.5
q-29 0 -54 -3.5t-52 -3.5q-13 0 -25 1.5t-26 3.5q-5 0 -5 5q0 49 -1 96.5t-3 96.5q-1 11 -1 28.5v28.5q0 21 0.5 45t1.5 64.5t2 103.5t1 162q0 2 3 4t5 2q5 0 8 -5q0 -100 -2.5 -206t-2.5 -206q0 -53 2.5 -102t2.5 -103q13 -3 24.5 -3.5t24.5 -0.5q24 0 48.5 3t48.5 3z" />
    <glyph glyph-name="Ohungarumlaut" unicode="&#x150;" 
d="M29 493q3 19 10 43t18.5 45.5t28 36t38.5 14.5q18 0 30.5 -10.5t21.5 -26t15 -33.5l11 -33q15 -49 22 -100.5t7 -104.5q0 -45 -4.5 -90.5t-10.5 -87.5q-3 -19 -8.5 -45t-16 -49.5t-27 -40t-42.5 -16.5q-22 0 -37 14t-25.5 34t-16.5 42.5t-10 40.5q-21 94 -21 193
q0 86 17 174zM141 13q30 25 41 61t17 74q7 41 10.5 82.5t3.5 84.5q0 38 -3 76.5t-10 76.5q-3 14 -8.5 39t-15 49.5t-22.5 43.5t-30 21q-20 -3 -33.5 -17.5t-22.5 -34t-14 -40.5t-8 -37q-8 -44 -12.5 -87.5t-4.5 -87.5q0 -95 20 -190q3 -15 7.5 -31.5t11 -32.5t16.5 -29.5
t25 -21.5q5 -2 11 -2.5t8 -0.5q1 0 5 1.5t8 2.5zM26 664q-6 0 -6 6q0 4 16.5 12.5t36.5 16.5q18 7 33 12.5t20 7.5q2 1 5 1q7 0 7 -4t-7 -7q2 1 -12.5 -6t-33.5 -15.5t-37 -16t-22 -7.5zM113 676q-2 -2 16 7.5t39 17.5q17 7 31.5 13.5t18.5 6.5q6 0 6 -5q0 -3 -16 -11.5
t-35.5 -17.5t-37.5 -16t-22 -7q-7 0 -7 5q0 4 7 7z" />
    <glyph glyph-name="Uring" unicode="&#x16e;" horiz-adv-x="247" 
d="M46 222q0 -22 -0.5 -45.5t-0.5 -46.5q0 -32 8 -64t31 -48q8 -5 16 -6t16 -1q28 0 45.5 6t26.5 18t12 30t3 41q0 27 0.5 54t0.5 55q0 99 -2 203.5t-4 202.5q0 5 8 5q5 0 7 -4q3 -69 5 -140t2 -140q0 -29 0.5 -62t0.5 -62t-0.5 -57t-0.5 -57q0 -26 -4.5 -51t-21.5 -36
q-13 -8 -35.5 -14.5t-45.5 -6.5q-14 0 -25 2.5t-19 9.5q-14 13 -19 23t-11 27q-6 18 -8 39t-2 42q0 20 0.5 39t0.5 37q0 82 -2 156t-2 141v113q0 8 7 8q6 0 8 -7v-218q0 -38 2.5 -76t2.5 -76v-34zM69 714q0 29 16.5 42t36.5 13q21 0 38.5 -14t17.5 -41q0 -26 -16 -39.5
t-36 -13.5t-36.5 13t-20.5 40zM83 715q4 -23 15 -33t24 -10q14 0 26.5 11t12.5 30q0 16 -10 33q-14 12 -30 12q-15 0 -26.5 -11.5t-11.5 -31.5z" />
    <glyph glyph-name="Cacute" unicode="&#x106;" horiz-adv-x="215" 
d="M39 100q0 -15 1.5 -29.5t9.5 -28.5q8 -13 28.5 -23t40.5 -10q21 0 33.5 19t19 44.5t9 50.5t2.5 37q0 17 0.5 27t1.5 15t3 6t4 1q3 0 3.5 -2t1.5 -12q0 -25 -1 -51t-5.5 -51t-14.5 -47.5t-28 -40.5q-10 -10 -28 -10q-22 0 -45 12t-33 24q-6 9 -10 20t-4 22t-1 24t-1 27
q0 63 1 122.5t1 122.5q0 14 -0.5 42.5t-0.5 58.5q0 33 1.5 64t7.5 49q7 23 26 33.5t42 10.5q21 0 41 -7.5t34 -21.5q11 -11 14 -27.5t3 -33.5q0 -10 -0.5 -19t-0.5 -17q0 -2 -3 -4t-6 -2q-2 0 -4 1t-2 3q0 9 0.5 18t0.5 17q0 14 -2.5 27.5t-10.5 25.5q-30 25 -62 25
q-16 0 -31 -7t-27 -22q-2 -7 -3 -18.5t-2 -41.5t-1 -86v-152q0 -39 -1.5 -79t-1.5 -80v-26zM157 721q7 0 7 -5q0 -4 -7 -7q2 1 -12.5 -6t-33.5 -15.5t-37 -16t-22 -7.5q-6 0 -6 4q0 3 15 11.5t34.5 17t37.5 15.5t24 9z" />
    <glyph glyph-name="Zacute" unicode="&#x179;" horiz-adv-x="214" 
d="M17 6q11 48 21.5 97.5t24.5 97.5q8 29 19 57.5t19 57.5q17 60 30 118t33 115q4 15 12 31t10 33q-54 -3 -85 -3q-34 0 -51.5 1.5t-31.5 3.5q-3 0 -4.5 2.5t-1.5 4.5q0 3 6 5q19 -1 38 -1.5t37 -0.5q26 0 50 0.5t50 0.5q6 0 9 -5q0 -17 -16 -58.5t-39 -127.5
q-8 -30 -14.5 -60t-14.5 -60q-8 -29 -19.5 -57.5t-19.5 -57.5q-13 -47 -23.5 -95t-21.5 -94q16 -1 31.5 -2t32.5 -1q22 0 44 1t44 3q3 -1 6 -3t3 -4q0 -3 -6 -4q-22 -2 -44 -3t-44 -1q-20 0 -38.5 1t-38.5 3q-2 1 -4.5 1.5t-2.5 3.5zM158 721q7 0 7 -5q0 -4 -7 -7
q2 1 -12.5 -6t-33.5 -15.5t-37 -16t-22 -7.5q-6 0 -6 4q0 3 15 11.5t34.5 17t37.5 15.5t24 9z" />
    <glyph glyph-name="Abreve" unicode="&#x102;" horiz-adv-x="239" 
d="M26 37q-2 -10 -4 -20.5t-6 -19.5q-3 -3 -6 -3q-5 0 -5 5q3 11 3.5 17t2.5 16q20 94 32.5 163.5t21 123t15 94.5t14.5 80q7 32 10.5 66t16.5 63q2 3 6.5 6t6.5 3q3 0 5.5 -6t4 -14t2 -16t1.5 -12l21 -165q6 -50 12.5 -99.5t13.5 -99.5q3 -20 8.5 -43.5t8.5 -44.5
q5 -34 13 -66t10 -65q0 -4 -6 -4q-3 0 -6 3q-6 32 -10.5 62t-11.5 61q-1 4 -4.5 23t-7 41.5t-7.5 42.5l-5 25q-17 0 -29.5 -0.5t-24.5 -1.5t-25 -1.5t-30 -0.5zM68 264q27 0 52.5 1.5t53.5 1.5q0 20 -2.5 28.5t-2.5 28.5q-3 16 -6 34t-6.5 46.5t-9 71.5t-13.5 109
q-1 6 -2 14t-1 16q-6 -14 -11 -41.5t-10 -51.5q-12 -60 -19.5 -121t-19.5 -122zM65 724q0 7 7 7t7 -7q4 -23 16 -32t25 -9q14 0 26.5 10.5t12.5 30.5q0 6 7 6q8 0 8 -7q0 -26 -16.5 -40t-36.5 -14t-37 14.5t-19 40.5z" />
    <glyph glyph-name="ogonek" unicode="&#x2db;" horiz-adv-x="69" 
d="M0 -38q0 20 14.5 31t27.5 11q8 0 9.5 -2t1.5 -4q0 -5 -7 -5q-13 0 -22.5 -8.5t-9.5 -26.5q0 -6 7 -14.5t18 -8.5t13.5 5.5t9.5 5.5t7 -6q0 -5 -9 -11.5t-20 -6.5q-16 0 -28 11.5t-12 28.5z" />
    <glyph glyph-name="aogonek" unicode="&#x105;" horiz-adv-x="255" 
d="M26 37q-2 -10 -4 -20.5t-6 -19.5q-3 -3 -6 -3q-5 0 -5 5q3 11 3.5 17t2.5 16q20 94 32.5 163.5t21 123t15 94.5t14.5 80q7 32 10.5 66t16.5 63q2 3 6.5 6t6.5 3q3 0 5.5 -6t4 -14t2 -16t1.5 -12l21 -165q6 -50 12.5 -99.5t13.5 -99.5q3 -20 8.5 -43.5t8.5 -44.5
q5 -34 13 -66t10 -65q0 -4 -6 -4q-3 0 -6 3q-6 32 -10.5 62t-11.5 61q-1 4 -4.5 23t-7 41.5t-7.5 42.5l-5 25q-17 0 -29.5 -0.5t-24.5 -1.5t-25 -1.5t-30 -0.5zM68 264q27 0 52.5 1.5t53.5 1.5q0 20 -2.5 28.5t-2.5 28.5q-3 16 -6 34t-6.5 46.5t-9 71.5t-13.5 109
q-1 6 -2 14t-1 16q-6 -14 -11 -41.5t-10 -51.5q-12 -60 -19.5 -121t-19.5 -122zM181 -35q0 20 14.5 31t27.5 11q8 0 9.5 -2t1.5 -4q0 -5 -7 -5q-13 0 -22.5 -8.5t-9.5 -26.5q0 -6 7 -14.5t18 -8.5t13.5 5.5t9.5 5.5t7 -6q0 -5 -9 -11.5t-20 -6.5q-16 0 -28 11.5t-12 28.5z
" />
    <glyph glyph-name="Aogonek" unicode="&#x104;" horiz-adv-x="255" 
d="M26 37q-2 -10 -4 -20.5t-6 -19.5q-3 -3 -6 -3q-5 0 -5 5q3 11 3.5 17t2.5 16q20 94 32.5 163.5t21 123t15 94.5t14.5 80q7 32 10.5 66t16.5 63q2 3 6.5 6t6.5 3q3 0 5.5 -6t4 -14t2 -16t1.5 -12l21 -165q6 -50 12.5 -99.5t13.5 -99.5q3 -20 8.5 -43.5t8.5 -44.5
q5 -34 13 -66t10 -65q0 -4 -6 -4q-3 0 -6 3q-6 32 -10.5 62t-11.5 61q-1 4 -4.5 23t-7 41.5t-7.5 42.5l-5 25q-17 0 -29.5 -0.5t-24.5 -1.5t-25 -1.5t-30 -0.5zM68 264q27 0 52.5 1.5t53.5 1.5q0 20 -2.5 28.5t-2.5 28.5q-3 16 -6 34t-6.5 46.5t-9 71.5t-13.5 109
q-1 6 -2 14t-1 16q-6 -14 -11 -41.5t-10 -51.5q-12 -60 -19.5 -121t-19.5 -122zM181 -35q0 20 14.5 31t27.5 11q8 0 9.5 -2t1.5 -4q0 -5 -7 -5q-13 0 -22.5 -8.5t-9.5 -26.5q0 -6 7 -14.5t18 -8.5t13.5 5.5t9.5 5.5t7 -6q0 -5 -9 -11.5t-20 -6.5q-16 0 -28 11.5t-12 28.5z
" />
    <glyph glyph-name="eogonek" unicode="&#x119;" horiz-adv-x="235" 
d="M46 317q40 0 76 1t78 4q5 0 5 -4q0 -3 -3 -6t-8 -3q-41 -4 -75 -4.5t-73 -0.5q0 -7 -0.5 -13t-0.5 -13q-2 -67 -3.5 -131.5t-2.5 -131.5q21 0 34 -0.5t21 -1t12.5 -0.5h8.5q43 0 88 3q7 0 7 -7q0 -2 -2 -5t-6 -3q-41 -3 -80 -3q-48 0 -93 3q-3 0 -3 4q2 94 4 185t2 182
q0 60 -1 121.5t-5 122.5q1 3 3.5 6.5t7.5 3.5q26 0 48 -0.5t46 -0.5t41.5 0.5t32.5 0.5q5 0 6 -1.5t1 -3.5t-1.5 -4.5t-6.5 -2.5q-10 0 -31.5 -0.5t-46.5 -0.5q-17 0 -38.5 -0.5t-47.5 -0.5q4 -57 5 -115t1 -114v-66zM154 -30q0 20 14.5 31t27.5 11q8 0 9.5 -2t1.5 -4
q0 -5 -7 -5q-13 0 -22.5 -8.5t-9.5 -26.5q0 -6 7 -14.5t18 -8.5t13.5 5.5t9.5 5.5t7 -6q0 -5 -9 -11.5t-20 -6.5q-16 0 -28 11.5t-12 28.5z" />
    <glyph glyph-name="Eogonek" unicode="&#x118;" horiz-adv-x="235" 
d="M46 317q40 0 76 1t78 4q5 0 5 -4q0 -3 -3 -6t-8 -3q-41 -4 -75 -4.5t-73 -0.5q0 -7 -0.5 -13t-0.5 -13q-2 -67 -3.5 -131.5t-2.5 -131.5q21 0 34 -0.5t21 -1t12.5 -0.5h8.5q43 0 88 3q7 0 7 -7q0 -2 -2 -5t-6 -3q-41 -3 -80 -3q-48 0 -93 3q-3 0 -3 4q2 94 4 185t2 182
q0 60 -1 121.5t-5 122.5q1 3 3.5 6.5t7.5 3.5q26 0 48 -0.5t46 -0.5t41.5 0.5t32.5 0.5q5 0 6 -1.5t1 -3.5t-1.5 -4.5t-6.5 -2.5q-10 0 -31.5 -0.5t-46.5 -0.5q-17 0 -38.5 -0.5t-47.5 -0.5q4 -57 5 -115t1 -114v-66zM154 -30q0 20 14.5 31t27.5 11q8 0 9.5 -2t1.5 -4
q0 -5 -7 -5q-13 0 -22.5 -8.5t-9.5 -26.5q0 -6 7 -14.5t18 -8.5t13.5 5.5t9.5 5.5t7 -6q0 -5 -9 -11.5t-20 -6.5q-16 0 -28 11.5t-12 28.5z" />
    <glyph glyph-name="Ecaron" unicode="&#x11a;" horiz-adv-x="224" 
d="M46 317q40 0 76 1t78 4q5 0 5 -4q0 -3 -3 -6t-8 -3q-41 -4 -75 -4.5t-73 -0.5q0 -7 -0.5 -13t-0.5 -13q-2 -67 -3.5 -131.5t-2.5 -131.5q21 0 34 -0.5t21 -1t12.5 -0.5h8.5q43 0 88 3q7 0 7 -7q0 -2 -2 -5t-6 -3q-41 -3 -80 -3q-48 0 -93 3q-3 0 -3 4q2 94 4 185t2 182
q0 60 -1 121.5t-5 122.5q1 3 3.5 6.5t7.5 3.5q26 0 48 -0.5t46 -0.5t41.5 0.5t32.5 0.5q5 0 6 -1.5t1 -3.5t-1.5 -4.5t-6.5 -2.5q-10 0 -31.5 -0.5t-46.5 -0.5q-17 0 -38.5 -0.5t-47.5 -0.5q4 -57 5 -115t1 -114v-66zM103 677q3 6 13.5 18t43.5 45q4 4 10 4q2 0 3 -3t1 -5
q0 -5 -5 -9t-11 -9q-2 -3 -9.5 -12t-16.5 -18.5t-18 -17t-13 -7.5q-5 0 -16 10t-22.5 23t-20 24t-8.5 14q0 7 7 7q5 0 7 -2l14.5 -14.5t10.5 -13.5q5 -9 12.5 -17t17.5 -17z" />
    <glyph glyph-name="Scommaaccent" unicode="&#x218;" horiz-adv-x="214" 
d="M76 -79q8 28 12 41.5t6 19.5q3 7 10 7q4 0 5.5 -3t1.5 -5q-4 -10 -7.5 -27.5t-8.5 -31.5q-3 -10 -6 -21t-14 -37q-1 -1 -2.5 -5.5t-3.5 -5.5q-7 0 -7 6q0 13 4.5 29t9.5 33zM22 138q0 6 8 6q4 0 7 -5q0 -9 -0.5 -18t-0.5 -20q0 -20 4 -38.5t18 -32.5q19 -22 42 -22
q17 0 32.5 7.5t23.5 23.5q13 23 16.5 50.5t3.5 54.5q0 17 -0.5 33.5t-0.5 32.5q0 35 -13 60t-32.5 46.5t-42.5 41.5t-42 45q-14 17 -17.5 39t-3.5 44q0 18 1.5 38t3.5 37q0 3 -1 5t-1 4q0 4 2 6q8 29 29 40.5t49 11.5q16 0 29 -2t22 -13q17 -20 21.5 -47t4.5 -55
q0 -14 -0.5 -29.5t-0.5 -28.5q-1 -4 -8 -4q-2 0 -5 1t-3 4v37q0 16 -1 35t-4 36t-9.5 31t-17.5 21l-28 2q-16 0 -23 -1.5t-21 -11.5q-6 -8 -10 -14t-9 -14q0 -20 -2.5 -44.5t-2.5 -47.5q0 -15 2 -29t8 -27q10 -20 26.5 -36t34.5 -33t35.5 -36.5t29.5 -45.5
q10 -23 13.5 -46.5t3.5 -46.5q0 -19 -1 -37t-1 -38t-5 -40t-16 -35.5t-27.5 -25.5t-38.5 -10q-32 0 -55 23q-10 9 -15 22.5t-7.5 29t-3 31t-0.5 28.5v7z" />
    <glyph glyph-name="tcommaaccent" unicode="&#x163;" horiz-adv-x="239" 
d="M90 -147q-7 0 -7 6q0 13 4.5 29t9.5 33q8 28 12 41.5t6 19.5q3 7 10 7q4 0 5.5 -3t1.5 -5q-4 -10 -7.5 -27.5t-8.5 -31.5q-3 -10 -6 -21t-14 -37q-1 -1 -2.5 -5.5t-3.5 -5.5zM116 214l-12 216q-1 14 -1.5 27t-0.5 27q0 33 1.5 65.5t1.5 66.5q-27 0 -51.5 0.5t-42.5 0.5
q-6 0 -6 4q0 5 6 7q21 0 49.5 -1t59 -1.5t59.5 -1.5t49 -1q5 -1 5.5 -2t0.5 -3t-0.5 -4t-5.5 -2q-20 0 -48.5 1.5t-58.5 1.5q0 -40 -2 -77t-2 -76q0 -25 1.5 -57t3.5 -65.5t4 -66t4 -59.5q0 -28 -0.5 -45.5t-0.5 -33.5q0 -34 0.5 -68t0.5 -65q-1 -5 -8 -5t-8 4
q0 24 -0.5 40.5t-1 27t-0.5 16.5v10v19.5t1 19.5z" />
    <glyph glyph-name="Tcommaaccent" unicode="&#x162;" horiz-adv-x="239" 
d="M90 -147q-7 0 -7 6q0 13 4.5 29t9.5 33q8 28 12 41.5t6 19.5q3 7 10 7q4 0 5.5 -3t1.5 -5q-4 -10 -7.5 -27.5t-8.5 -31.5q-3 -10 -6 -21t-14 -37q-1 -1 -2.5 -5.5t-3.5 -5.5zM116 214l-12 216q-1 14 -1.5 27t-0.5 27q0 33 1.5 65.5t1.5 66.5q-27 0 -51.5 0.5t-42.5 0.5
q-6 0 -6 4q0 5 6 7q21 0 49.5 -1t59 -1.5t59.5 -1.5t49 -1q5 -1 5.5 -2t0.5 -3t-0.5 -4t-5.5 -2q-20 0 -48.5 1.5t-58.5 1.5q0 -40 -2 -77t-2 -76q0 -25 1.5 -57t3.5 -65.5t4 -66t4 -59.5q0 -28 -0.5 -45.5t-0.5 -33.5q0 -34 0.5 -68t0.5 -65q-1 -5 -8 -5t-8 4
q0 24 -0.5 40.5t-1 27t-0.5 16.5v10v19.5t1 19.5z" />
    <glyph glyph-name="scommaaccent" unicode="&#x219;" horiz-adv-x="214" 
d="M76 -79q8 28 12 41.5t6 19.5q3 7 10 7q4 0 5.5 -3t1.5 -5q-4 -10 -7.5 -27.5t-8.5 -31.5q-3 -10 -6 -21t-14 -37q-1 -1 -2.5 -5.5t-3.5 -5.5q-7 0 -7 6q0 13 4.5 29t9.5 33zM22 138q0 6 8 6q4 0 7 -5q0 -9 -0.5 -18t-0.5 -20q0 -20 4 -38.5t18 -32.5q19 -22 42 -22
q17 0 32.5 7.5t23.5 23.5q13 23 16.5 50.5t3.5 54.5q0 17 -0.5 33.5t-0.5 32.5q0 35 -13 60t-32.5 46.5t-42.5 41.5t-42 45q-14 17 -17.5 39t-3.5 44q0 18 1.5 38t3.5 37q0 3 -1 5t-1 4q0 4 2 6q8 29 29 40.5t49 11.5q16 0 29 -2t22 -13q17 -20 21.5 -47t4.5 -55
q0 -14 -0.5 -29.5t-0.5 -28.5q-1 -4 -8 -4q-2 0 -5 1t-3 4v37q0 16 -1 35t-4 36t-9.5 31t-17.5 21l-28 2q-16 0 -23 -1.5t-21 -11.5q-6 -8 -10 -14t-9 -14q0 -20 -2.5 -44.5t-2.5 -47.5q0 -15 2 -29t8 -27q10 -20 26.5 -36t34.5 -33t35.5 -36.5t29.5 -45.5
q10 -23 13.5 -46.5t3.5 -46.5q0 -19 -1 -37t-1 -38t-5 -40t-16 -35.5t-27.5 -25.5t-38.5 -10q-32 0 -55 23q-10 9 -15 22.5t-7.5 29t-3 31t-0.5 28.5v7z" />
    <glyph glyph-name="bracketleft" unicode="[" horiz-adv-x="111" 
d="M98 -3q-17 2 -33 2t-33 2q-6 1 -6 7q3 48 4 94.5t1 94.5q0 53 -0.5 105t-1.5 105q0 51 0.5 80.5t0.5 55.5q0 20 -0.5 39t-1.5 38q0 6 7 6q9 -1 21 -1h43q7 -1 7 -6q0 -6 -7 -6h-39t-17 1q1 -17 1 -34.5v-34.5q0 -35 -0.5 -69t-0.5 -68l2 -116t1 -116q0 -42 -1 -82t-4 -82
q17 0 30 -1t30 -3q5 -1 5 -4q0 -5 -8 -7z" />
    <glyph glyph-name="bracketright" unicode="]" horiz-adv-x="111" 
d="M12 -1q-7 1 -7 6q0 7 7 7q29 0 39 -1t17 -2q-1 17 -1 36v36q0 35 0.5 69t0.5 68q-1 58 -1.5 116t-0.5 116q0 42 0.5 82t3.5 82q-17 0 -30 -0.5t-30 -0.5q-3 0 -4 2t-1 4q0 5 8 7q17 0 33 0.5t33 0.5q6 0 6 -7q-3 -48 -3.5 -95.5t-0.5 -95.5v-105t1 -105q0 -38 -0.5 -69.5
t-0.5 -60.5q0 -22 0.5 -43.5t1.5 -41.5q0 -6 -7 -6q-9 1 -21 1h-43z" />
    <glyph glyph-name="asciicircum" unicode="^" horiz-adv-x="133" 
d="M58 630q4 2 6 2q3 0 7 -2q5 -5 13.5 -16.5t16.5 -24.5t14 -25t6 -17q-2 -6 -7 -6q-7 0 -7 8q0 -2 0.5 -3t0.5 -3q-10 20 -20 38t-23 35q-13 -16 -22 -32.5t-17 -35.5q0 -6 -7 -6t-7 7t5.5 19t13 24t15 22.5t12.5 15.5z" />
    <glyph glyph-name="braceleft" unicode="{" horiz-adv-x="180" 
d="M49 334q7 14 9 28t2 29q0 19 -2 38t-2 37q-1 12 -3 35t-2 46q0 20 2.5 37.5t9.5 25.5q8 9 21 14t27 5q19 0 29.5 -9t16 -22t6.5 -28t1 -28q0 -6 -7 -6t-7 7q0 14 -1 27.5t-5 24t-12 16.5t-23 6t-23.5 -5.5t-13 -14.5t-6 -20t-1.5 -22q0 -55 4 -93t4 -73q0 -23 -4 -37
t-9.5 -21.5t-11.5 -11t-9 -6.5q12 -8 18.5 -19t10.5 -24.5t5 -28t2 -28.5q0 -5 0.5 -9.5t0.5 -9.5q0 -26 -2.5 -53t-2.5 -53q0 -14 0.5 -28.5t4.5 -26.5t11 -19.5t21 -7.5q27 0 36.5 21.5t9.5 46.5q0 7 7 7t7 -6q0 -12 -2.5 -26t-8.5 -26t-17 -20t-27 -8t-30 7t-19 23
q-7 24 -7 61q0 32 3 65.5t3 64.5q0 35 -8 60.5t-32 31.5q-5 0 -5 4q0 3 5 6q9 3 14.5 6t11.5 10z" />
    <glyph glyph-name="braceright" unicode="}" horiz-adv-x="180" 
d="M141 313q-23 15 -29 43.5t-7 56.5q0 32 3 61.5t3 60.5q0 14 -1 29t-5 27.5t-12 20.5t-21 8q-27 0 -36.5 -21.5t-9.5 -46.5q0 -7 -7 -7t-7 6q0 12 2.5 26t9 26t18.5 20t30 8q16 0 27.5 -7t16.5 -23q7 -24 7 -61q0 -32 -3 -65.5t-3 -64.5q0 -35 10 -61.5t30 -32.5q5 0 5 -4
q0 -2 -2 -2t-4 -2q-9 -3 -14 -6t-11 -10q-7 -14 -9 -28t-2 -29q0 -42 4.5 -80t4.5 -76q0 -35 -11.5 -58.5t-48.5 -23.5q-19 0 -29.5 9t-16 22t-6.5 28t-1 28q0 6 7 6t7 -7q0 -14 1 -27.5t5 -24t12 -16.5t23 -6t23.5 5.5t13 14.5t6 20t1.5 22q0 55 -4 93t-4 73q0 23 4 37
t9.5 21.5t11.5 11t9 6.5z" />
    <glyph glyph-name="exclam" unicode="!" horiz-adv-x="77" 
d="M29 6q0 12 10 12q5 0 8 -3.5t3 -8.5q0 -3 -3 -7t-7 -4q-6 0 -8.5 4t-2.5 7zM42 192q0 -30 0.5 -61t2.5 -55q-3 -5 -8 -5q-7 0 -8 4q-1 32 -2 67.5t-1 68.5v27t1 27q1 40 2 82.5t1 99.5q0 40 -1.5 87t-1.5 89q0 8 7 8q8 0 8 -7q0 -26 0.5 -58.5t0.5 -58.5v-25.5t-1 -25.5
v-264z" />
    <glyph glyph-name="a" unicode="a" horiz-adv-x="239" 
d="M26 37q-2 -10 -4 -20.5t-6 -19.5q-3 -3 -6 -3q-5 0 -5 5q3 11 3.5 17t2.5 16q20 94 32.5 163.5t21 123t15 94.5t14.5 80q7 32 10.5 66t16.5 63q2 3 6.5 6t6.5 3q3 0 5.5 -6t4 -14t2 -16t1.5 -12l21 -165q6 -50 12.5 -99.5t13.5 -99.5q3 -20 8.5 -43.5t8.5 -44.5
q5 -34 13 -66t10 -65q0 -4 -6 -4q-3 0 -6 3q-6 32 -10.5 62t-11.5 61q-1 4 -4.5 23t-7 41.5t-7.5 42.5l-5 25q-17 0 -29.5 -0.5t-24.5 -1.5t-25 -1.5t-30 -0.5zM68 264q27 0 52.5 1.5t53.5 1.5q0 20 -2.5 28.5t-2.5 28.5q-3 16 -6 34t-6.5 46.5t-9 71.5t-13.5 109
q-1 6 -2 14t-1 16q-6 -14 -11 -41.5t-10 -51.5q-12 -60 -19.5 -121t-19.5 -122z" />
    <glyph glyph-name="b" unicode="b" horiz-adv-x="210" 
d="M35 93q0 44 -2 87t-4 88q-1 23 -1 46.5v46.5v130v63t-2 63q0 7 5 7q20 2 35.5 3t29.5 1q12 0 23.5 -2t19.5 -8q21 -15 33 -51.5t14 -78.5v-17q0 -10 -0.5 -20t-1.5 -20q-4 -25 -12 -44.5t-22 -29.5q-22 -17 -47 -20q42 -11 62 -41t20 -90q0 -9 0.5 -23t1 -28.5t1 -27
t0.5 -17.5v-3q0 -41 -10.5 -63t-29.5 -32t-46 -12t-60 -2q-2 0 -3 0.5t-2 0.5q-6 0 -6 6q0 17 1.5 33.5t2.5 33.5v21zM47 71q0 -16 -0.5 -29.5t-0.5 -29.5q34 0 58.5 3t40 13t22.5 28.5t7 50.5q0 45 -0.5 68t-1 35.5t-2 19.5t-3.5 19q-3 18 -9 32.5t-18.5 25.5t-33 17
t-52.5 8h-11v-63q1 -42 2.5 -83t1.5 -83v-32zM67 345q19 0 38 3.5t31 12.5q8 9 15 17.5t11.5 22t7 33t2.5 50.5v6q-2 38 -14.5 72.5t-33.5 51.5q-5 3 -12 3.5t-17 0.5q-14 0 -28.5 -0.5t-23.5 -1.5q1 -23 1 -45v-45q0 -45 -0.5 -90.5t-0.5 -90.5h24z" />
    <glyph glyph-name="c" unicode="c" horiz-adv-x="215" 
d="M39 100q0 -15 1.5 -29.5t9.5 -28.5q8 -13 28.5 -23t40.5 -10q21 0 33.5 19t19 44.5t9 50.5t2.5 37q0 17 0.5 27t1.5 15t3 6t4 1q3 0 3.5 -2t1.5 -12q0 -25 -1 -51t-5.5 -51t-14.5 -47.5t-28 -40.5q-10 -10 -28 -10q-22 0 -45 12t-33 24q-6 9 -10 20t-4 22t-1 24t-1 27
q0 63 1 122.5t1 122.5q0 14 -0.5 42.5t-0.5 58.5q0 33 1.5 64t7.5 49q7 23 26 33.5t42 10.5q21 0 41 -7.5t34 -21.5q11 -11 14 -27.5t3 -33.5q0 -10 -0.5 -19t-0.5 -17q0 -2 -3 -4t-6 -2q-2 0 -4 1t-2 3q0 9 0.5 18t0.5 17q0 14 -2.5 27.5t-10.5 25.5q-30 25 -62 25
q-16 0 -31 -7t-27 -22q-2 -7 -3 -18.5t-2 -41.5t-1 -86v-152q0 -39 -1.5 -79t-1.5 -80v-26z" />
    <glyph glyph-name="d" unicode="d" horiz-adv-x="238" 
d="M29 0q-3 0 -3 3q2 91 3 179t1 179v126.5t-2 131.5q0 8 19 8q7 0 15.5 -0.5t19.5 -0.5q17 0 32.5 -3t29.5 -16q16 -14 26 -31.5t15 -37.5t8 -40.5t6 -40.5q7 -46 10 -88.5t3 -86.5q0 -40 -3 -82q-1 -14 -2.5 -37.5t-1.5 -38.5q0 -26 -11.5 -48.5t-30.5 -40t-42 -27.5
t-45 -10q-9 0 -19.5 1t-20.5 1h-7zM50 13q8 0 13 -0.5t11 -0.5q21 0 42 10.5t37.5 27t27 36.5t11.5 40q2 48 3.5 90t1.5 83q0 38 -4 79t-8 78q-2 19 -5.5 40.5t-9.5 41t-15 35.5t-24 25q-14 8 -28.5 11t-29.5 3h-32q3 -131 3 -261q0 -85 -1 -169t-4 -169h11z" />
    <glyph glyph-name="e" unicode="e" horiz-adv-x="224" 
d="M46 317q40 0 76 1t78 4q5 0 5 -4q0 -3 -3 -6t-8 -3q-41 -4 -75 -4.5t-73 -0.5q0 -7 -0.5 -13t-0.5 -13q-2 -67 -3.5 -131.5t-2.5 -131.5q21 0 34 -0.5t21 -1t12.5 -0.5h8.5q43 0 88 3q7 0 7 -7q0 -2 -2 -5t-6 -3q-41 -3 -80 -3q-48 0 -93 3q-3 0 -3 4q2 94 4 185t2 182
q0 60 -1 121.5t-5 122.5q1 3 3.5 6.5t7.5 3.5q26 0 48 -0.5t46 -0.5t41.5 0.5t32.5 0.5q5 0 6 -1.5t1 -3.5t-1.5 -4.5t-6.5 -2.5q-10 0 -31.5 -0.5t-46.5 -0.5q-17 0 -38.5 -0.5t-47.5 -0.5q4 -57 5 -115t1 -114v-66z" />
    <glyph glyph-name="f" unicode="f" horiz-adv-x="207" 
d="M118 613h-40t-39 1q0 -38 1.5 -77t2.5 -77q0 -35 1 -65.5t1 -61.5q7 0 13 -0.5t11 -0.5q13 0 25 0.5t24 0.5h19.5t20.5 -1q6 -2 6 -4q0 -6 -6 -7q-1 -1 -15 -1.5t-31 -0.5q-22 0 -43 0.5t-25 1.5q-1 -78 -3 -156.5t-2 -156.5q0 -12 -9 -12q-4 0 -4 4q0 107 1 213t2 214
q0 57 -1.5 103t-1.5 88q1 3 3.5 6.5t7.5 3.5q42 -2 81.5 -2h80.5q3 -3 3 -5q0 -6 -5 -8h-79z" />
    <glyph glyph-name="g" unicode="g" horiz-adv-x="223" 
d="M195 224q0 -8 0.5 -25.5t0.5 -39.5q0 -20 -0.5 -42.5t-2.5 -42t-5.5 -34t-8.5 -19.5q-12 -13 -29.5 -19t-37.5 -6q-25 0 -47.5 11.5t-30.5 36.5q-5 17 -6.5 40t-1.5 49q0 32 1 61.5t1 46.5q0 42 1 88t1 91v44t-2 42q-1 11 -1.5 24t-0.5 25q0 10 2.5 21.5t8.5 19.5
q5 7 15.5 13.5t23 11.5t25.5 8t24 3t21 -4q20 -11 31.5 -25.5t17 -32t7 -38.5t1.5 -44v-10q-4 -4 -6 -4q-7 0 -9 5q0 22 -1.5 47t-8 45t-19 33.5t-34.5 13.5q-10 0 -22 -2.5t-23.5 -8t-20.5 -13t-13 -17.5q-7 -15 -7 -35v-9.5t0.5 -20.5t1 -43.5t1 -76.5t0.5 -120.5v-176.5
q0 -15 1 -30.5t5 -29.5q12 -15 27.5 -21t32.5 -6q34 0 61 21q8 10 9.5 63.5t1.5 131.5h-38.5t-27.5 2q-4 0 -4 5q0 3 2 6t5 3q23 -2 41.5 -1.5t41.5 -1.5q5 -3 5 -7q0 -5 -4 -6h-6z" />
    <glyph glyph-name="h" unicode="h" horiz-adv-x="238" 
d="M54 219q-1 -54 -4.5 -108t-3.5 -108q-1 -5 -8 -5q-2 0 -5 1t-3 5q0 57 3.5 115t3.5 125q0 40 -4 82t-6 81q-1 12 -1 24.5v25.5q0 42 2.5 84t5.5 83q1 4 8 4q6 0 7 -5l-4 -90t-2 -91q0 -22 0.5 -38t1 -28t1.5 -22t1 -19q38 0 74.5 -0.5t71.5 -1.5q-1 44 -2 78t-1.5 61
t-1 49t-0.5 43v29t1 30q2 4 8 4t8 -5q0 -11 -0.5 -22.5t-0.5 -22.5q0 -45 2 -90t2 -91q0 -21 0.5 -67t1.5 -102t1.5 -115.5t0.5 -107.5q-3 -5 -8 -5q-8 0 -8 6q0 78 -1 156t-1 158q-36 2 -72 2.5t-73 0.5z" />
    <glyph glyph-name="i" unicode="i" horiz-adv-x="75" 
d="M46 0q-1 -4 -9 -4t-8 5q2 29 2 60v60q0 40 -1 79t-1 80q0 88 -1.5 174t-1.5 173q0 5 7 5t9 -4q0 -87 1 -173.5t3 -173.5q1 -42 2 -83t1 -84q0 -57 -3 -114z" />
    <glyph glyph-name="j" unicode="j" horiz-adv-x="211" 
d="M185 272q0 -14 -0.5 -37t-1.5 -47.5t-2 -48t-2 -38.5q0 -18 -5.5 -36.5t-16 -34t-25.5 -25t-34 -9.5q-18 0 -37.5 7t-30.5 19q-16 17 -20.5 39.5t-4.5 46.5q0 15 0.5 29t1.5 28q1 3 8 3t8 -4q0 -12 -1.5 -25.5t-1.5 -27.5q0 -20 3.5 -38t12.5 -35q8 -14 23.5 -21.5
t32.5 -7.5q15 0 28.5 6t22.5 18q12 15 17 34t5 36q0 42 2 85t2 85q0 44 -1 81.5t-2 66.5q-2 52 -2 104t-3 104q0 2 3 4t5 2q5 0 8 -5q3 -52 4 -103.5t1 -104.5q0 -5 0.5 -20t1 -34l1 -38t0.5 -33v-25z" />
    <glyph glyph-name="k" unicode="k" horiz-adv-x="198" 
d="M83 213q-3 -11 -8.5 -26.5t-11.5 -32t-12 -32t-11 -25.5q0 -18 1 -29t1 -20q0 -12 0.5 -24t1.5 -23q-1 -5 -8 -5t-8 4q-1 23 -1 47v48q0 48 1 95.5t1 95.5q0 82 -1.5 169t-1.5 169q0 6 7 6q5 0 7 -5q0 -83 2 -170t2 -170q0 -39 -1 -77t-1 -77q8 22 14.5 45.5t11.5 37.5
q20 59 34 119t28 121q9 41 19.5 86t20.5 85q2 4 8 4t8 -5q-10 -41 -19.5 -85.5t-19.5 -85.5q-10 -44 -21 -87t-23 -87q7 -19 13.5 -41.5t12.5 -46t11.5 -46t10.5 -42.5q6 -25 12.5 -51t17.5 -49q0 -6 -8 -6q-6 0 -7 4q-9 14 -14 40.5t-16 60.5q-9 38 -19 76.5t-21 75.5z" />
    <glyph glyph-name="l" unicode="l" horiz-adv-x="206" 
d="M193 16q8 -1 8 -7q0 -2 -1.5 -4.5t-6.5 -2.5q-29 0 -54 -3.5t-52 -3.5q-13 0 -25 1.5t-26 3.5q-5 0 -5 5q0 49 -1 96.5t-3 96.5q-1 11 -1 28.5v28.5q0 21 0.5 45t1.5 64.5t2 103.5t1 162q0 2 3 4t5 2q5 0 8 -5q0 -100 -2.5 -206t-2.5 -206q0 -53 2.5 -102t2.5 -103
q13 -3 24.5 -3.5t24.5 -0.5q24 0 48.5 3t48.5 3z" />
    <glyph glyph-name="m" unicode="m" horiz-adv-x="364" 
d="M44 329q0 -83 -0.5 -164t-0.5 -162q-1 -5 -8 -5q-2 0 -5 1t-3 5q0 81 0.5 161.5t0.5 162.5q0 48 -0.5 84t-1 63t-0.5 47.5v38.5v33t1 33q2 4 8 4t8 -5q13 -59 33 -113t36 -110q14 -48 23 -103t19 -104q7 -35 15.5 -68.5t14.5 -68.5q11 70 27 141t34 142l36 142t32 141
q1 3 8 3t8 -4q2 -41 4 -81.5t3 -80.5q2 -68 2 -140v-139v-179q-1 -5 -8 -5q-2 0 -5 1t-3 5q0 59 -0.5 117.5t-0.5 118.5q0 79 -1.5 157t-3.5 157q-41 -154 -70.5 -289.5t-53.5 -262.5q-1 -5 -8 -5t-8 6q-3 19 -7.5 42.5t-10 48.5t-11 50.5t-10.5 49.5q-9 45 -16.5 88
t-18.5 87q-12 49 -29 104.5t-31 100.5v-23q0 -32 1 -65t1 -65v-93z" />
    <glyph glyph-name="n" unicode="n" 
d="M47 561q-1 -41 -2 -86t-1 -85q0 -92 1.5 -165t1.5 -142v-40.5t-1 -40.5q-1 -5 -8 -5t-7 6q1 44 1.5 87t0.5 87q0 37 -1 66.5t-2.5 54.5t-2.5 47.5t-1 45.5q0 40 2.5 85t3.5 86q0 12 1 24t1 25q0 8 -0.5 10.5t-0.5 4.5q1 4 8 4q5 0 9 -6q11 -45 25.5 -87t26.5 -85
q22 -78 41.5 -161t35.5 -162q4 -17 7.5 -36t11.5 -42l-2 160t-1 161q0 60 1 125t6 125q1 3 7 3q7 0 8 -4q-2 -42 -3 -82.5t-1 -81.5q0 -63 1 -129t1 -128q0 -51 -0.5 -100t-0.5 -99q0 -3 -3.5 -3.5t-4.5 -0.5q-5 0 -8 10q-4 11 -9 26l-10.5 31.5t-9.5 33t-7 30.5
q-16 79 -34.5 162.5t-41.5 160.5q-9 30 -19 60t-20 61v-11z" />
    <glyph glyph-name="o" unicode="o" horiz-adv-x="257" 
d="M36 493q3 19 10 43t18.5 45.5t28 36t38.5 14.5q18 0 30.5 -10.5t21.5 -26t15 -33.5l11 -33q15 -49 22 -100.5t7 -104.5q0 -45 -4.5 -90.5t-10.5 -87.5q-3 -19 -8.5 -45t-16 -49.5t-27 -40t-42.5 -16.5q-22 0 -37 14t-25.5 34t-16.5 42.5t-10 40.5q-21 94 -21 193
q0 86 17 174zM148 13q30 25 41 61t17 74q7 41 10.5 82.5t3.5 84.5q0 38 -3 76.5t-10 76.5q-3 14 -8.5 39t-15 49.5t-22.5 43.5t-30 21q-20 -3 -33.5 -17.5t-22.5 -34t-14 -40.5t-8 -37q-8 -44 -12.5 -87.5t-4.5 -87.5q0 -95 20 -190q3 -15 7.5 -31.5t11 -32.5t16.5 -29.5
t25 -21.5q5 -2 11 -2.5t8 -0.5q1 0 5 1.5t8 2.5z" />
    <glyph glyph-name="p" unicode="p" horiz-adv-x="205" 
d="M48 627q10 0 19 0.5t19 0.5q23 0 44 -6t38 -28q14 -17 19.5 -40.5t5.5 -47.5q0 -11 -0.5 -21t-1.5 -20q-2 -22 -5 -43t-8 -43q-5 -23 -11 -37t-16 -22.5t-25.5 -13.5t-39.5 -9q-11 -2 -21 -2h-21q2 -42 3 -82t1 -80q0 -32 -0.5 -66t-5.5 -65q-1 -5 -8 -5q-2 0 -5 1t-3 5
q4 30 5 63t1 63q0 61 -3 121t-3 121q0 32 1 65.5t4 67.5q0 17 0.5 25.5t2.5 14.5q0 20 -0.5 38.5t-0.5 38.5q0 4 2.5 4.5t4.5 1.5h8zM50 595q0 -53 -4 -106t-4 -106q0 -27 1 -42.5t1 -31.5q27 0 50.5 4.5t49.5 15.5q4 6 9 18.5t9.5 28t7 30.5t2.5 26q2 17 3.5 34t1.5 34
q0 18 -1.5 34t-7 30t-17.5 26.5t-33 21.5q-7 0 -14 1t-15 1q-10 0 -20 -0.5t-19 -0.5v-18z" />
    <glyph glyph-name="q" unicode="q" horiz-adv-x="242" 
d="M42 98q-16 48 -23 99.5t-7 104.5q0 45 4.5 88.5t10.5 84.5q3 19 8.5 45t16 50t27 40.5t42.5 16.5q21 0 36 -14.5t24.5 -35.5t15.5 -44t10 -40q11 -46 17 -94.5t6 -97.5q0 -84 -17 -169q-3 -17 -8.5 -36t-14.5 -36l35 -52q4 -3 4 -5q0 -3 -3 -5t-6 -2q-6 0 -7 4
q-6 6 -14.5 17.5t-19.5 25.5q-11 -17 -26 -28.5t-41 -15.5q-16 2 -27 10.5t-18.5 20.5t-12.5 26.5t-9 28.5zM171 56q-14 21 -25.5 42.5t-16.5 32.5q0 6 7 6q5 0 9 -4q6 -16 15 -30.5t19 -28.5q7 16 11.5 31.5t6.5 27.5q8 42 12 84t4 84q0 21 -1.5 47t-4.5 52.5t-7 51.5
t-9 44l-9 31.5t-11.5 34.5t-16 31t-23.5 21q-2 0 -5 0.5t-6 0.5q-9 -2 -9 -1.5t-10 -2.5q-13 -12 -23.5 -29t-18 -35.5t-12 -37.5t-4.5 -35q-7 -39 -12 -80.5t-5 -83.5q0 -45 5.5 -81.5t10.5 -73.5q2 -16 8 -39t15 -45t21.5 -39.5t27.5 -22.5q19 3 32.5 16t24.5 31z" />
    <glyph glyph-name="r" unicode="r" horiz-adv-x="210" 
d="M79 273q-6 -2 -16 -2h-17q1 -18 1 -35v-34q0 -57 -2.5 -105t-2.5 -95q0 -3 -3 -4t-5 -1q-8 0 -8 6q6 153 8 308t2 308q0 3 2.5 3.5t4.5 2.5q5 0 13 0.5t19 0.5q13 0 27.5 -1t28 -4t25 -8t17.5 -13q11 -14 13 -39.5t2 -49.5q0 -62 -1.5 -105t-9.5 -71t-25 -42.5t-49 -18.5
q17 -45 31 -92t25 -92q6 -22 11.5 -44.5t15.5 -43.5q0 -1 -4 -3t-7 -2q-1 0 -5 2q-11 21 -16.5 44.5t-11.5 45.5q-11 45 -24 92t-30 92h-9zM58 283l33 4h1q1 0 1 0.5t1 0.5q2 0 2.5 -0.5t1.5 -0.5h12t9 2q24 8 36 27.5t14 44.5q3 20 4 40t1 42t-0.5 45t-1.5 42
q-1 7 -1.5 16.5t-2 19t-4.5 18t-9 14.5q-11 9 -35.5 11t-44.5 2h-24q0 -57 -1 -112.5t-1 -109.5v-37q0 -17 -1.5 -34t-1.5 -34z" />
    <glyph glyph-name="s" unicode="s" horiz-adv-x="214" 
d="M22 138q0 6 8 6q4 0 7 -5q0 -9 -0.5 -18t-0.5 -20q0 -20 4 -38.5t18 -32.5q19 -22 42 -22q17 0 32.5 7.5t23.5 23.5q13 23 16.5 50.5t3.5 54.5q0 17 -0.5 33.5t-0.5 32.5q0 35 -13 60t-32.5 46.5t-42.5 41.5t-42 45q-14 17 -17.5 39t-3.5 44q0 18 1.5 38t3.5 37q0 3 -1 5
t-1 4q0 4 2 6q8 29 29 40.5t49 11.5q16 0 29 -2t22 -13q17 -20 21.5 -47t4.5 -55q0 -14 -0.5 -29.5t-0.5 -28.5q-1 -4 -8 -4q-2 0 -5 1t-3 4v37q0 16 -1 35t-4 36t-9.5 31t-17.5 21l-28 2q-16 0 -23 -1.5t-21 -11.5q-6 -8 -10 -14t-9 -14q0 -20 -2.5 -44.5t-2.5 -47.5
q0 -15 2 -29t8 -27q10 -20 26.5 -36t34.5 -33t35.5 -36.5t29.5 -45.5q10 -23 13.5 -46.5t3.5 -46.5q0 -19 -1 -37t-1 -38t-5 -40t-16 -35.5t-27.5 -25.5t-38.5 -10q-32 0 -55 23q-10 9 -15 22.5t-7.5 29t-3 31t-0.5 28.5v7z" />
    <glyph glyph-name="t" unicode="t" horiz-adv-x="239" 
d="M116 214l-12 216q-1 14 -1.5 27t-0.5 27q0 33 1.5 65.5t1.5 66.5q-27 0 -51.5 0.5t-42.5 0.5q-6 0 -6 4q0 5 6 7q21 0 49.5 -1t59 -1.5t59.5 -1.5t49 -1q5 -1 5.5 -2t0.5 -3t-0.5 -4t-5.5 -2q-20 0 -48.5 1.5t-58.5 1.5q0 -40 -2 -77t-2 -76q0 -25 1.5 -57t3.5 -65.5
t4 -66t4 -59.5q0 -28 -0.5 -45.5t-0.5 -33.5q0 -34 0.5 -68t0.5 -65q-1 -5 -8 -5t-8 4q0 24 -0.5 40.5t-1 27t-0.5 16.5v10v19.5t1 19.5z" />
    <glyph glyph-name="u" unicode="u" horiz-adv-x="247" 
d="M46 222q0 -22 -0.5 -45.5t-0.5 -46.5q0 -32 8 -64t31 -48q8 -5 16 -6t16 -1q28 0 45.5 6t26.5 18t12 30t3 41q0 27 0.5 54t0.5 55q0 99 -2 203.5t-4 202.5q0 5 8 5q5 0 7 -4q3 -69 5 -140t2 -140q0 -29 0.5 -62t0.5 -62t-0.5 -57t-0.5 -57q0 -26 -4.5 -51t-21.5 -36
q-13 -8 -35.5 -14.5t-45.5 -6.5q-14 0 -25 2.5t-19 9.5q-14 13 -19 23t-11 27q-6 18 -8 39t-2 42q0 20 0.5 39t0.5 37q0 82 -2 156t-2 141v113q0 8 7 8q6 0 8 -7v-218q0 -38 2.5 -76t2.5 -76v-34z" />
    <glyph glyph-name="v" unicode="v" horiz-adv-x="265" 
d="M245 619q1 3 8 3q6 0 7 -4q-11 -88 -27.5 -173t-36.5 -171q-16 -70 -31 -139t-41 -137q-1 -4 -7 -4q-7 0 -8 3q-21 63 -30.5 130t-17.5 131q-13 93 -26 183.5t-30 181.5q0 6 8 6q4 0 6 -4q15 -74 26 -149t21.5 -150.5t22.5 -151t29 -148.5q20 61 33.5 123.5t27.5 125.5
q20 86 37.5 171t28.5 173z" />
    <glyph glyph-name="w" unicode="w" horiz-adv-x="448" 
d="M221 582q-10 -60 -22 -119.5t-21 -119.5q-12 -84 -24.5 -172.5t-33.5 -170.5q-1 -4 -8 -4q-5 0 -8 3q-14 41 -21.5 84.5t-13.5 87.5t-11.5 87.5t-13.5 85.5q-8 38 -13 76t-5 76q-10 30 -13 63.5t-8 65.5q0 5 8 5q6 0 8 -4q24 -144 43 -291t48 -290q19 96 33.5 194.5
t30.5 195.5q8 48 18.5 95.5t18.5 96.5q1 3 8 3q5 0 8 -4q8 -24 13 -51t9 -55.5t7 -56.5t7 -53q13 -90 26.5 -184t28.5 -184q21 79 36.5 164t29.5 166q11 65 21 128.5t20 128.5q4 4 8 4q6 0 8 -5q-12 -79 -24.5 -157.5t-26.5 -157.5q-14 -76 -29.5 -157t-35.5 -156
q-1 -4 -8 -4t-8 3q-14 70 -25 144t-21.5 148t-20.5 147.5t-23 143.5z" />
    <glyph glyph-name="x" unicode="x" horiz-adv-x="202" 
d="M89 308q-15 53 -30.5 105.5t-28.5 105.5q-6 25 -13 53t-12 52q0 3 3 4.5t5 1.5q6 0 8 -5q6 -26 12.5 -54t15.5 -62.5t21 -76t27 -94.5q7 26 13.5 52t14.5 52q11 44 26.5 92.5t29.5 91.5q1 3 8 3t8 -4q-14 -41 -26 -87t-25 -86q-11 -36 -21 -72.5t-19 -72.5
q6 -22 11.5 -46t13.5 -56.5t21 -76.5t33 -105q2 -5 4.5 -10t2.5 -10q-1 -5 -8 -5q-8 0 -8 6q-12 28 -21 57.5t-17.5 62.5t-18 70.5t-21.5 82.5q-15 -59 -25 -101.5t-18.5 -74t-15.5 -55t-15 -45.5q-1 -5 -8 -5q-2 0 -5 1t-3 5q18 48 30 98t24 101z" />
    <glyph glyph-name="y" unicode="y" horiz-adv-x="189" 
d="M167 620v2q0 1 1 2q0 5 8 5q5 0 8 -5q0 -11 -5.5 -24t-9.5 -24q-9 -37 -20 -72.5t-21 -72.5q-2 -6 -5 -18t-6.5 -24.5t-8 -24.5t-8.5 -19q0 -49 -1 -98t-1 -99q0 -35 1 -73.5t3 -72.5q-1 -5 -8 -5t-8 4q-2 33 -3 71t-1 72q0 51 1 101.5t1 101.5q-7 14 -12 31t-7 31
q-8 30 -20 61t-19 60q-3 12 -5.5 18t-4.5 11t-3.5 11t-3.5 17q-1 6 -2 11.5t-1 10.5q-1 2 -1 6.5v6.5q0 6 8 6q4 0 7 -5q0 -25 8.5 -59t20.5 -70t24.5 -70t19.5 -59q13 44 27.5 89.5t25.5 90.5q2 9 3 15t2.5 11.5t3.5 12t5 16.5z" />
    <glyph glyph-name="z" unicode="z" horiz-adv-x="200" 
d="M10 6q11 48 21.5 97.5t24.5 97.5q8 29 19 57.5t19 57.5q17 60 30 118t33 115q4 15 12 31t10 33q-54 -3 -85 -3q-34 0 -51.5 1.5t-31.5 3.5q-3 0 -4.5 2.5t-1.5 4.5q0 3 6 5q19 -1 38 -1.5t37 -0.5q26 0 50 0.5t50 0.5q6 0 9 -5q0 -17 -16 -58.5t-39 -127.5
q-8 -30 -14.5 -60t-14.5 -60q-8 -29 -19.5 -57.5t-19.5 -57.5q-13 -47 -23.5 -95t-21.5 -94q16 -1 31.5 -2t32.5 -1q22 0 44 1t44 3q3 -1 6 -3t3 -4q0 -3 -6 -4q-22 -2 -44 -3t-44 -1q-20 0 -38.5 1t-38.5 3q-2 1 -4.5 1.5t-2.5 3.5z" />
    <glyph glyph-name="semicolon" unicode=";" horiz-adv-x="97" 
d="M21 -39q-7 0 -7 6q0 13 7 35.5t12 39.5q11 38 15 68t13 53q3 7 10 7q4 0 5.5 -3t1.5 -5q-4 -10 -8 -26.5t-6 -31.5q-9 -40 -16 -69.5t-21 -62.5q-1 -1 -2.5 -5.5t-3.5 -5.5zM58 249q0 4 3.5 8t6.5 4q6 0 8.5 -4t2.5 -8q0 -11 -10 -11q-4 0 -7.5 3.5t-3.5 7.5z" />
    <glyph glyph-name="equal" unicode="=" horiz-adv-x="137" 
d="M87 345q17 0 22 1t19 1q4 -4 4 -8q0 -8 -5 -8h-38t-12 -0.5t-7 -1t-22 -0.5h-12.5t-8 0.5t-8 0.5h-11.5q-3 0 -3 8q0 5 4 6q9 0 14 0.5t9.5 0.5h9.5h13h32zM9 294q14 0 19 -1t22 -1h31.5h19t13 -0.5t14.5 -0.5q4 -1 4 -6q0 -8 -3 -8q-33 0 -61.5 0.5t-57.5 0.5q-5 0 -5 8
q0 4 4 8z" />
    <glyph glyph-name="guillemotright" unicode="&#xbb;" horiz-adv-x="189" 
d="M31 109q-3 0 -6.5 1.5t-4.5 3.5q0 6 3 15t7.5 19.5t9.5 21t8 19.5q9 22 14.5 34t10 20.5t8 15.5t8.5 18q-5 15 -15 34.5t-17 33.5q-10 20 -18.5 40.5t-20.5 40.5q0 3 1 6t3 3q6 0 8 -2q12 -20 20.5 -40t18.5 -40q4 -8 9.5 -19.5l11 -23t9.5 -21t4 -13.5q0 -5 -2 -6
q-7 -20 -18.5 -40t-19.5 -46q-16 -37 -22 -54.5t-10 -20.5zM86 118q12 20 20.5 40.5t18.5 40.5q7 14 17 33.5t15 34.5q-5 11 -8.5 18t-8 15.5t-10 20.5t-14.5 34q-3 9 -8 19.5t-9.5 21t-7.5 19.5t-3 15q1 2 4.5 3.5t6.5 1.5q4 -3 10 -20.5t22 -54.5q3 -10 9.5 -23t12.5 -26
t11 -24.5t7 -18.5q0 -5 -4 -14.5t-9.5 -20.5t-11 -22.5t-9.5 -19.5q-10 -20 -18.5 -40t-20.5 -40q-2 -2 -8 -2q-2 0 -3 3t-1 6z" />
    <glyph glyph-name="guillemotleft" unicode="&#xab;" horiz-adv-x="189" 
d="M171 118q0 -3 -2.5 -6t-4.5 -3q-3 0 -10 12t-14 26.5t-13 27.5t-7 16q-4 8 -9.5 19.5t-11 22.5t-9.5 20.5t-4 14.5q0 7 5.5 19t12 25.5t13 26.5t9.5 21q16 37 22 54.5t10 20.5q3 0 6.5 -1.5t4.5 -3.5q0 -6 -3.5 -15t-8 -19.5l-9 -21t-7.5 -19.5q-9 -22 -14.5 -34
t-9.5 -20.5t-7.5 -15.5t-8.5 -18q5 -15 14.5 -34.5t16.5 -33.5q10 -20 18.5 -40.5t20.5 -40.5zM90 109q-4 3 -10 20.5t-22 54.5q-8 26 -19.5 46t-18.5 40q-2 1 -2 6q0 4 4 13.5t9.5 21l11 23t9.5 19.5q10 20 18.5 40t20.5 40q2 2 8 2q2 0 3 -3t1 -6q-12 -20 -20.5 -40.5
t-18.5 -40.5q-7 -14 -16.5 -33.5t-14.5 -34.5q5 -11 8.5 -18t7.5 -15.5t9.5 -20.5t14.5 -34q3 -9 7.5 -19.5l9 -21t8 -19.5t3.5 -15q-1 -2 -4.5 -3.5t-6.5 -1.5z" />
    <glyph glyph-name="guilsinglleft" unicode="&#x2039;" horiz-adv-x="121" 
d="M103 118q0 -3 -2.5 -6t-4.5 -3q-3 0 -10 12t-14 26.5t-13 27.5t-7 16q-4 8 -9.5 19.5t-11 22.5t-9.5 20.5t-4 14.5q0 7 5.5 19t12 25.5t13 26.5t9.5 21q16 37 22 54.5t10 20.5q3 0 6.5 -1.5t4.5 -3.5q0 -6 -3.5 -15t-8 -19.5l-9 -21t-7.5 -19.5q-9 -22 -14.5 -34
t-10 -20.5t-8 -15.5t-8.5 -18q5 -15 15 -34.5t17 -33.5q10 -20 18.5 -40.5t20.5 -40.5z" />
    <glyph glyph-name="guilsinglright" unicode="&#x203a;" horiz-adv-x="121" 
d="M18 118q12 20 20.5 40.5t18.5 40.5q7 14 17 33.5t15 34.5q-5 11 -8.5 18t-8 15.5t-10 20.5t-14.5 34q-3 9 -7.5 19.5t-8 21l-6.5 19.5t-3 15q2 5 8 5q4 -3 10 -20.5t22 -54.5q8 -26 19.5 -46t18.5 -40q2 -1 2 -6t-4 -14.5t-9.5 -20.5t-11 -22.5t-9.5 -19.5
q-10 -20 -18.5 -40t-20.5 -40q-2 -2 -8 -2q-2 0 -3 3t-1 6z" />
    <glyph glyph-name="daggerdbl" unicode="&#x2021;" horiz-adv-x="285" 
d="M141 108q-44 0 -70 1.5t-43 1.5q-9 0 -9 8q0 5 6 7h20t22.5 -0.5t30 -0.5h43.5q0 92 -1 150t-2 94t-2 57t-1 39h-40.5t-28.5 0.5t-21 0.5h-18q-5 0 -7 3.5t-2 6.5q0 5 6 7h18t17 -0.5t27 -0.5h49v44t0.5 58.5t1 57.5t1.5 41q1 4 8 4q8 0 8 -6q-1 -14 -1.5 -41.5t-0.5 -58
v-58v-41.5h54t52 -1q9 -2 9 -7t-3 -7.5t-6 -2.5q-21 0 -51 0.5t-55 0.5q0 -35 1 -70t1 -70v-95t1 -105h51.5t53.5 -1q7 -1 7 -7q0 -2 -1 -5t-4 -3q-23 0 -49 -0.5t-58 -0.5q0 -48 0.5 -93.5t0.5 -84.5q0 -5 -7 -5q-6 0 -8 4v179z" />
    </font>
</defs>
</svg>
